<?xml version="1.0" encoding="us-ascii" standalone="no"?><svg xmlns="http://www.w3.org/2000/svg" xmlns:xlink="http://www.w3.org/1999/xlink" contentStyleType="text/css" height="1321px" preserveAspectRatio="none" style="width:419px;height:1321px;background:#FFFFFF;" version="1.1" viewBox="0 0 419 1321" width="419px" zoomAndPan="magnify"><defs/><g><text fill="#000000" font-family="Verdana" font-size="22" font-weight="bold" lengthAdjust="spacing" textLength="264" x="73.0922" y="38.5181">Audio Playback Pipeline</text><!--entity req--><g id="elem_req"><rect fill="#ADD8E6" height="39.0679" rx="2.5" ry="2.5" style="stroke:#000000;stroke-width:1.0;" width="118" x="63.6844" y="82.9641"/><text fill="#000000" font-family="Verdana" font-size="14" lengthAdjust="spacing" textLength="98" x="73.6844" y="107.93">Audio Request</text></g><g id="elem_GMN3"><path d="M216.6844,61.9641 L216.6844,98.4641 L181.7644,102.4641 L216.6844,106.4641 L216.6844,142.7882 A0,0 0 0 0 216.6844,142.7882 L386.6844,142.7882 A0,0 0 0 0 386.6844,142.7882 L386.6844,71.9641 L376.6844,61.9641 L216.6844,61.9641 A0,0 0 0 0 216.6844,61.9641 " fill="#FFFFEE" style="stroke:#000000;stroke-width:1.0;"/><path d="M376.6844,61.9641 L376.6844,71.9641 L386.6844,71.9641 L376.6844,61.9641 " fill="#FFFFEE" style="stroke:#000000;stroke-width:1.0;"/><text fill="#000000" font-family="Verdana" font-size="13" lengthAdjust="spacing" textLength="89" x="222.6844" y="80.8611">Trigger source:</text><text fill="#000000" font-family="Verdana" font-size="13" lengthAdjust="spacing" textLength="149" x="222.6844" y="98.5671">&#183; Voice keyword detected</text><text fill="#000000" font-family="Verdana" font-size="13" lengthAdjust="spacing" textLength="118" x="222.6844" y="116.2731">&#183; BLE CMD from app</text><text fill="#000000" font-family="Verdana" font-size="13" lengthAdjust="spacing" textLength="83" x="222.6844" y="133.9792">&#183; Button press</text></g><!--entity mgr--><g id="elem_mgr"><rect fill="#90EE90" height="39.0679" rx="2.5" ry="2.5" style="stroke:#000000;stroke-width:1.0;" width="128" x="58.6844" y="221.9641"/><text fill="#000000" font-family="Verdana" font-size="14" lengthAdjust="spacing" textLength="108" x="68.6844" y="246.93">Sound Manager</text></g><!--entity sd--><g id="elem_sd"><path d="M85.6844,349.9641 C85.6844,339.9641 122.6844,339.9641 122.6844,339.9641 C122.6844,339.9641 159.6844,339.9641 159.6844,349.9641 L159.6844,378.032 C159.6844,388.032 122.6844,388.032 122.6844,388.032 C122.6844,388.032 85.6844,388.032 85.6844,378.032 L85.6844,349.9641 " fill="#FFFFFF" style="stroke:#000000;stroke-width:1.0;"/><path d="M85.6844,349.9641 C85.6844,359.9641 122.6844,359.9641 122.6844,359.9641 C122.6844,359.9641 159.6844,359.9641 159.6844,349.9641 " fill="none" style="stroke:#000000;stroke-width:1.0;"/><text fill="#000000" font-family="Verdana" font-size="14" lengthAdjust="spacing" textLength="54" x="95.6844" y="378.93">SD Card</text></g><!--entity decode--><g id="elem_decode"><rect fill="#FFFFE0" height="39.0679" rx="2.5" ry="2.5" style="stroke:#000000;stroke-width:1.0;" width="110" x="67.6844" y="487.9641"/><text fill="#000000" font-family="Verdana" font-size="14" lengthAdjust="spacing" textLength="90" x="77.6844" y="512.93">PCM Decoder</text></g><g id="elem_GMN9"><path d="M213.1844,466.9641 L213.1844,503.4641 L177.9744,507.4641 L213.1844,511.4641 L213.1844,547.7882 A0,0 0 0 0 213.1844,547.7882 L412.1844,547.7882 A0,0 0 0 0 412.1844,547.7882 L412.1844,476.9641 L402.1844,466.9641 L213.1844,466.9641 A0,0 0 0 0 213.1844,466.9641 " fill="#FFFFEE" style="stroke:#000000;stroke-width:1.0;"/><path d="M402.1844,466.9641 L402.1844,476.9641 L412.1844,476.9641 L402.1844,466.9641 " fill="#FFFFEE" style="stroke:#000000;stroke-width:1.0;"/><text fill="#000000" font-family="Verdana" font-size="13" lengthAdjust="spacing" textLength="117" x="219.1844" y="485.8611">Supported formats:</text><text fill="#000000" font-family="Verdana" font-size="13" lengthAdjust="spacing" textLength="178" x="219.1844" y="503.5671">&#183; Raw PCM 16-bit mono 16kHz</text><text fill="#000000" font-family="Verdana" font-size="13" lengthAdjust="spacing" textLength="164" x="219.1844" y="521.2731">&#183; Optional: WAV header skip</text><text fill="#000000" font-family="Verdana" font-size="13" lengthAdjust="spacing" textLength="177" x="219.1844" y="538.9792">No codec libs &#8212; minimal flash</text></g><!--entity mix--><g id="elem_mix"><rect fill="#F08080" height="39.0679" rx="2.5" ry="2.5" style="stroke:#000000;stroke-width:1.0;" width="119" x="63.1844" y="656.9641"/><text fill="#000000" font-family="Verdana" font-size="14" lengthAdjust="spacing" textLength="99" x="73.1844" y="681.93">Mixer / Panner</text></g><g id="elem_GMN13"><path d="M217.1844,626.9641 L217.1844,672.4641 L182.4244,676.4641 L217.1844,680.4641 L217.1844,725.4942 A0,0 0 0 0 217.1844,725.4942 L390.1844,725.4942 A0,0 0 0 0 390.1844,725.4942 L390.1844,636.9641 L380.1844,626.9641 L217.1844,626.9641 A0,0 0 0 0 217.1844,626.9641 " fill="#FFFFEE" style="stroke:#000000;stroke-width:1.0;"/><path d="M380.1844,626.9641 L380.1844,636.9641 L390.1844,636.9641 L380.1844,626.9641 " fill="#FFFFEE" style="stroke:#000000;stroke-width:1.0;"/><text fill="#000000" font-family="Verdana" font-size="13" lengthAdjust="spacing" textLength="125" x="223.1844" y="645.8611">4-channel spatial mix</text><text fill="#000000" font-family="Verdana" font-size="13" lengthAdjust="spacing" textLength="137" x="223.1844" y="663.5671">Stereo L/R &#8594; face pairs:</text><text fill="#000000" font-family="Verdana" font-size="13" lengthAdjust="spacing" textLength="143" x="223.1844" y="681.2731">&#183; Face 0+2 = Left channel</text><text fill="#000000" font-family="Verdana" font-size="13" lengthAdjust="spacing" textLength="152" x="223.1844" y="698.9792">&#183; Face 1+3 = Right channel</text><text fill="#000000" font-family="Verdana" font-size="13" lengthAdjust="spacing" textLength="121" x="223.1844" y="716.6852">Gain: 0.0-1.0 per face</text></g><!--entity dma--><g id="elem_dma"><rect fill="#E6E6FA" height="58.1358" rx="2.5" ry="2.5" style="stroke:#000000;stroke-width:1.0;" width="133" x="56.1844" y="825.4641"/><text fill="#000000" font-family="Verdana" font-size="14" lengthAdjust="spacing" textLength="113" x="66.1844" y="850.43">DMA Ring Buffer</text><text fill="#000000" font-family="Verdana" font-size="14" lengthAdjust="spacing" textLength="75" x="66.1844" y="869.498">(16KB split)</text></g><g id="elem_GMN17"><path d="M224.6844,804.9641 L224.6844,850.4641 L189.2044,854.4641 L224.6844,858.4641 L224.6844,903.4942 A0,0 0 0 0 224.6844,903.4942 L364.6844,903.4942 A0,0 0 0 0 364.6844,903.4942 L364.6844,814.9641 L354.6844,804.9641 L224.6844,804.9641 A0,0 0 0 0 224.6844,804.9641 " fill="#FFFFEE" style="stroke:#000000;stroke-width:1.0;"/><path d="M354.6844,804.9641 L354.6844,814.9641 L364.6844,814.9641 L354.6844,804.9641 " fill="#FFFFEE" style="stroke:#000000;stroke-width:1.0;"/><text fill="#000000" font-family="Verdana" font-size="13" lengthAdjust="spacing" textLength="100" x="230.6844" y="823.8611">Double buffered:</text><text fill="#000000" font-family="Verdana" font-size="13" lengthAdjust="spacing" textLength="70" x="230.6844" y="841.5671">&#183; Half-0: 8KB</text><text fill="#000000" font-family="Verdana" font-size="13" lengthAdjust="spacing" textLength="70" x="230.6844" y="859.2731">&#183; Half-1: 8KB</text><text fill="#000000" font-family="Verdana" font-size="13" lengthAdjust="spacing" textLength="119" x="230.6844" y="876.9792">IRQ triggers refill on</text><text fill="#000000" font-family="Verdana" font-size="13" lengthAdjust="spacing" textLength="88" x="230.6844" y="894.6852">half/full events</text></g><!--entity i2s--><g id="elem_i2s"><rect fill="#F5DEB3" height="58.1358" rx="2.5" ry="2.5" style="stroke:#000000;stroke-width:1.0;" width="115" x="65.1844" y="982.9641"/><text fill="#000000" font-family="Verdana" font-size="14" lengthAdjust="spacing" textLength="95" x="75.1844" y="1007.93">I2S Peripheral</text><text fill="#000000" font-family="Verdana" font-size="14" lengthAdjust="spacing" textLength="69" x="75.1844" y="1026.998">(ESP32-S3)</text></g><!--entity amp--><g id="elem_amp"><rect fill="#FFFFFF" height="58.1358" rx="2.5" ry="2.5" style="stroke:#000000;stroke-width:1.0;" width="99" x="73.1844" y="1119.9641"/><text fill="#000000" font-family="Verdana" font-size="14" lengthAdjust="spacing" textLength="79" x="83.1844" y="1144.93">MAX98357A</text><text fill="#000000" font-family="Verdana" font-size="14" lengthAdjust="spacing" textLength="62" x="83.1844" y="1163.998">Amplifier</text></g><!--entity spk--><g id="elem_spk"><rect fill="#FFFFFF" height="58.1358" rx="2.5" ry="2.5" style="stroke:#000000;stroke-width:1.0;" width="74" x="85.6844" y="1256.9641"/><text fill="#000000" font-family="Verdana" font-size="14" lengthAdjust="spacing" textLength="54" x="95.6844" y="1281.93">Speaker</text><text fill="#000000" font-family="Verdana" font-size="14" lengthAdjust="spacing" textLength="52" x="95.6844" y="1300.998">(3W 4&#937;)</text></g><!--link req to mgr--><g id="link_req_mgr"><path d="M122.6844,122.2241 C122.6844,148.4641 122.6844,189.8141 122.6844,215.9241 " fill="none" id="req-to-mgr" style="stroke:#000000;stroke-width:1.0;"/><polygon fill="#000000" points="122.6844,221.9241,126.6844,212.9241,122.6844,216.9241,118.6844,212.9241,122.6844,221.9241" style="stroke:#000000;stroke-width:1.0;"/><text fill="#000000" font-family="Verdana" font-size="13" lengthAdjust="spacing" textLength="141" x="123.6844" y="187.8611">play_sound(id, vol, pan)</text></g><!--link mgr to sd--><g id="link_mgr_sd"><path d="M122.6844,261.0241 C122.6844,282.1541 122.6844,310.6941 122.6844,333.6241 " fill="none" id="mgr-to-sd" style="stroke:#000000;stroke-width:1.0;"/><polygon fill="#000000" points="122.6844,339.6241,126.6844,330.6241,122.6844,334.6241,118.6844,330.6241,122.6844,339.6241" style="stroke:#000000;stroke-width:1.0;"/><text fill="#000000" font-family="Verdana" font-size="13" lengthAdjust="spacing" textLength="27" x="123.6844" y="305.8611">read</text><text fill="#000000" font-family="Verdana" font-size="13" lengthAdjust="spacing" textLength="99" x="11" y="328.1876">sounds/{id}.pcm</text></g><!--link sd to decode--><g id="link_sd_decode"><path d="M122.6844,388.0141 C122.6844,415.8941 122.6844,456.2641 122.6844,481.9441 " fill="none" id="sd-to-decode" style="stroke:#000000;stroke-width:1.0;"/><polygon fill="#000000" points="122.6844,487.9441,126.6844,478.9441,122.6844,482.9441,118.6844,478.9441,122.6844,487.9441" style="stroke:#000000;stroke-width:1.0;"/><text fill="#000000" font-family="Verdana" font-size="13" lengthAdjust="spacing" textLength="58" x="123.6844" y="432.8611">raw bytes</text></g><!--link decode to mix--><g id="link_decode_mix"><path d="M122.6844,526.9741 C122.6844,559.0741 122.6844,618.7141 122.6844,650.8741 " fill="none" id="decode-to-mix" style="stroke:#000000;stroke-width:1.0;"/><polygon fill="#000000" points="122.6844,656.8741,126.6844,647.8741,122.6844,651.8741,118.6844,647.8741,122.6844,656.8741" style="stroke:#000000;stroke-width:1.0;"/><text fill="#000000" font-family="Verdana" font-size="13" lengthAdjust="spacing" textLength="80" x="123.6844" y="592.8611">PCM samples</text></g><!--link mix to dma--><g id="link_mix_dma"><path d="M122.6844,695.9641 C122.6844,726.8541 122.6844,783.1141 122.6844,819.4141 " fill="none" id="mix-to-dma" style="stroke:#000000;stroke-width:1.0;"/><polygon fill="#000000" points="122.6844,825.4141,126.6844,816.4141,122.6844,820.4141,118.6844,816.4141,122.6844,825.4141" style="stroke:#000000;stroke-width:1.0;"/><text fill="#000000" font-family="Verdana" font-size="13" lengthAdjust="spacing" textLength="128" x="123.6844" y="770.8611">stereo interleaved i16</text></g><!--link dma to i2s--><g id="link_dma_i2s"><path d="M122.6844,883.6241 C122.6844,911.7141 122.6844,948.6341 122.6844,976.7541 " fill="none" id="dma-to-i2s" style="stroke:#000000;stroke-width:1.0;"/><polygon fill="#000000" points="122.6844,982.7541,126.6844,973.7541,122.6844,977.7541,118.6844,973.7541,122.6844,982.7541" style="stroke:#000000;stroke-width:1.0;"/><text fill="#000000" font-family="Verdana" font-size="13" lengthAdjust="spacing" textLength="79" x="123.6844" y="948.8611">DMA transfer</text></g><!--link i2s to amp--><g id="link_i2s_amp"><path d="M122.6844,1041.2641 C122.6844,1064.3041 122.6844,1090.6741 122.6844,1113.7041 " fill="none" id="i2s-to-amp" style="stroke:#000000;stroke-width:1.0;"/><polygon fill="#000000" points="122.6844,1119.7041,126.6844,1110.7041,122.6844,1114.7041,118.6844,1110.7041,122.6844,1119.7041" style="stroke:#000000;stroke-width:1.0;"/><text fill="#000000" font-family="Verdana" font-size="13" lengthAdjust="spacing" textLength="123" x="123.6844" y="1085.8611">BCLK / LRCLK / DATA</text></g><!--link amp to spk--><g id="link_amp_spk"><path d="M122.6844,1178.2641 C122.6844,1201.3041 122.6844,1227.6741 122.6844,1250.7041 " fill="none" id="amp-to-spk" style="stroke:#000000;stroke-width:1.0;"/><polygon fill="#000000" points="122.6844,1256.7041,126.6844,1247.7041,122.6844,1251.7041,118.6844,1247.7041,122.6844,1256.7041" style="stroke:#000000;stroke-width:1.0;"/><text fill="#000000" font-family="Verdana" font-size="13" lengthAdjust="spacing" textLength="92" x="123.6844" y="1222.8611">amplified audio</text></g><!--SRC=[TLHRRXCn5FttAYxj3wXDcpIbG2IGyYXjrGH2WYX8IEWclfDOyTYkxUa3XCGN2q1iWXNmpm9O12lXUcOgsghCpypSStpkwypSYqlA2Pn6PKHOAUFGOmupdAyMtXP6zgss7jQVbzSrXh6HUdUnzlU5Y2fgWcuXbOMnniia1sFbI2j3GdYQHpGBfgnLd0cT5XJY6c00JwUmFbIBPUpfWaJA0pwzWiqIA01Uy_k2F0HR-3brEFBh9xonQawmeijpwoL8Yfo4P8NrXllG7mqWypO7TAwE5Z5Q0yvJ28ACB7kwKTqqzGOZDCZfokhoXQ-hE_14HWY94MSO4da0VVIof0LvGsVS7y60vbRMAh9yheNUaTRs_5QZ5OFhd1REMS-TG6PzZZ7KxKxm799iQwynKn5oQom_hmu_Ll1B5vKrg3jmqdq3IqAPvhLIgVKN5fBu7BIQ1VZpvJlaogWSDMGQm_BkKOpK1IjimnYDkPg5kgXRw5kF-bO7Z7AktSPycKve20wZuXnLV1h9auNXzWJ-VFq66VBk72f_rTxp56XkxC1J658MeLQv1hOssWnEodJ_q0FsSGUQMyr6Qwi9ZajEqdUtD1Xr-RnPi16oZFnxSx-rTzpZGhMA3wezvSWTuXaV9tzxGpbole4jPgmrAnL8rjKVeiuQpGuyFkvT2xIk0aUJLn0h3oU_Pqfhi8Q19TEsiu9VYNF6_xZoQ6SAO_BABOd7pcNlJyVjdSQqNHMjTWAid_3Auyq5Tjy-UTn- -AZxtdHpRZ5JzHenTpTDxmXNvJZQ9x3x-qUb6jmgiKwXqNXMVWMTzDEu_13I9t9VoKquitgJTsWUY0GdMf3CykmzM2jfOVkJaf-tt3nV4umbIlqbC8tzFBkC54GTAlEmmpgbpGDNgHbCaV8SRwO3eNAHCdpNn7kIe5fx8e69b2RHWRJcwD44tf18eGIn74Ez_l2OFJsSLFT1ztLN9AGitgsOWVMe963wKuc_]--></g></svg>