<?xml version="1.0" encoding="us-ascii" standalone="no"?><svg xmlns="http://www.w3.org/2000/svg" xmlns:xlink="http://www.w3.org/1999/xlink" contentStyleType="text/css" height="1266px" preserveAspectRatio="none" style="width:760px;height:1266px;background:#FFFFFF;" version="1.1" viewBox="0 0 760 1266" width="760px" zoomAndPan="magnify"><defs/><g><text fill="#000000" font-family="Verdana" font-size="22" font-weight="bold" lengthAdjust="spacing" textLength="497.6875" x="129.6563" y="38.5181">BLE GATT Protocol &#8212; Cube &#8596; Companion App</text><rect fill="#FFFFFF" height="51.412" style="stroke:#000000;stroke-width:1.0;" width="494.5" x="15" y="728.1523"/><line style="stroke:#000000;stroke-width:1.0;" x1="41" x2="41" y1="136.032" y2="1182.0366"/><line style="stroke:#000000;stroke-width:1.0;" x1="441.5" x2="441.5" y1="136.032" y2="1182.0366"/><text fill="#000000" font-family="Verdana" font-size="14" lengthAdjust="spacing" textLength="27" x="25" y="131.93">App</text><ellipse cx="41.5" cy="64.9641" fill="#FFFFFF" rx="8" ry="8" style="stroke:#000000;stroke-width:1.0;"/><path d="M41.5,72.9641 L41.5,99.9641 M28.5,80.9641 L54.5,80.9641 M41.5,99.9641 L28.5,114.9641 M41.5,99.9641 L54.5,114.9641 " fill="none" style="stroke:#000000;stroke-width:1.0;"/><text fill="#000000" font-family="Verdana" font-size="14" lengthAdjust="spacing" textLength="27" x="25" y="1196.0025">App</text><ellipse cx="41.5" cy="1209.1045" fill="#FFFFFF" rx="8" ry="8" style="stroke:#000000;stroke-width:1.0;"/><path d="M41.5,1217.1045 L41.5,1244.1045 M28.5,1225.1045 L54.5,1225.1045 M41.5,1244.1045 L28.5,1259.1045 M41.5,1244.1045 L54.5,1259.1045 " fill="none" style="stroke:#000000;stroke-width:1.0;"/><rect fill="#FFFFFF" height="52.1358" rx="2.5" ry="2.5" style="stroke:#000000;stroke-width:1.0;" width="96" x="393.5" y="82.8962"/><text fill="#000000" font-family="Verdana" font-size="14" lengthAdjust="spacing" textLength="82" x="400.5" y="104.8621">GATT Server</text><text fill="#000000" font-family="Verdana" font-size="14" lengthAdjust="spacing" textLength="69" x="407" y="123.93">(ESP32-S3)</text><rect fill="#FFFFFF" height="52.1358" rx="2.5" ry="2.5" style="stroke:#000000;stroke-width:1.0;" width="96" x="393.5" y="1181.0366"/><text fill="#000000" font-family="Verdana" font-size="14" lengthAdjust="spacing" textLength="82" x="400.5" y="1203.0025">GATT Server</text><text fill="#000000" font-family="Verdana" font-size="14" lengthAdjust="spacing" textLength="69" x="407" y="1222.0704">(ESP32-S3)</text><rect fill="#FFFFFF" height="3" style="stroke:#FFFFFF;stroke-width:1.0;" width="748" x="5" y="167.885"/><line style="stroke:#000000;stroke-width:0.5;" x1="5" x2="753" y1="167.885" y2="167.885"/><line style="stroke:#000000;stroke-width:0.5;" x1="5" x2="753" y1="170.885" y2="170.885"/><rect fill="#FFFFFF" height="25.706" style="stroke:#000000;stroke-width:1.0;" width="184" x="287" y="156.032"/><text fill="#000000" font-family="Verdana" font-size="13" font-weight="bold" lengthAdjust="spacing" textLength="167" x="293" y="173.929">Advertising &amp; Connection</text><polygon fill="#000000" points="52.5,211.4441,42.5,215.4441,52.5,219.4441,48.5,215.4441" style="stroke:#000000;stroke-width:1.0;"/><line style="stroke:#000000;stroke-width:1.0;" x1="46.5" x2="440.5" y1="215.4441" y2="215.4441"/><text fill="#000000" font-family="Verdana" font-size="13" lengthAdjust="spacing" textLength="218" x="132.5" y="209.635">Advertisement ("CubeMaster-XXXX")</text><polygon fill="#000000" points="429.5,243.1501,439.5,247.1501,429.5,251.1501,433.5,247.1501" style="stroke:#000000;stroke-width:1.0;"/><line style="stroke:#000000;stroke-width:1.0;" x1="41.5" x2="435.5" y1="247.1501" y2="247.1501"/><text fill="#000000" font-family="Verdana" font-size="13" lengthAdjust="spacing" textLength="118" x="182.5" y="241.3411">Connect (MTU=512)</text><rect fill="#FFFFFF" height="3" style="stroke:#FFFFFF;stroke-width:1.0;" width="748" x="5" y="277.0031"/><line style="stroke:#000000;stroke-width:0.5;" x1="5" x2="753" y1="277.0031" y2="277.0031"/><line style="stroke:#000000;stroke-width:0.5;" x1="5" x2="753" y1="280.0031" y2="280.0031"/><rect fill="#FFFFFF" height="25.706" style="stroke:#000000;stroke-width:1.0;" width="116" x="321" y="265.1501"/><text fill="#000000" font-family="Verdana" font-size="13" font-weight="bold" lengthAdjust="spacing" textLength="99" x="327" y="283.0471">Control Service</text><path d="M446,305.8561 L446,403.8561 L748,403.8561 L748,315.8561 L738,305.8561 L446,305.8561 " fill="#FFFFFF" style="stroke:#000000;stroke-width:1.0;"/><path d="M738,305.8561 L738,315.8561 L748,315.8561 L738,305.8561 " fill="#FFFFFF" style="stroke:#000000;stroke-width:1.0;"/><text fill="#000000" font-family="Verdana" font-size="13" lengthAdjust="spacing" textLength="281" x="452" y="324.7531">UUID: 0000FFE0-0000-1000-8000-00805F9B34FB</text><text fill="#000000" font-family="Verdana" font-size="13" lengthAdjust="spacing" textLength="37" x="452" y="342.4591">Chars:</text><text fill="#000000" font-family="Verdana" font-size="13" lengthAdjust="spacing" textLength="181" x="458" y="360.1651">&#183; CMD (Write): trigger playback</text><text fill="#000000" font-family="Verdana" font-size="13" lengthAdjust="spacing" textLength="168" x="458" y="377.8711">&#183; STATUS (Notify): cube state</text><text fill="#000000" font-family="Verdana" font-size="13" lengthAdjust="spacing" textLength="220" x="458" y="395.5772">&#183; CONFIG (Write/Read): keyword map</text><polygon fill="#000000" points="429.5,429.0922,439.5,433.0922,429.5,437.0922,433.5,433.0922" style="stroke:#000000;stroke-width:1.0;"/><line style="stroke:#000000;stroke-width:1.0;" x1="41.5" x2="435.5" y1="433.0922" y2="433.0922"/><text fill="#000000" font-family="Verdana" font-size="13" lengthAdjust="spacing" textLength="357" x="63" y="427.2832">CMD.Write {\"cmd\":\"play\",\"id\":0,\"face\":1,\"volume\":80}</text><polygon fill="#000000" points="52.5,460.7982,42.5,464.7982,52.5,468.7982,48.5,464.7982" style="stroke:#000000;stroke-width:1.0;"/><line style="stroke:#000000;stroke-width:1.0;stroke-dasharray:2.0,2.0;" x1="46.5" x2="440.5" y1="464.7982" y2="464.7982"/><text fill="#000000" font-family="Verdana" font-size="13" lengthAdjust="spacing" textLength="266" x="108.5" y="458.9892">STATUS.Notify {\"playing\":0,\"progress\":50}</text><rect fill="#FFFFFF" height="3" style="stroke:#FFFFFF;stroke-width:1.0;" width="748" x="5" y="494.6512"/><line style="stroke:#000000;stroke-width:0.5;" x1="5" x2="753" y1="494.6512" y2="494.6512"/><line style="stroke:#000000;stroke-width:0.5;" x1="5" x2="753" y1="497.6512" y2="497.6512"/><rect fill="#FFFFFF" height="25.706" style="stroke:#000000;stroke-width:1.0;" width="113" x="322.5" y="482.7982"/><text fill="#000000" font-family="Verdana" font-size="13" font-weight="bold" lengthAdjust="spacing" textLength="96" x="328.5" y="500.6952">Upload Service</text><path d="M446,523.5042 L446,639.5042 L748,639.5042 L748,533.5042 L738,523.5042 L446,523.5042 " fill="#FFFFFF" style="stroke:#000000;stroke-width:1.0;"/><path d="M738,523.5042 L738,533.5042 L748,533.5042 L738,523.5042 " fill="#FFFFFF" style="stroke:#000000;stroke-width:1.0;"/><text fill="#000000" font-family="Verdana" font-size="13" lengthAdjust="spacing" textLength="281" x="452" y="542.4012">UUID: 0000FFE1-0000-1000-8000-00805F9B34FB</text><text fill="#000000" font-family="Verdana" font-size="13" lengthAdjust="spacing" textLength="37" x="452" y="560.1072">Chars:</text><text fill="#000000" font-family="Verdana" font-size="13" lengthAdjust="spacing" textLength="170" x="458" y="577.8133">&#183; START (Write): file metadata</text><text fill="#000000" font-family="Verdana" font-size="13" lengthAdjust="spacing" textLength="190" x="458" y="595.5193">&#183; CHUNK (Write): raw PCM bytes</text><text fill="#000000" font-family="Verdana" font-size="13" lengthAdjust="spacing" textLength="227" x="458" y="613.2253">&#183; DONE (Write): finalize + map keyword</text><text fill="#000000" font-family="Verdana" font-size="13" lengthAdjust="spacing" textLength="194" x="458" y="630.9313">&#183; LIST (Read/Notify): sound index</text><polygon fill="#000000" points="429.5,664.4463,439.5,668.4463,429.5,672.4463,433.5,668.4463" style="stroke:#000000;stroke-width:1.0;"/><line style="stroke:#000000;stroke-width:1.0;" x1="41.5" x2="435.5" y1="668.4463" y2="668.4463"/><text fill="#000000" font-family="Verdana" font-size="13" lengthAdjust="spacing" textLength="331" x="76" y="662.6373">START.Write {\"id\":0,\"name\":\"fire.wav\",\"len\":40000}</text><line style="stroke:#000000;stroke-width:1.0;stroke-dasharray:2.0,2.0;" x1="441.5" x2="483.5" y1="700.1523" y2="700.1523"/><line style="stroke:#000000;stroke-width:1.0;stroke-dasharray:2.0,2.0;" x1="483.5" x2="483.5" y1="700.1523" y2="713.1523"/><line style="stroke:#000000;stroke-width:1.0;stroke-dasharray:2.0,2.0;" x1="442.5" x2="483.5" y1="713.1523" y2="713.1523"/><polygon fill="#000000" points="452.5,709.1523,442.5,713.1523,452.5,717.1523,448.5,713.1523" style="stroke:#000000;stroke-width:1.0;"/><text fill="#000000" font-family="Verdana" font-size="13" lengthAdjust="spacing" textLength="179" x="448.5" y="694.3433">Open \"sounds/0.pcm\" on SD</text><path d="M15,728.1523 L88,728.1523 L88,737.8584 L78,747.8584 L15,747.8584 L15,728.1523 " fill="#FFFFFF" style="stroke:#000000;stroke-width:1.0;"/><rect fill="none" height="51.412" style="stroke:#000000;stroke-width:1.0;" width="494.5" x="15" y="728.1523"/><text fill="#000000" font-family="Verdana" font-size="13" font-weight="bold" lengthAdjust="spacing" textLength="28" x="30" y="743.0494">loop</text><text fill="#000000" font-family="Verdana" font-size="11" font-weight="bold" lengthAdjust="spacing" textLength="122" x="103" y="741.9113">[while chunks remain]</text><polygon fill="#000000" points="429.5,767.5644,439.5,771.5644,429.5,775.5644,433.5,771.5644" style="stroke:#000000;stroke-width:1.0;"/><line style="stroke:#000000;stroke-width:1.0;" x1="41.5" x2="435.5" y1="771.5644" y2="771.5644"/><text fill="#000000" font-family="Verdana" font-size="13" lengthAdjust="spacing" textLength="149" x="167" y="765.7554">CHUNK.Write [512 bytes]</text><polygon fill="#000000" points="429.5,806.2704,439.5,810.2704,429.5,814.2704,433.5,810.2704" style="stroke:#000000;stroke-width:1.0;"/><line style="stroke:#000000;stroke-width:1.0;" x1="41.5" x2="435.5" y1="810.2704" y2="810.2704"/><text fill="#000000" font-family="Verdana" font-size="13" lengthAdjust="spacing" textLength="364" x="59.5" y="804.4614">DONE.Write {\"id\":0,\"keyword\":\"fire\",\"led\":\"red_burst\"}</text><line style="stroke:#000000;stroke-width:1.0;stroke-dasharray:2.0,2.0;" x1="441.5" x2="483.5" y1="841.9764" y2="841.9764"/><line style="stroke:#000000;stroke-width:1.0;stroke-dasharray:2.0,2.0;" x1="483.5" x2="483.5" y1="841.9764" y2="854.9764"/><line style="stroke:#000000;stroke-width:1.0;stroke-dasharray:2.0,2.0;" x1="442.5" x2="483.5" y1="854.9764" y2="854.9764"/><polygon fill="#000000" points="452.5,850.9764,442.5,854.9764,452.5,858.9764,448.5,854.9764" style="stroke:#000000;stroke-width:1.0;"/><text fill="#000000" font-family="Verdana" font-size="13" lengthAdjust="spacing" textLength="186" x="448.5" y="836.1674">Close file, update keyword map</text><polygon fill="#000000" points="52.5,882.6824,42.5,886.6824,52.5,890.6824,48.5,886.6824" style="stroke:#000000;stroke-width:1.0;"/><line style="stroke:#000000;stroke-width:1.0;stroke-dasharray:2.0,2.0;" x1="46.5" x2="440.5" y1="886.6824" y2="886.6824"/><text fill="#000000" font-family="Verdana" font-size="13" lengthAdjust="spacing" textLength="376" x="53.5" y="880.8734">LIST.Notify {\"sounds\":[\"fire\",\"thunder\"],\"free\":524288000}</text><rect fill="#FFFFFF" height="3" style="stroke:#FFFFFF;stroke-width:1.0;" width="748" x="5" y="916.5354"/><line style="stroke:#000000;stroke-width:0.5;" x1="5" x2="753" y1="916.5354" y2="916.5354"/><line style="stroke:#000000;stroke-width:0.5;" x1="5" x2="753" y1="919.5354" y2="919.5354"/><rect fill="#FFFFFF" height="25.706" style="stroke:#000000;stroke-width:1.0;" width="144" x="307" y="904.6824"/><text fill="#000000" font-family="Verdana" font-size="13" font-weight="bold" lengthAdjust="spacing" textLength="127" x="313" y="922.5794">LED Pattern Upload</text><path d="M446,945.3884 L446,1025.3884 L748,1025.3884 L748,955.3884 L738,945.3884 L446,945.3884 " fill="#FFFFFF" style="stroke:#000000;stroke-width:1.0;"/><path d="M738,945.3884 L738,955.3884 L748,955.3884 L738,945.3884 " fill="#FFFFFF" style="stroke:#000000;stroke-width:1.0;"/><text fill="#000000" font-family="Verdana" font-size="13" lengthAdjust="spacing" textLength="281" x="452" y="964.2855">UUID: 0000FFE2-0000-1000-8000-00805F9B34FB</text><text fill="#000000" font-family="Verdana" font-size="13" lengthAdjust="spacing" textLength="37" x="452" y="981.9915">Chars:</text><text fill="#000000" font-family="Verdana" font-size="13" lengthAdjust="spacing" textLength="229" x="458" y="999.6975">&#183; PATTERN (Write): compressed bitmap</text><text fill="#000000" font-family="Verdana" font-size="13" lengthAdjust="spacing" textLength="262" x="458" y="1017.4035">&#183; PATTERN_LIST (Read/Notify): pattern index</text><polygon fill="#000000" points="429.5,1050.9185,439.5,1054.9185,429.5,1058.9185,433.5,1054.9185" style="stroke:#000000;stroke-width:1.0;"/><line style="stroke:#000000;stroke-width:1.0;" x1="41.5" x2="435.5" y1="1054.9185" y2="1054.9185"/><text fill="#000000" font-family="Verdana" font-size="13" lengthAdjust="spacing" textLength="313" x="85" y="1049.1095">PATTERN.Write {\"id\":0,\"name\":\"fire\",\"data\":[...]}</text><rect fill="#FFFFFF" height="3" style="stroke:#FFFFFF;stroke-width:1.0;" width="748" x="5" y="1084.7715"/><line style="stroke:#000000;stroke-width:0.5;" x1="5" x2="753" y1="1084.7715" y2="1084.7715"/><line style="stroke:#000000;stroke-width:0.5;" x1="5" x2="753" y1="1087.7715" y2="1087.7715"/><rect fill="#FFFFFF" height="25.706" style="stroke:#000000;stroke-width:1.0;" width="112" x="323" y="1072.9185"/><text fill="#000000" font-family="Verdana" font-size="13" font-weight="bold" lengthAdjust="spacing" textLength="95" x="329" y="1090.8155">Disconnection</text><polygon fill="#000000" points="429.5,1128.3306,439.5,1132.3306,429.5,1136.3306,433.5,1132.3306" style="stroke:#000000;stroke-width:1.0;"/><line style="stroke:#000000;stroke-width:1.0;" x1="41.5" x2="435.5" y1="1132.3306" y2="1132.3306"/><text fill="#000000" font-family="Verdana" font-size="13" lengthAdjust="spacing" textLength="66" x="208.5" y="1126.5216">Disconnect</text><polygon fill="#000000" points="52.5,1160.0366,42.5,1164.0366,52.5,1168.0366,48.5,1164.0366" style="stroke:#000000;stroke-width:1.0;"/><line style="stroke:#000000;stroke-width:1.0;" x1="46.5" x2="440.5" y1="1164.0366" y2="1164.0366"/><text fill="#000000" font-family="Verdana" font-size="13" lengthAdjust="spacing" textLength="99" x="192" y="1158.2276">Start advertising</text><!--SRC=[bLJRRjf047ttLqnTgG8r448IYI9HYN19emQ20gYLuYXQx0ciOk-wwoKqhIhrgL_GV-bxFoLVqXbZ3A7f9NwmnkkpCsVFd9rdTeOHGXmAgPpaHgfO6171HFWtKwFdAcZfK1jutasV3KI27-QeVEnXaeWfDaCvLU2ZicWSnqeR8XoTTk2uEHh1m6YhVHt2_TVlq9fF4Ew_KQ2ZM2Yf5JJZs764RwcGIx4B8W51QrJ9IbyIoeARPXgYkKNZgK9dEDYlbeRxnHJiKqx7QJIW6T1lAnEffl22AYY5lkKIZOR382YzvinGpv5qUifUS9bMJoH4l_IU7hVeC8xWwRRwAXSKUgDnut2lMaphqQerT33c9NtaCafR12EdCmlwUiaCO3m-QTUXGa-tswcKE2ZjyQl6hqgbLZdilZhQF-WU4RWr4oQfKm3mymUqUcqel3FIOh4EbX9FqN2_xhX7Az1mr1oDXr3eQoklxmYOiawii9ZdEUjtJuwpLBldA0A2tU3TGfi08X4xg09WyixsoNljShe9Fdkk7mMUM_TS9k2vEvuh-Rj2mRNmaS8z2czrE8_uerRvaicUwxvaMbuIvOoSYTgLPOcDdXgo57qUqcRMU1o7MWHFatZlIH8Jf_FHMkHhIUQDq8f0M97BzsRSVxl66B60GQi7apkBoGhJFkjtDjCe4SfF22zPtfNKA-pfoP1ASXjsywObVE50gW0__h4RATTrFtBvbKWLfpv8W-M5k4sx4wAYnGCMOwCJMQgp61LuRbersQsKOp_oNA3BCcmxeTOnB6QiX3-Rgvi434Oy8m2stC6wP7mkw5ui5Rba_blCMPr7Y6UwvDmptii5Wy7LP6uIwxc_ys-5Ei6qMpimZwbP-C3FMyPZmJTijpmr5RdOA6lfg07D5_UI3MsG5Jsi7bHhjLH0TkDffmq3OMbEg9Kp_ykHrISvSa33hdFUNvl9fs79zm83c4ZBntk8l7hCJt76y- -EoZByorEfG7mZMBDokNovrACj4__1cDrgUlvxQ_uEBGrt4EjvxVm2]--></g></svg>