<?xml version="1.0" encoding="us-ascii" standalone="no"?><svg xmlns="http://www.w3.org/2000/svg" xmlns:xlink="http://www.w3.org/1999/xlink" contentStyleType="text/css" height="1539px" preserveAspectRatio="none" style="width:758px;height:1539px;background:#FFFFFF;" version="1.1" viewBox="0 0 758 1539" width="758px" zoomAndPan="magnify"><defs/><g><text fill="#000000" font-family="Verdana" font-size="22" font-weight="bold" lengthAdjust="spacing" textLength="578" x="88.5" y="38.5181">BLE pairing and rename flow, CubeInfo GATT Service</text><line style="stroke:#000000;stroke-width:1.0;" x1="110" x2="110" y1="155.0999" y2="1436.7526"/><line style="stroke:#000000;stroke-width:1.0;" x1="421.5" x2="421.5" y1="155.0999" y2="1436.7526"/><text fill="#000000" font-family="Verdana" font-size="14" lengthAdjust="spacing" textLength="108" x="53" y="131.93">Companion App</text><text fill="#000000" font-family="Verdana" font-size="14" lengthAdjust="spacing" textLength="65" x="74.5" y="150.998">(btleplug)</text><ellipse cx="110" cy="64.9641" fill="#FFFFFF" rx="8" ry="8" style="stroke:#000000;stroke-width:1.0;"/><path d="M110,72.9641 L110,99.9641 M97,80.9641 L123,80.9641 M110,99.9641 L97,114.9641 M110,99.9641 L123,114.9641 " fill="none" style="stroke:#000000;stroke-width:1.0;"/><text fill="#000000" font-family="Verdana" font-size="14" lengthAdjust="spacing" textLength="108" x="53" y="1450.7186">Companion App</text><text fill="#000000" font-family="Verdana" font-size="14" lengthAdjust="spacing" textLength="65" x="74.5" y="1469.7865">(btleplug)</text><ellipse cx="110" cy="1482.8885" fill="#FFFFFF" rx="8" ry="8" style="stroke:#000000;stroke-width:1.0;"/><path d="M110,1490.8885 L110,1517.8885 M97,1498.8885 L123,1498.8885 M110,1517.8885 L97,1532.8885 M110,1517.8885 L123,1532.8885 " fill="none" style="stroke:#000000;stroke-width:1.0;"/><rect fill="#FFFFFF" height="52.1358" rx="2.5" ry="2.5" style="stroke:#000000;stroke-width:1.0;" width="179" x="332.5" y="101.9641"/><text fill="#000000" font-family="Verdana" font-size="14" lengthAdjust="spacing" textLength="98" x="373" y="123.93">BLE Peripheral</text><text fill="#000000" font-family="Verdana" font-size="14" lengthAdjust="spacing" textLength="165" x="339.5" y="142.998">(ESP32-S3 / trouble-host)</text><rect fill="#FFFFFF" height="52.1358" rx="2.5" ry="2.5" style="stroke:#000000;stroke-width:1.0;" width="179" x="332.5" y="1435.7526"/><text fill="#000000" font-family="Verdana" font-size="14" lengthAdjust="spacing" textLength="98" x="373" y="1457.7186">BLE Peripheral</text><text fill="#000000" font-family="Verdana" font-size="14" lengthAdjust="spacing" textLength="165" x="339.5" y="1476.7865">(ESP32-S3 / trouble-host)</text><rect fill="#FFFFFF" height="3" style="stroke:#FFFFFF;stroke-width:1.0;" width="746" x="5" y="186.9529"/><line style="stroke:#000000;stroke-width:0.5;" x1="5" x2="751" y1="186.9529" y2="186.9529"/><line style="stroke:#000000;stroke-width:0.5;" x1="5" x2="751" y1="189.9529" y2="189.9529"/><rect fill="#FFFFFF" height="25.706" style="stroke:#000000;stroke-width:1.0;" width="127" x="314.5" y="175.0999"/><text fill="#000000" font-family="Verdana" font-size="13" font-weight="bold" lengthAdjust="spacing" textLength="110" x="320.5" y="192.9969">Device Discovery</text><polygon fill="#000000" points="121,248.218,111,252.218,121,256.218,117,252.218" style="stroke:#000000;stroke-width:1.0;"/><line style="stroke:#000000;stroke-width:1.0;" x1="115" x2="421" y1="252.218" y2="252.218"/><text fill="#000000" font-family="Verdana" font-size="13" lengthAdjust="spacing" textLength="165" x="157.5" y="228.703">Advertisement (16-bit UUID</text><text fill="#000000" font-family="Verdana" font-size="13" font-weight="bold" lengthAdjust="spacing" textLength="46" x="325.5" y="228.703">0xCBFF</text><text fill="#000000" font-family="Verdana" font-size="13" lengthAdjust="spacing" textLength="3" x="371.5" y="228.703">,</text><text fill="#000000" font-family="Verdana" font-size="13" lengthAdjust="spacing" textLength="165" x="183.5" y="246.409">device name "CubeMaster")</text><path d="M427,265.218 L427,345.218 L638,345.218 L638,275.218 L628,265.218 L427,265.218 " fill="#FFFFFF" style="stroke:#000000;stroke-width:1.0;"/><path d="M628,265.218 L628,275.218 L638,275.218 L628,265.218 " fill="#FFFFFF" style="stroke:#000000;stroke-width:1.0;"/><text fill="#000000" font-family="Verdana" font-size="13" lengthAdjust="spacing" textLength="153" x="433" y="284.115">Advertising PDU includes:</text><text fill="#000000" font-family="Verdana" font-size="13" lengthAdjust="spacing" textLength="167" x="433" y="301.821">&#183; 16-bit service UUID 0xCBFF</text><text fill="#000000" font-family="Verdana" font-size="13" lengthAdjust="spacing" textLength="190" x="433" y="319.527">&#183; Local name (user-configurable)</text><text fill="#000000" font-family="Verdana" font-size="13" lengthAdjust="spacing" textLength="92" x="433" y="337.233">&#183; TX Power level</text><line style="stroke:#000000;stroke-width:1.0;" x1="110" x2="152" y1="392.4541" y2="392.4541"/><line style="stroke:#000000;stroke-width:1.0;" x1="152" x2="152" y1="392.4541" y2="405.4541"/><line style="stroke:#000000;stroke-width:1.0;" x1="111" x2="152" y1="405.4541" y2="405.4541"/><polygon fill="#000000" points="121,401.4541,111,405.4541,121,409.4541,117,405.4541" style="stroke:#000000;stroke-width:1.0;"/><text fill="#000000" font-family="Verdana" font-size="13" lengthAdjust="spacing" textLength="103" x="136.5" y="368.9391">Filter scan results</text><text fill="#000000" font-family="Verdana" font-size="13" lengthAdjust="spacing" textLength="142" x="117" y="386.6451">by service UUID 0xCBFF</text><rect fill="#FFFFFF" height="3" style="stroke:#FFFFFF;stroke-width:1.0;" width="746" x="5" y="435.3071"/><line style="stroke:#000000;stroke-width:0.5;" x1="5" x2="751" y1="435.3071" y2="435.3071"/><line style="stroke:#000000;stroke-width:0.5;" x1="5" x2="751" y1="438.3071" y2="438.3071"/><rect fill="#FFFFFF" height="25.706" style="stroke:#000000;stroke-width:1.0;" width="93" x="331.5" y="423.4541"/><text fill="#000000" font-family="Verdana" font-size="13" font-weight="bold" lengthAdjust="spacing" textLength="76" x="337.5" y="441.3511">Connection</text><polygon fill="#000000" points="410,478.8661,420,482.8661,410,486.8661,414,482.8661" style="stroke:#000000;stroke-width:1.0;"/><line style="stroke:#000000;stroke-width:1.0;" x1="110" x2="416" y1="482.8661" y2="482.8661"/><text fill="#000000" font-family="Verdana" font-size="13" lengthAdjust="spacing" textLength="50" x="241" y="477.0571">Connect</text><polygon fill="#000000" points="410,510.5721,420,514.5721,410,518.5721,414,514.5721" style="stroke:#000000;stroke-width:1.0;"/><line style="stroke:#000000;stroke-width:1.0;" x1="110" x2="416" y1="514.5721" y2="514.5721"/><text fill="#000000" font-family="Verdana" font-size="13" lengthAdjust="spacing" textLength="116" x="208" y="508.7631">Negotiate MTU 247</text><polygon fill="#000000" points="410,542.2782,420,546.2782,410,550.2782,414,546.2782" style="stroke:#000000;stroke-width:1.0;"/><line style="stroke:#000000;stroke-width:1.0;" x1="110" x2="416" y1="546.2782" y2="546.2782"/><text fill="#000000" font-family="Verdana" font-size="13" lengthAdjust="spacing" textLength="136" x="198" y="540.4691">Discover GATT Services</text><path d="M427,559.2782 L427,710.2782 L746,710.2782 L746,569.2782 L736,559.2782 L427,559.2782 " fill="#FFFFFF" style="stroke:#000000;stroke-width:1.0;"/><path d="M736,559.2782 L736,569.2782 L746,569.2782 L736,559.2782 " fill="#FFFFFF" style="stroke:#000000;stroke-width:1.0;"/><text fill="#000000" font-family="Verdana" font-size="13" font-weight="bold" lengthAdjust="spacing" textLength="110" x="433" y="578.1752">CubeInfo Service</text><text fill="#000000" font-family="Verdana" font-size="13" lengthAdjust="spacing" textLength="276" x="433" y="595.8812">UUID: c0bea577-0000-4000-8000-00000000f001</text><text fill="#000000" font-family="Verdana" font-size="13" lengthAdjust="spacing" textLength="3" x="433" y="613.5872">&#160;</text><text fill="#000000" font-family="Verdana" font-size="13" lengthAdjust="spacing" textLength="90" x="433" y="631.2932">Characteristics:</text><text fill="#000000" font-family="Verdana" font-size="13" lengthAdjust="spacing" textLength="298" x="433" y="648.9992">&#9500;&#9472; cube_name  (UUID: ...f004) [Read+Write] [u8;32]</text><text fill="#000000" font-family="Verdana" font-size="13" lengthAdjust="spacing" textLength="252" x="433" y="666.7052">&#9500;&#9472; status     (UUID: ...ffe2) [Read+Notify] u8</text><text fill="#000000" font-family="Verdana" font-size="13" lengthAdjust="spacing" textLength="259" x="433" y="684.4113">&#9500;&#9472; wifi_ssid  (UUID: ...f011) [Write]       [u8;32]</text><text fill="#000000" font-family="Verdana" font-size="13" lengthAdjust="spacing" textLength="263" x="433" y="702.1173">&#9492;&#9472; wifi_pass  (UUID: ...f012) [Write]       [u8;32]</text><rect fill="#FFFFFF" height="3" style="stroke:#FFFFFF;stroke-width:1.0;" width="746" x="5" y="737.7793"/><line style="stroke:#000000;stroke-width:0.5;" x1="5" x2="751" y1="737.7793" y2="737.7793"/><line style="stroke:#000000;stroke-width:0.5;" x1="5" x2="751" y1="740.7793" y2="740.7793"/><rect fill="#FFFFFF" height="25.706" style="stroke:#000000;stroke-width:1.0;" width="105" x="325.5" y="725.9263"/><text fill="#000000" font-family="Verdana" font-size="13" font-weight="bold" lengthAdjust="spacing" textLength="88" x="331.5" y="743.8233">Rename Flow</text><polygon fill="#000000" points="410,781.3383,420,785.3383,410,789.3383,414,785.3383" style="stroke:#000000;stroke-width:1.0;"/><line style="stroke:#000000;stroke-width:1.0;" x1="110" x2="416" y1="785.3383" y2="785.3383"/><text fill="#000000" font-family="Verdana" font-size="13" lengthAdjust="spacing" textLength="201" x="165.5" y="779.5293">Read cube_name &#8594; "CubeMaster"</text><polygon fill="#000000" points="410,813.0443,420,817.0443,410,821.0443,414,817.0443" style="stroke:#000000;stroke-width:1.0;"/><line style="stroke:#000000;stroke-width:1.0;" x1="110" x2="416" y1="817.0443" y2="817.0443"/><text fill="#000000" font-family="Verdana" font-size="13" lengthAdjust="spacing" textLength="288" x="122" y="811.2353">Write cube_name &#8592; "MyDnDCube" (UTF-8 bytes)</text><line style="stroke:#000000;stroke-width:1.0;" x1="422" x2="464" y1="866.4564" y2="866.4564"/><line style="stroke:#000000;stroke-width:1.0;" x1="464" x2="464" y1="866.4564" y2="879.4564"/><line style="stroke:#000000;stroke-width:1.0;" x1="423" x2="464" y1="879.4564" y2="879.4564"/><polygon fill="#000000" points="433,875.4564,423,879.4564,433,883.4564,429,879.4564" style="stroke:#000000;stroke-width:1.0;"/><text fill="#000000" font-family="Verdana" font-size="13" lengthAdjust="spacing" textLength="152" x="429" y="842.9413">Update advertising name</text><text fill="#000000" font-family="Verdana" font-size="13" lengthAdjust="spacing" textLength="42" x="484" y="860.6474">in RAM</text><rect fill="#FFFFFF" height="3" style="stroke:#FFFFFF;stroke-width:1.0;" width="746" x="5" y="909.3094"/><line style="stroke:#000000;stroke-width:0.5;" x1="5" x2="751" y1="909.3094" y2="909.3094"/><line style="stroke:#000000;stroke-width:0.5;" x1="5" x2="751" y1="912.3094" y2="912.3094"/><rect fill="#FFFFFF" height="25.706" style="stroke:#000000;stroke-width:1.0;" width="129" x="313.5" y="897.4564"/><text fill="#000000" font-family="Verdana" font-size="13" font-weight="bold" lengthAdjust="spacing" textLength="112" x="319.5" y="915.3534">WiFi Provisioning</text><polygon fill="#000000" points="410,952.8684,420,956.8684,410,960.8684,414,956.8684" style="stroke:#000000;stroke-width:1.0;"/><line style="stroke:#000000;stroke-width:1.0;" x1="110" x2="416" y1="956.8684" y2="956.8684"/><text fill="#000000" font-family="Verdana" font-size="13" lengthAdjust="spacing" textLength="281" x="125.5" y="951.0594">Write wifi_ssid &#8592; "HomeNetwork" (UTF-8 bytes)</text><polygon fill="#000000" points="410,984.5744,420,988.5744,410,992.5744,414,988.5744" style="stroke:#000000;stroke-width:1.0;"/><line style="stroke:#000000;stroke-width:1.0;" x1="110" x2="416" y1="988.5744" y2="988.5744"/><text fill="#000000" font-family="Verdana" font-size="13" lengthAdjust="spacing" textLength="236" x="148" y="982.7654">Write wifi_pass &#8592; "s3cr3t!" (UTF-8 bytes)</text><line style="stroke:#000000;stroke-width:1.0;" x1="422" x2="464" y1="1037.9864" y2="1037.9864"/><line style="stroke:#000000;stroke-width:1.0;" x1="464" x2="464" y1="1037.9864" y2="1050.9864"/><line style="stroke:#000000;stroke-width:1.0;" x1="423" x2="464" y1="1050.9864" y2="1050.9864"/><polygon fill="#000000" points="433,1046.9864,423,1050.9864,433,1054.9864,429,1050.9864" style="stroke:#000000;stroke-width:1.0;"/><text fill="#000000" font-family="Verdana" font-size="13" lengthAdjust="spacing" textLength="100" x="450" y="1014.4714">Store credentials</text><text fill="#000000" font-family="Verdana" font-size="13" lengthAdjust="spacing" textLength="142" x="429" y="1032.1774">(RAM only, not yet NVS)</text><rect fill="#FFFFFF" height="3" style="stroke:#FFFFFF;stroke-width:1.0;" width="746" x="5" y="1080.8395"/><line style="stroke:#000000;stroke-width:0.5;" x1="5" x2="751" y1="1080.8395" y2="1080.8395"/><line style="stroke:#000000;stroke-width:0.5;" x1="5" x2="751" y1="1083.8395" y2="1083.8395"/><rect fill="#FFFFFF" height="25.706" style="stroke:#000000;stroke-width:1.0;" width="142" x="307" y="1068.9864"/><text fill="#000000" font-family="Verdana" font-size="13" font-weight="bold" lengthAdjust="spacing" textLength="125" x="313" y="1086.8835">Status Notification</text><polygon fill="#000000" points="121,1124.3985,111,1128.3985,121,1132.3985,117,1128.3985" style="stroke:#000000;stroke-width:1.0;"/><line style="stroke:#000000;stroke-width:1.0;stroke-dasharray:2.0,2.0;" x1="115" x2="421" y1="1128.3985" y2="1128.3985"/><text fill="#000000" font-family="Verdana" font-size="13" lengthAdjust="spacing" textLength="235" x="148.5" y="1122.5895">status.Notify (connection state change)</text><rect fill="#FFFFFF" height="3" style="stroke:#FFFFFF;stroke-width:1.0;" width="746" x="5" y="1158.2515"/><line style="stroke:#000000;stroke-width:0.5;" x1="5" x2="751" y1="1158.2515" y2="1158.2515"/><line style="stroke:#000000;stroke-width:0.5;" x1="5" x2="751" y1="1161.2515" y2="1161.2515"/><rect fill="#FFFFFF" height="25.706" style="stroke:#000000;stroke-width:1.0;" width="189" x="283.5" y="1146.3985"/><text fill="#000000" font-family="Verdana" font-size="13" font-weight="bold" lengthAdjust="spacing" textLength="172" x="289.5" y="1164.2955">Disconnect &amp; Re-advertise</text><polygon fill="#000000" points="410,1201.8105,420,1205.8105,410,1209.8105,414,1205.8105" style="stroke:#000000;stroke-width:1.0;"/><line style="stroke:#000000;stroke-width:1.0;" x1="110" x2="416" y1="1205.8105" y2="1205.8105"/><text fill="#000000" font-family="Verdana" font-size="13" lengthAdjust="spacing" textLength="66" x="233" y="1200.0015">Disconnect</text><line style="stroke:#000000;stroke-width:1.0;" x1="422" x2="464" y1="1255.2225" y2="1255.2225"/><line style="stroke:#000000;stroke-width:1.0;" x1="464" x2="464" y1="1255.2225" y2="1268.2225"/><line style="stroke:#000000;stroke-width:1.0;" x1="423" x2="464" y1="1268.2225" y2="1268.2225"/><polygon fill="#000000" points="433,1264.2225,423,1268.2225,433,1272.2225,429,1268.2225" style="stroke:#000000;stroke-width:1.0;"/><text fill="#000000" font-family="Verdana" font-size="13" lengthAdjust="spacing" textLength="147" x="431" y="1231.7075">Resume advertising with</text><text fill="#000000" font-family="Verdana" font-size="13" lengthAdjust="spacing" textLength="151" x="429" y="1249.4135">new name "MyDnDCube"</text><rect fill="#FFFFFF" height="3" style="stroke:#FFFFFF;stroke-width:1.0;" width="746" x="5" y="1298.0756"/><line style="stroke:#000000;stroke-width:0.5;" x1="5" x2="751" y1="1298.0756" y2="1298.0756"/><line style="stroke:#000000;stroke-width:0.5;" x1="5" x2="751" y1="1301.0756" y2="1301.0756"/><rect fill="#FFFFFF" height="25.706" style="stroke:#000000;stroke-width:1.0;" width="161" x="297.5" y="1286.2225"/><text fill="#000000" font-family="Verdana" font-size="13" font-weight="bold" lengthAdjust="spacing" textLength="144" x="303.5" y="1304.1196">Subsequent Discovery</text><polygon fill="#000000" points="121,1359.3406,111,1363.3406,121,1367.3406,117,1363.3406" style="stroke:#000000;stroke-width:1.0;"/><line style="stroke:#000000;stroke-width:1.0;" x1="115" x2="421" y1="1363.3406" y2="1363.3406"/><text fill="#000000" font-family="Verdana" font-size="13" lengthAdjust="spacing" textLength="178" x="177" y="1339.8256">Advertisement (UUID 0xCBFF,</text><text fill="#000000" font-family="Verdana" font-size="13" lengthAdjust="spacing" textLength="127" x="202.5" y="1357.5316">name "MyDnDCube")</text><path d="M10,1376.3406 L10,1421.3406 L211,1421.3406 L211,1386.3406 L201,1376.3406 L10,1376.3406 " fill="#FFFFFF" style="stroke:#000000;stroke-width:1.0;"/><path d="M201,1376.3406 L201,1386.3406 L211,1386.3406 L201,1376.3406 " fill="#FFFFFF" style="stroke:#000000;stroke-width:1.0;"/><text fill="#000000" font-family="Verdana" font-size="13" lengthAdjust="spacing" textLength="155" x="16" y="1395.2376">App recognizes the device</text><text fill="#000000" font-family="Verdana" font-size="13" lengthAdjust="spacing" textLength="180" x="16" y="1412.9436">by UUID 0xCBFF, not by name</text><!--SRC=[bLNDRXit4BxlKqmKe90KhojBRcouS055Yje0aI5OKX8WCW8kTxGYl28t9DUASkgfvwBmCU-HUn_5Jv8XgNydACg33Zi_tymtCv-Us1dE4OgS2HcPMo4BfjaS4iPlCwrAcNPKhZGyxVctus7mOucIOn-DOHcsSv59u2WjwYYomkO8Brw_X889BMG6JAQWKJB2ckPgSGITCi5NSghWz_Pe14FKTu9Z535k2QxIKVE2IQ4aj8jY8gi9vIloCgjLW1bWHH5H5LPmGLuMAWvfW5eKCzGi9_-Nmq6h6GzRy3DOQYF9CPufOqCu9-Wekho4BZfGw0h3rHtg9LnUHiu8yMyE0owWdT9tAmnnH3ZLa-Tn8YoCnw-wKAytFdLUz7hr-j54fY6Jxw_YMkipGqnKQf5K5a6BR6P1JGCqRD8wPWRTCGZ9yp95Sq6sVx_22iO4KW9S00lsrugpF81LI_AAkP9JaPMQKQEru3Dw1mErG0qvtc4U8V7lIY66gR5DVpsHKvbWE9Cq7bFcranailmkj6EiewH4RjrWYAjLAa_PnTfsyFKACsK58nBwep4qJyyEx6loz_R0HD_dhLxVhCtAirwdpwxA2-2D1DalPsTnWrvywdxEtKzZzQQDnab4tfqPBJ2djeMX3VASFzn_URZ_qwDyyBH2DUGyFZwciDCQlBz6bZvxguN56tXVdl_QQjvi0urbjZJWtaxW59lhm2lYOBgyWV9y6xGGK_71697kevsSKD0AABnTkFjDPC6CEOXi_YXoEtsQuNKumnwTuUCXkcftU7Zuwv-zVJxmzc1xxdz3fR_iogwBgL1rervy3idIegbjJciLF2vIjnPivnPSaeaK4gxRVL_hMz4JCD3gZknAEfT75OSQjcJw6lvGSxn2kr3wzh2A7qPxGdsqQN7Tia_-e_uXAHKrhp4bRH0ifykfKjsWPBuySdJ34YrSlHdMV2l3i2D-4mHdwniAIJS76JRfEEmBLFdstfo5u6PCPXWo-jFnTlY91XUlcSJ796rT3xkufgkVxqzX8UniGiwBbPvj1neQAPCW_lP_AEUEa91S7kPToQJN0IVku6IV18chJ8hFQ83-fI1eBDb8dtRJUQhfcqkwtVHl]--></g></svg>