<?xml version="1.0" encoding="us-ascii" standalone="no"?><svg xmlns="http://www.w3.org/2000/svg" xmlns:xlink="http://www.w3.org/1999/xlink" contentStyleType="text/css" height="1067px" preserveAspectRatio="none" style="width:1419px;height:1067px;background:#FFFFFF;" version="1.1" viewBox="0 0 1419 1067" width="1419px" zoomAndPan="magnify"><defs/><g><text fill="#000000" font-family="Verdana" font-size="22" font-weight="bold" lengthAdjust="spacing" textLength="498" x="456.25" y="38.5181">Companion app architecture, Dioxus desktop</text><!--cluster root--><g id="cluster_root"><path d="M13.5,62.5661 L185.5,62.5661 A3.75,3.75 0 0 1 188,65.0661 L195,87.634 L1033.5,87.634 A2.5,2.5 0 0 1 1036,90.134 L1036,896.0661 A2.5,2.5 0 0 1 1033.5,898.5661 L13.5,898.5661 A2.5,2.5 0 0 1 11,896.0661 L11,65.0661 A2.5,2.5 0 0 1 13.5,62.5661 " fill="#ADD8E6" style="stroke:#333333;stroke-width:1.0;"/><line style="stroke:#333333;stroke-width:1.0;" x1="11" x2="195" y1="87.634" y2="87.634"/><text fill="#000000" font-family="Verdana" font-size="14" font-weight="bold" lengthAdjust="spacing" textLength="171" x="15" y="79.532">Companion app (Dioxus)</text></g><!--cluster views--><g id="cluster_views"><path d="M53.5,310.5661 L94.5,310.5661 A3.75,3.75 0 0 1 97,313.0661 L104,335.634 L597.5,335.634 A2.5,2.5 0 0 1 600,338.134 L600,427.0661 A2.5,2.5 0 0 1 597.5,429.5661 L53.5,429.5661 A2.5,2.5 0 0 1 51,427.0661 L51,313.0661 A2.5,2.5 0 0 1 53.5,310.5661 " fill="#EEEEFF" style="stroke:#333333;stroke-width:1.0;"/><line style="stroke:#333333;stroke-width:1.0;" x1="51" x2="104" y1="335.634" y2="335.634"/><text fill="#000000" font-family="Verdana" font-size="14" font-weight="bold" lengthAdjust="spacing" textLength="40" x="55" y="327.532">Views</text></g><!--cluster components--><g id="cluster_components"><path d="M198.5,124.5661 L288.5,124.5661 A3.75,3.75 0 0 1 291,127.0661 L298,149.634 L791.5,149.634 A2.5,2.5 0 0 1 794,152.134 L794,241.0661 A2.5,2.5 0 0 1 791.5,243.5661 L198.5,243.5661 A2.5,2.5 0 0 1 196,241.0661 L196,127.0661 A2.5,2.5 0 0 1 198.5,124.5661 " fill="#EEEEFF" style="stroke:#333333;stroke-width:1.0;"/><line style="stroke:#333333;stroke-width:1.0;" x1="196" x2="298" y1="149.634" y2="149.634"/><text fill="#000000" font-family="Verdana" font-size="14" font-weight="bold" lengthAdjust="spacing" textLength="89" x="200" y="141.532">Components</text></g><!--cluster modules--><g id="cluster_modules"><path d="M53.5,496.5661 L113.5,496.5661 A3.75,3.75 0 0 1 116,499.0661 L123,521.634 L858.5,521.634 A2.5,2.5 0 0 1 861,524.134 L861,856.0661 A2.5,2.5 0 0 1 858.5,858.5661 L53.5,858.5661 A2.5,2.5 0 0 1 51,856.0661 L51,499.0661 A2.5,2.5 0 0 1 53.5,496.5661 " fill="#EEEEFF" style="stroke:#333333;stroke-width:1.0;"/><line style="stroke:#333333;stroke-width:1.0;" x1="51" x2="123" y1="521.634" y2="521.634"/><text fill="#000000" font-family="Verdana" font-size="14" font-weight="bold" lengthAdjust="spacing" textLength="59" x="55" y="513.532">Modules</text></g><!--cluster blemod--><g id="cluster_blemod"><path d="M273.5,560.0661 L295.5,560.0661 A3.75,3.75 0 0 1 298,562.5661 L305,585.134 L518.5,585.134 A2.5,2.5 0 0 1 521,587.634 L521,824.0661 A2.5,2.5 0 0 1 518.5,826.5661 L273.5,826.5661 A2.5,2.5 0 0 1 271,824.0661 L271,562.5661 A2.5,2.5 0 0 1 273.5,560.0661 " fill="#EEEEFF" style="stroke:#333333;stroke-width:1.0;"/><line style="stroke:#333333;stroke-width:1.0;" x1="271" x2="305" y1="585.134" y2="585.134"/><text fill="#000000" font-family="Verdana" font-size="14" font-weight="bold" lengthAdjust="spacing" textLength="21" x="275" y="577.032">ble</text></g><!--cluster wifimod--><g id="cluster_wifimod"><path d="M547.5,550.5661 L573.5,550.5661 A3.75,3.75 0 0 1 576,553.0661 L583,575.634 L826.5,575.634 A2.5,2.5 0 0 1 829,578.134 L829,670.0661 A2.5,2.5 0 0 1 826.5,672.5661 L547.5,672.5661 A2.5,2.5 0 0 1 545,670.0661 L545,553.0661 A2.5,2.5 0 0 1 547.5,550.5661 " fill="#EEEEFF" style="stroke:#333333;stroke-width:1.0;"/><line style="stroke:#333333;stroke-width:1.0;" x1="545" x2="583" y1="575.634" y2="575.634"/><text fill="#000000" font-family="Verdana" font-size="14" font-weight="bold" lengthAdjust="spacing" textLength="25" x="549" y="567.532">wifi</text></g><!--cluster storemod--><g id="cluster_storemod"><path d="M123.5,723.5661 L160.5,723.5661 A3.75,3.75 0 0 1 163,726.0661 L170,748.634 L222.5,748.634 A2.5,2.5 0 0 1 225,751.134 L225,824.0661 A2.5,2.5 0 0 1 222.5,826.5661 L123.5,826.5661 A2.5,2.5 0 0 1 121,824.0661 L121,726.0661 A2.5,2.5 0 0 1 123.5,723.5661 " fill="#EEEEFF" style="stroke:#333333;stroke-width:1.0;"/><line style="stroke:#333333;stroke-width:1.0;" x1="121" x2="170" y1="748.634" y2="748.634"/><text fill="#000000" font-family="Verdana" font-size="14" font-weight="bold" lengthAdjust="spacing" textLength="36" x="125" y="740.532">store</text></g><!--cluster deps--><g id="cluster_deps"><path d="M593.5,957.5661 L751.5,957.5661 A3.75,3.75 0 0 1 754,960.0661 L761,982.634 L1099.5,982.634 A2.5,2.5 0 0 1 1102,985.134 L1102,1058.0661 A2.5,2.5 0 0 1 1099.5,1060.5661 L593.5,1060.5661 A2.5,2.5 0 0 1 591,1058.0661 L591,960.0661 A2.5,2.5 0 0 1 593.5,957.5661 " fill="#FFF0F0" style="stroke:#333333;stroke-width:1.0;"/><line style="stroke:#333333;stroke-width:1.0;" x1="591" x2="761" y1="982.634" y2="982.634"/><text fill="#000000" font-family="Verdana" font-size="14" font-weight="bold" lengthAdjust="spacing" textLength="157" x="595" y="974.532">External Dependencies</text></g><!--entity discover--><g id="elem_discover"><rect fill="#FFFFDD" height="49.0679" rx="2.5" ry="2.5" style="stroke:#000000;stroke-width:1.0;" width="132" x="279" y="356.5661"/><rect fill="#FFFFDD" height="10" style="stroke:#000000;stroke-width:1.0;" width="15" x="391" y="361.5661"/><rect fill="#FFFFDD" height="2" style="stroke:#000000;stroke-width:1.0;" width="4" x="389" y="363.5661"/><rect fill="#FFFFDD" height="2" style="stroke:#000000;stroke-width:1.0;" width="4" x="389" y="367.5661"/><text fill="#000000" font-family="Verdana" font-size="14" lengthAdjust="spacing" textLength="92" x="294" y="391.532">Discover View</text></g><!--entity dashboard--><g id="elem_dashboard"><rect fill="#FFFFDD" height="49.0679" rx="2.5" ry="2.5" style="stroke:#000000;stroke-width:1.0;" width="149" x="94.5" y="356.5661"/><rect fill="#FFFFDD" height="10" style="stroke:#000000;stroke-width:1.0;" width="15" x="223.5" y="361.5661"/><rect fill="#FFFFDD" height="2" style="stroke:#000000;stroke-width:1.0;" width="4" x="221.5" y="363.5661"/><rect fill="#FFFFDD" height="2" style="stroke:#000000;stroke-width:1.0;" width="4" x="221.5" y="367.5661"/><text fill="#000000" font-family="Verdana" font-size="14" lengthAdjust="spacing" textLength="109" x="109.5" y="391.532">Dashboard View</text></g><!--entity settings--><g id="elem_settings"><rect fill="#FFFFDD" height="49.0679" rx="2.5" ry="2.5" style="stroke:#000000;stroke-width:1.0;" width="130" x="446" y="356.5661"/><rect fill="#FFFFDD" height="10" style="stroke:#000000;stroke-width:1.0;" width="15" x="556" y="361.5661"/><rect fill="#FFFFDD" height="2" style="stroke:#000000;stroke-width:1.0;" width="4" x="554" y="363.5661"/><rect fill="#FFFFDD" height="2" style="stroke:#000000;stroke-width:1.0;" width="4" x="554" y="367.5661"/><text fill="#000000" font-family="Verdana" font-size="14" lengthAdjust="spacing" textLength="90" x="461" y="391.532">Settings View</text></g><!--entity sidebar--><g id="elem_sidebar"><rect fill="#FFFFDD" height="49.0679" rx="2.5" ry="2.5" style="stroke:#000000;stroke-width:1.0;" width="92" x="350" y="170.5661"/><rect fill="#FFFFDD" height="10" style="stroke:#000000;stroke-width:1.0;" width="15" x="422" y="175.5661"/><rect fill="#FFFFDD" height="2" style="stroke:#000000;stroke-width:1.0;" width="4" x="420" y="177.5661"/><rect fill="#FFFFDD" height="2" style="stroke:#000000;stroke-width:1.0;" width="4" x="420" y="181.5661"/><text fill="#000000" font-family="Verdana" font-size="14" lengthAdjust="spacing" textLength="52" x="365" y="205.532">Sidebar</text></g><!--entity connhdr--><g id="elem_connhdr"><rect fill="#FFFFDD" height="49.0679" rx="2.5" ry="2.5" style="stroke:#000000;stroke-width:1.0;" width="165" x="477.5" y="170.5661"/><rect fill="#FFFFDD" height="10" style="stroke:#000000;stroke-width:1.0;" width="15" x="622.5" y="175.5661"/><rect fill="#FFFFDD" height="2" style="stroke:#000000;stroke-width:1.0;" width="4" x="620.5" y="177.5661"/><rect fill="#FFFFDD" height="2" style="stroke:#000000;stroke-width:1.0;" width="4" x="620.5" y="181.5661"/><text fill="#000000" font-family="Verdana" font-size="14" lengthAdjust="spacing" textLength="125" x="492.5" y="205.532">ConnectionHeader</text></g><!--entity titlebar--><g id="elem_titlebar"><rect fill="#FFFFDD" height="49.0679" rx="2.5" ry="2.5" style="stroke:#000000;stroke-width:1.0;" width="92" x="678" y="170.5661"/><rect fill="#FFFFDD" height="10" style="stroke:#000000;stroke-width:1.0;" width="15" x="750" y="175.5661"/><rect fill="#FFFFDD" height="2" style="stroke:#000000;stroke-width:1.0;" width="4" x="748" y="177.5661"/><rect fill="#FFFFDD" height="2" style="stroke:#000000;stroke-width:1.0;" width="4" x="748" y="181.5661"/><text fill="#000000" font-family="Verdana" font-size="14" lengthAdjust="spacing" textLength="52" x="693" y="205.532">Titlebar</text></g><!--entity icons--><g id="elem_icons"><rect fill="#FFFFDD" height="49.0679" rx="2.5" ry="2.5" style="stroke:#000000;stroke-width:1.0;" width="76" x="239" y="170.5661"/><rect fill="#FFFFDD" height="10" style="stroke:#000000;stroke-width:1.0;" width="15" x="295" y="175.5661"/><rect fill="#FFFFDD" height="2" style="stroke:#000000;stroke-width:1.0;" width="4" x="293" y="177.5661"/><rect fill="#FFFFDD" height="2" style="stroke:#000000;stroke-width:1.0;" width="4" x="293" y="181.5661"/><text fill="#000000" font-family="Verdana" font-size="14" lengthAdjust="spacing" textLength="36" x="254" y="205.532">Icons</text></g><!--entity state--><g id="elem_state"><rect fill="#FFFFDD" height="68.1358" rx="2.5" ry="2.5" style="stroke:#000000;stroke-width:1.0;" width="157" x="94.5" y="588.5661"/><rect fill="#FFFFDD" height="10" style="stroke:#000000;stroke-width:1.0;" width="15" x="231.5" y="593.5661"/><rect fill="#FFFFDD" height="2" style="stroke:#000000;stroke-width:1.0;" width="4" x="229.5" y="595.5661"/><rect fill="#FFFFDD" height="2" style="stroke:#000000;stroke-width:1.0;" width="4" x="229.5" y="599.5661"/><text fill="#000000" font-family="Verdana" font-size="14" lengthAdjust="spacing" textLength="33" x="109.5" y="623.532">state</text><text fill="#000000" font-family="Verdana" font-size="14" lengthAdjust="spacing" textLength="117" x="109.5" y="642.5999">(global app state)</text></g><!--entity scanner--><g id="elem_scanner"><rect fill="#FFFFDD" height="49.0679" rx="2.5" ry="2.5" style="stroke:#000000;stroke-width:1.0;" width="94" x="411" y="598.0661"/><rect fill="#FFFFDD" height="10" style="stroke:#000000;stroke-width:1.0;" width="15" x="485" y="603.0661"/><rect fill="#FFFFDD" height="2" style="stroke:#000000;stroke-width:1.0;" width="4" x="483" y="605.0661"/><rect fill="#FFFFDD" height="2" style="stroke:#000000;stroke-width:1.0;" width="4" x="483" y="609.0661"/><text fill="#000000" font-family="Verdana" font-size="14" lengthAdjust="spacing" textLength="54" x="426" y="633.032">scanner</text></g><!--entity bleclient--><g id="elem_bleclient"><rect fill="#FFFFDD" height="49.0679" rx="2.5" ry="2.5" style="stroke:#000000;stroke-width:1.0;" width="77" x="427.5" y="761.5661"/><rect fill="#FFFFDD" height="10" style="stroke:#000000;stroke-width:1.0;" width="15" x="484.5" y="766.5661"/><rect fill="#FFFFDD" height="2" style="stroke:#000000;stroke-width:1.0;" width="4" x="482.5" y="768.5661"/><rect fill="#FFFFDD" height="2" style="stroke:#000000;stroke-width:1.0;" width="4" x="482.5" y="772.5661"/><text fill="#000000" font-family="Verdana" font-size="14" lengthAdjust="spacing" textLength="37" x="442.5" y="796.532">client</text></g><!--entity pairing--><g id="elem_pairing"><rect fill="#FFFFDD" height="49.0679" rx="2.5" ry="2.5" style="stroke:#000000;stroke-width:1.0;" width="89" x="286.5" y="598.0661"/><rect fill="#FFFFDD" height="10" style="stroke:#000000;stroke-width:1.0;" width="15" x="355.5" y="603.0661"/><rect fill="#FFFFDD" height="2" style="stroke:#000000;stroke-width:1.0;" width="4" x="353.5" y="605.0661"/><rect fill="#FFFFDD" height="2" style="stroke:#000000;stroke-width:1.0;" width="4" x="353.5" y="609.0661"/><text fill="#000000" font-family="Verdana" font-size="14" lengthAdjust="spacing" textLength="49" x="301.5" y="633.032">pairing</text></g><!--entity wifidisc--><g id="elem_wifidisc"><rect fill="#FFFFDD" height="68.1358" rx="2.5" ry="2.5" style="stroke:#000000;stroke-width:1.0;" width="107" x="560.5" y="588.5661"/><rect fill="#FFFFDD" height="10" style="stroke:#000000;stroke-width:1.0;" width="15" x="647.5" y="593.5661"/><rect fill="#FFFFDD" height="2" style="stroke:#000000;stroke-width:1.0;" width="4" x="645.5" y="595.5661"/><rect fill="#FFFFDD" height="2" style="stroke:#000000;stroke-width:1.0;" width="4" x="645.5" y="599.5661"/><text fill="#000000" font-family="Verdana" font-size="14" lengthAdjust="spacing" textLength="63" x="575.5" y="623.532">discovery</text><text fill="#000000" font-family="Verdana" font-size="14" lengthAdjust="spacing" textLength="67" x="575.5" y="642.5999">(mdns-sd)</text></g><!--entity httpclient--><g id="elem_httpclient"><rect fill="#FFFFDD" height="68.1358" rx="2.5" ry="2.5" style="stroke:#000000;stroke-width:1.0;" width="111" x="702.5" y="588.5661"/><rect fill="#FFFFDD" height="10" style="stroke:#000000;stroke-width:1.0;" width="15" x="793.5" y="593.5661"/><rect fill="#FFFFDD" height="2" style="stroke:#000000;stroke-width:1.0;" width="4" x="791.5" y="595.5661"/><rect fill="#FFFFDD" height="2" style="stroke:#000000;stroke-width:1.0;" width="4" x="791.5" y="599.5661"/><text fill="#000000" font-family="Verdana" font-size="14" lengthAdjust="spacing" textLength="71" x="717.5" y="623.532">http_client</text><text fill="#000000" font-family="Verdana" font-size="14" lengthAdjust="spacing" textLength="62" x="717.5" y="642.5999">(reqwest)</text></g><!--entity localstore--><g id="elem_localstore"><rect fill="#FFFFDD" height="49.0679" rx="2.5" ry="2.5" style="stroke:#000000;stroke-width:1.0;" width="71" x="137.5" y="761.5661"/><rect fill="#FFFFDD" height="10" style="stroke:#000000;stroke-width:1.0;" width="15" x="188.5" y="766.5661"/><rect fill="#FFFFDD" height="2" style="stroke:#000000;stroke-width:1.0;" width="4" x="186.5" y="768.5661"/><rect fill="#FFFFDD" height="2" style="stroke:#000000;stroke-width:1.0;" width="4" x="186.5" y="772.5661"/><text fill="#000000" font-family="Verdana" font-size="14" lengthAdjust="spacing" textLength="31" x="152.5" y="796.532">local</text></g><!--entity btleplug--><g id="elem_btleplug"><rect fill="#FFFFDD" height="49.0679" rx="2.5" ry="2.5" style="stroke:#000000;stroke-width:1.0;" width="97" x="606.5" y="995.5661"/><rect fill="#FFFFDD" height="10" style="stroke:#000000;stroke-width:1.0;" width="15" x="683.5" y="1000.5661"/><rect fill="#FFFFDD" height="2" style="stroke:#000000;stroke-width:1.0;" width="4" x="681.5" y="1002.5661"/><rect fill="#FFFFDD" height="2" style="stroke:#000000;stroke-width:1.0;" width="4" x="681.5" y="1006.5661"/><text fill="#000000" font-family="Verdana" font-size="14" lengthAdjust="spacing" textLength="57" x="621.5" y="1030.532">btleplug</text></g><!--entity dioxus--><g id="elem_dioxus"><rect fill="#FFFFDD" height="49.0679" rx="2.5" ry="2.5" style="stroke:#000000;stroke-width:1.0;" width="84" x="1002" y="995.5661"/><rect fill="#FFFFDD" height="10" style="stroke:#000000;stroke-width:1.0;" width="15" x="1066" y="1000.5661"/><rect fill="#FFFFDD" height="2" style="stroke:#000000;stroke-width:1.0;" width="4" x="1064" y="1002.5661"/><rect fill="#FFFFDD" height="2" style="stroke:#000000;stroke-width:1.0;" width="4" x="1064" y="1006.5661"/><text fill="#000000" font-family="Verdana" font-size="14" lengthAdjust="spacing" textLength="44" x="1017" y="1030.532">dioxus</text></g><!--entity mdns--><g id="elem_mdns"><rect fill="#FFFFDD" height="49.0679" rx="2.5" ry="2.5" style="stroke:#000000;stroke-width:1.0;" width="99" x="738.5" y="995.5661"/><rect fill="#FFFFDD" height="10" style="stroke:#000000;stroke-width:1.0;" width="15" x="817.5" y="1000.5661"/><rect fill="#FFFFDD" height="2" style="stroke:#000000;stroke-width:1.0;" width="4" x="815.5" y="1002.5661"/><rect fill="#FFFFDD" height="2" style="stroke:#000000;stroke-width:1.0;" width="4" x="815.5" y="1006.5661"/><text fill="#000000" font-family="Verdana" font-size="14" lengthAdjust="spacing" textLength="59" x="753.5" y="1030.532">mdns-sd</text></g><!--entity reqwest--><g id="elem_reqwest"><rect fill="#FFFFDD" height="49.0679" rx="2.5" ry="2.5" style="stroke:#000000;stroke-width:1.0;" width="94" x="873" y="995.5661"/><rect fill="#FFFFDD" height="10" style="stroke:#000000;stroke-width:1.0;" width="15" x="947" y="1000.5661"/><rect fill="#FFFFDD" height="2" style="stroke:#000000;stroke-width:1.0;" width="4" x="945" y="1002.5661"/><rect fill="#FFFFDD" height="2" style="stroke:#000000;stroke-width:1.0;" width="4" x="945" y="1006.5661"/><text fill="#000000" font-family="Verdana" font-size="14" lengthAdjust="spacing" textLength="54" x="888" y="1030.532">reqwest</text></g><g id="elem_GMN44"><path d="M1127.5,340.5661 L1127.5,421.3902 L1412.5,421.3902 L1412.5,350.5661 L1402.5,340.5661 L1127.5,340.5661 " fill="#FFFFFF" style="stroke:#000000;stroke-width:1.0;"/><path d="M1402.5,340.5661 L1402.5,350.5661 L1412.5,350.5661 L1402.5,340.5661 " fill="#FFFFFF" style="stroke:#000000;stroke-width:1.0;"/><text fill="#000000" font-family="Verdana" font-size="13" lengthAdjust="spacing" textLength="261" x="1133.5" y="359.4631">&#183; Dark desktop UI with Tailwind-inspired CSS</text><text fill="#000000" font-family="Verdana" font-size="13" lengthAdjust="spacing" textLength="180" x="1133.5" y="377.1691">&#183; Reactive state drives all views</text><text fill="#000000" font-family="Verdana" font-size="13" lengthAdjust="spacing" textLength="223" x="1133.5" y="394.8751">&#183; BLE scanner polls every 500ms for 6s</text><text fill="#000000" font-family="Verdana" font-size="13" lengthAdjust="spacing" textLength="264" x="1133.5" y="412.5811">&#183; Global state persists across view navigation</text></g><!--link discover to scanner--><g id="link_discover_scanner"><path d="M367.67,405.6161 C383.15,420.0161 404.97,437.2161 428,445.5661 C447.76,452.7261 602.46,438.3961 617,453.5661 C622.84,459.6661 622.63,466.2761 617,472.5661 C606.26,484.5661 558.6,471.9561 545,480.5661 C501.74,507.9461 478.5546,559.7503 467.2346,592.2303 " fill="none" id="discover-to-scanner" style="stroke:#000000;stroke-width:1.0;"/><polygon fill="#000000" points="465.26,597.8961,471.9991,590.7139,466.9055,593.1746,464.4448,588.081,465.26,597.8961" style="stroke:#000000;stroke-width:1.0;"/><text fill="#000000" font-family="Verdana" font-size="13" lengthAdjust="spacing" textLength="94" x="623" y="468.4631">scan for devices</text></g><!--link discover to state--><g id="link_discover_state"><path d="M326.81,405.7661 C311.67,425.6061 289.67,454.7361 271,480.5661 C244.54,517.1661 218.468,554.8842 198.818,583.6042 " fill="none" id="discover-to-state" style="stroke:#000000;stroke-width:1.0;"/><polygon fill="#000000" points="195.43,588.5561,203.8133,583.3869,198.2534,584.4295,197.2108,578.8696,195.43,588.5561" style="stroke:#000000;stroke-width:1.0;"/><text fill="#000000" font-family="Verdana" font-size="13" lengthAdjust="spacing" textLength="160" x="290" y="468.4631">read/write connected cube</text></g><!--link dashboard to state--><g id="link_dashboard_state"><path d="M169.2,405.8861 C169.37,424.1361 169.65,449.9461 170,472.5661 C170.62,512.4061 171.4469,552.2376 172.1169,582.4276 " fill="none" id="dashboard-to-state" style="stroke:#000000;stroke-width:1.0;"/><polygon fill="#000000" points="172.25,588.4261,176.0493,579.3396,172.1391,583.4273,168.0513,579.517,172.25,588.4261" style="stroke:#000000;stroke-width:1.0;"/><text fill="#000000" font-family="Verdana" font-size="13" lengthAdjust="spacing" textLength="85" x="171" y="468.4631">read cube info</text></g><!--link settings to bleclient--><g id="link_settings_bleclient"><path d="M541.28,405.6861 C561.31,419.9161 588.8,436.9061 616,445.5661 C662.71,460.4361 677.64,445.5361 726,453.5661 C772.69,461.3161 800.09,443.0961 829,480.5661 C883.3,550.9361 886.63,612.8961 829,680.5661 C797.33,717.7561 658.63,701.0361 612,715.5661 C574.08,727.3861 538.7502,744.5266 510.0102,760.0366 " fill="none" id="settings-to-bleclient" style="stroke:#000000;stroke-width:1.0;"/><polygon fill="#000000" points="504.73,762.8861,514.5499,762.1319,509.1301,760.5115,510.7506,755.0917,504.73,762.8861" style="stroke:#000000;stroke-width:1.0;"/><text fill="#000000" font-family="Verdana" font-size="13" lengthAdjust="spacing" textLength="118" x="872" y="627.9631">write characteristics</text></g><!--link settings to state--><g id="link_settings_state"><path d="M504.59,405.5761 C497.36,427.1061 483.31,457.7961 459,472.5661 C423.26,494.2761 307.64,460.4061 271,480.5661 C228.43,503.9861 202.7459,549.2496 187.9559,583.0396 " fill="none" id="settings-to-state" style="stroke:#000000;stroke-width:1.0;"/><polygon fill="#000000" points="185.55,588.5361,192.8231,581.8952,187.5549,583.9556,185.4944,578.6874,185.55,588.5361" style="stroke:#000000;stroke-width:1.0;"/><text fill="#000000" font-family="Verdana" font-size="13" lengthAdjust="spacing" textLength="102" x="481" y="468.4631">read/write config</text></g><!--link sidebar to views--><g id="link_sidebar_views"><path d="M378.53,219.8761 C366.96,233.8061 350.52,250.4061 332,259.5661 C319.28,265.8561 89.49,285.0061 79,294.5661 C75.4513,297.8011 72.473,301.5345 69.9785,305.5948 C69.3549,306.6098 68.7615,307.6453 68.197,308.6985 C67.9148,309.2251 70.3262,304.3912 70.0582,304.9264 " fill="none" id="sidebar-to-views" style="stroke:#000000;stroke-width:1.0;"/><polygon fill="#000000" points="67.3718,310.2913,74.9781,304.0349,69.6105,305.8205,67.8249,300.4529,67.3718,310.2913" style="stroke:#000000;stroke-width:1.0;"/><text fill="#000000" font-family="Verdana" font-size="13" lengthAdjust="spacing" textLength="52" x="275" y="282.4631">navigate</text></g><!--link connhdr to state--><g id="link_connhdr_state"><path d="M573.4,219.6361 C601.7,272.8861 659.65,403.2061 592,472.5661 C579.54,485.3361 286.7,472.1061 271,480.5661 C228.22,503.6161 202.5792,548.9723 187.8592,582.8823 " fill="none" id="connhdr-to-state" style="stroke:#000000;stroke-width:1.0;"/><polygon fill="#000000" points="185.47,588.3861,192.7229,581.7231,187.461,583.7996,185.3845,578.5376,185.47,588.3861" style="stroke:#000000;stroke-width:1.0;"/><text fill="#000000" font-family="Verdana" font-size="13" lengthAdjust="spacing" textLength="142" x="625" y="386.4631">show connection status</text></g><!--link titlebar to dioxus--><g id="link_titlebar_dioxus"><path d="M738.22,219.7361 C747.12,232.9261 759.62,248.7961 774,259.5661 C889,345.7061 1074,236.3761 1074,380.0661 C1074,380.0661 1074,380.0661 1074,787.0661 C1074,863.8261 1058.854,947.8181 1050.294,989.6081 " fill="none" id="titlebar-to-dioxus" style="stroke:#000000;stroke-width:1.0;"/><polygon fill="#000000" points="1049.09,995.4861,1054.8146,987.4718,1050.0933,990.5878,1046.9774,985.8665,1049.09,995.4861" style="stroke:#000000;stroke-width:1.0;"/><text fill="#000000" font-family="Verdana" font-size="13" lengthAdjust="spacing" textLength="99" x="1075" y="627.9631">window controls</text></g><!--link scanner to btleplug--><g id="link_scanner_btleplug"><path d="M484.1,647.2761 C496,658.9561 509.7,673.6961 520,688.5661 C585.77,783.5061 594.81,813.5761 633,922.5661 C641.47,946.7261 646.4591,969.5524 650.0491,989.3424 " fill="none" id="scanner-to-btleplug" style="stroke:#000000;stroke-width:1.0;"/><polygon fill="#000000" points="651.12,995.2461,653.4493,985.6766,650.2275,990.3264,645.5778,987.1046,651.12,995.2461" style="stroke:#000000;stroke-width:1.0;"/><text fill="#000000" font-family="Verdana" font-size="13" lengthAdjust="spacing" textLength="52" x="631" y="791.4631">BLE scan</text></g><!--link bleclient to btleplug--><g id="link_bleclient_btleplug"><path d="M471.14,810.6461 C479.22,843.1661 497.52,902.2361 531,941.5661 C551.4,965.5361 575.8193,981.6929 601.0493,994.8429 " fill="none" id="bleclient-to-btleplug" style="stroke:#000000;stroke-width:1.0;"/><polygon fill="#000000" points="606.37,997.6161,600.2378,989.9092,601.9361,995.3051,596.5402,997.0035,606.37,997.6161" style="stroke:#000000;stroke-width:1.0;"/><text fill="#000000" font-family="Verdana" font-size="13" lengthAdjust="spacing" textLength="96" x="532" y="937.4631">GATT read/write</text></g><!--link pairing to bleclient--><g id="link_pairing_bleclient"><path d="M350.92,647.3961 C376.52,678.0161 416.8425,726.2521 442.3725,756.8021 " fill="none" id="pairing-to-bleclient" style="stroke:#000000;stroke-width:1.0;"/><polygon fill="#000000" points="446.22,761.4061,443.5181,751.9351,443.0138,757.5694,437.3794,757.0651,446.22,761.4061" style="stroke:#000000;stroke-width:1.0;"/><text fill="#000000" font-family="Verdana" font-size="13" lengthAdjust="spacing" textLength="111" x="400" y="703.4631">connect + discover</text></g><!--link wifidisc to mdns--><g id="link_wifidisc_mdns"><path d="M656.02,656.6961 C680.75,677.0061 708.77,701.7061 717,715.5661 C745.59,763.7261 773.4304,926.5101 783.3904,989.3301 " fill="none" id="wifidisc-to-mdns" style="stroke:#000000;stroke-width:1.0;"/><polygon fill="#000000" points="784.33,995.2561,786.8713,985.7407,783.547,990.3178,778.97,986.9935,784.33,995.2561" style="stroke:#000000;stroke-width:1.0;"/><text fill="#000000" font-family="Verdana" font-size="13" lengthAdjust="spacing" textLength="85" x="772" y="791.4631">mDNS browse</text></g><!--link httpclient to reqwest--><g id="link_httpclient_reqwest"><path d="M792.83,656.7961 C801.78,664.8461 811.56,673.2461 821,680.5661 C843.31,697.8661 858.8,691.7861 874,715.5661 C931.7,805.8161 927.6604,935.4678 923.0404,989.5778 " fill="none" id="httpclient-to-reqwest" style="stroke:#000000;stroke-width:1.0;"/><polygon fill="#000000" points="922.53,995.5561,927.2811,986.929,922.9554,990.5742,919.3101,986.2484,922.53,995.5561" style="stroke:#000000;stroke-width:1.0;"/><text fill="#000000" font-family="Verdana" font-size="13" lengthAdjust="spacing" textLength="60" x="926" y="791.4631">HTTP calls</text></g><!--link state to localstore--><g id="link_state_localstore"><path d="M173,656.6361 C173,687.8261 173,727.8061 173,755.4561 " fill="none" id="state-to-localstore" style="stroke:#000000;stroke-width:1.0;"/><polygon fill="#000000" points="173,761.4561,177,752.4561,173,756.4561,169,752.4561,173,761.4561" style="stroke:#000000;stroke-width:1.0;"/><text fill="#000000" font-family="Verdana" font-size="13" lengthAdjust="spacing" textLength="40" x="174" y="703.4631">persist</text></g><!--link views to modules--><!--link components to views--><!--link root to GMN44--><g id="link_root_GMN44"><path d="M1036.2294,202.3237 C1036.4872,202.5198 1036.7505,202.72 1037.0193,202.9243 C1038.0943,203.7418 1039.2565,204.6254 1040.5008,205.5716 C1042.9895,207.4639 1045.807,209.6061 1048.9139,211.9684 C1061.3416,221.4176 1078.4006,234.388 1097.5763,248.9673 C1135.9275,278.1261 1182.745,313.7211 1217.91,340.4561 " fill="none" id="root-GMN44" style="stroke:#000000;stroke-width:1.0;stroke-dasharray:7.0,7.0;"/></g><!--SRC=[RLNDRXCn4BxxAORs01L4L49mw0699lsJ2a8aS0aHygudMQiRUx6Tf1NgSt7doHYFxMIJTYyxE_DvVhwPyRu83IuHkbPg8_oTDfrqSWcLhEyMpgwC6jhMEZY-vAU7w0WX5tX-2BoWvrcWTGfT1htZfmUgxRAp1aquVoxmQ2H4qA55619E6cqDoAu3wUf61wp3ok4R66bxl_AWqDy5smcH0yFH_g5N2NTo1DA3ipR0yQrUDE6yNI7y4G9WU_27nerdt3fAP0LwfYFjQxj61z4-YsQLDTakVLDPwLGFK5G9CSOGj5du7S1d3TaVzt8O5cPI8bkYjjcCjS9AkkGboSamjCOGDrJtDKhYVfRE6zEeZ9X4JilPa3-IwOQ0dlKwIa_I-cpLgiMKqpB9EQ4jf6gHpVGcHBQIQrzBIYmddEHYgbjDfStogVHLR9tKZXXYOvRPn7drmcxqN7FSAEm5Bbrw-6bUBPNn0wzEPWKPZGNOXD3zIj49wl3t1dr8q6ZgvNKOt0VhKjKixOLlRIrRTi8I0_fEfZx8W1HmqTfAjZoih4gHMUG-FFPc- -8-e3E47c67Hg6fTUwAmixp-fnUdd8IqueQtBMhH67v44nCt8WyoL6CoimGQwCSTPaArcKvPlEIvvWqhOpZvXlTUL7OXi7WO-apdB44SzfiXMjTuo4k5aaeHnFxTkDekNbYQOnHGRsgK6mtwGcUxQ3Dt8goJOpPJXBXiik6BXrowRGFklRxyETJcEj5h7ExZGV5viLZ1-ckE0CZrteHUvPtRi-xR-ocb1PlfgWdtiiICZRr8cQjZKhmu6phOo9f_mwpo2nprRc_TFpyze9f5pic3X1NdoQJNi4YxzSJ-dB2y7ftuvNTOMoS4u8jHr_6K3cxyIXs2yE8F3K4kfvClWBj0TMJI8dctMOGeaFdgKEnt5lvO5S16aqNdqW43wQDLZJmCwB6nDZf5XAz6t8BSV62BwqHmbWALzaGx1Bid7y2DDt__i98khlo0u7lDqHyQ60YTHixCD36TzhH80x7uuJ_XZH6UesvhSgHx85gof4OLEYFdUairGiOBo5uVtgwzBmA7pBoAYr-SfQh9tUripxzWifCKSS5RJl4GiH_]--></g></svg>