<?xml version="1.0" encoding="us-ascii" standalone="no"?><svg xmlns="http://www.w3.org/2000/svg" xmlns:xlink="http://www.w3.org/1999/xlink" contentStyleType="text/css" height="567px" preserveAspectRatio="none" style="width:1695px;height:567px;background:#FFFFFF;" version="1.1" viewBox="0 0 1695 567" width="1695px" zoomAndPan="magnify"><defs/><g><text fill="#000000" font-family="Verdana" font-size="22" font-weight="bold" lengthAdjust="spacing" textLength="561" x="562.5" y="38.5181">CubeMaster MVP &#8212; Firmware Module Architecture</text><!--cluster main--><g id="cluster_main"><rect fill="#ADD8E6" height="197" rx="2.5" ry="2.5" style="stroke:#333333;stroke-width:1.0;" width="285" x="694.5" y="101.634"/><rect fill="#ADD8E6" height="10" style="stroke:#333333;stroke-width:1.0;" width="15" x="959.5" y="106.634"/><rect fill="#ADD8E6" height="2" style="stroke:#333333;stroke-width:1.0;" width="4" x="957.5" y="108.634"/><rect fill="#ADD8E6" height="2" style="stroke:#333333;stroke-width:1.0;" width="4" x="957.5" y="112.634"/><text fill="#000000" font-family="Verdana" font-size="14" font-weight="bold" lengthAdjust="spacing" textLength="112" x="781" y="129.5999">Main Supervisor</text></g><!--cluster ble--><g id="cluster_ble"><rect fill="#90EE90" height="192.5" rx="2.5" ry="2.5" style="stroke:#333333;stroke-width:1.0;" width="172" x="1275.5" y="232.634"/><rect fill="#90EE90" height="10" style="stroke:#333333;stroke-width:1.0;" width="15" x="1427.5" y="237.634"/><rect fill="#90EE90" height="2" style="stroke:#333333;stroke-width:1.0;" width="4" x="1425.5" y="239.634"/><rect fill="#90EE90" height="2" style="stroke:#333333;stroke-width:1.0;" width="4" x="1425.5" y="243.634"/><text fill="#000000" font-family="Verdana" font-size="14" font-weight="bold" lengthAdjust="spacing" textLength="113" x="1305" y="260.5999">BLE GATT Server</text><text fill="#000000" font-family="Verdana" font-size="14" font-weight="bold" lengthAdjust="spacing" textLength="75" x="1324" y="279.6679">(esp-radio)</text></g><!--cluster wifi--><g id="cluster_wifi"><rect fill="#FFFFE0" height="192.5" rx="2.5" ry="2.5" style="stroke:#333333;stroke-width:1.0;" width="161.5" x="1508" y="232.634"/><rect fill="#FFFFE0" height="10" style="stroke:#333333;stroke-width:1.0;" width="15" x="1649.5" y="237.634"/><rect fill="#FFFFE0" height="2" style="stroke:#333333;stroke-width:1.0;" width="4" x="1647.5" y="239.634"/><rect fill="#FFFFE0" height="2" style="stroke:#333333;stroke-width:1.0;" width="4" x="1647.5" y="243.634"/><text fill="#000000" font-family="Verdana" font-size="14" font-weight="bold" lengthAdjust="spacing" textLength="83" x="1547.25" y="260.5999">Wi-Fi Server</text><text fill="#000000" font-family="Verdana" font-size="14" font-weight="bold" lengthAdjust="spacing" textLength="99" x="1539.25" y="279.6679">(embassy-net)</text></g><text fill="#000000" font-family="Verdana" font-size="14" lengthAdjust="spacing" textLength="56" x="695.5" y="79.532">ble_cmd</text><rect fill="#FFFFFF" height="12" style="stroke:#000000;stroke-width:1.5;" width="12" x="717.5" y="95.634"/><text fill="#000000" font-family="Verdana" font-size="14" lengthAdjust="spacing" textLength="77" x="811.5" y="79.532">voice_event</text><rect fill="#FFFFFF" height="12" style="stroke:#000000;stroke-width:1.5;" width="12" x="844" y="95.634"/><text fill="#000000" font-family="Verdana" font-size="14" lengthAdjust="spacing" textLength="56" x="684.5" y="319.5999">led_cmd</text><rect fill="#FFFFFF" height="12" style="stroke:#000000;stroke-width:1.5;" width="12" x="706.5" y="292.634"/><text fill="#000000" font-family="Verdana" font-size="14" lengthAdjust="spacing" textLength="73" x="802" y="319.5999">audio_cmd</text><rect fill="#FFFFFF" height="12" style="stroke:#000000;stroke-width:1.5;" width="12" x="832.5" y="292.634"/><text fill="#000000" font-family="Verdana" font-size="14" lengthAdjust="spacing" textLength="63" x="930" y="319.5999">http_cmd</text><rect fill="#FFFFFF" height="12" style="stroke:#000000;stroke-width:1.5;" width="12" x="955.5" y="292.634"/><text fill="#000000" font-family="Verdana" font-size="14" lengthAdjust="spacing" textLength="90" x="1248.5" y="210.532">control_chars</text><rect fill="#FFFFFF" height="12" style="stroke:#000000;stroke-width:1.5;" width="12" x="1287.5" y="226.634"/><text fill="#000000" font-family="Verdana" font-size="14" lengthAdjust="spacing" textLength="90" x="1384.5" y="210.532">upload_chars</text><rect fill="#FFFFFF" height="12" style="stroke:#000000;stroke-width:1.5;" width="12" x="1423.5" y="226.634"/><text fill="#000000" font-family="Verdana" font-size="14" lengthAdjust="spacing" textLength="59" x="1496.5" y="210.532">REST API</text><rect fill="#FFFFFF" height="12" style="stroke:#000000;stroke-width:1.5;" width="12" x="1520" y="226.634"/><text fill="#000000" font-family="Verdana" font-size="14" lengthAdjust="spacing" textLength="73" x="1615" y="210.532">WebSocket</text><rect fill="#FFFFFF" height="12" style="stroke:#000000;stroke-width:1.5;" width="12" x="1645.5" y="226.634"/><!--entity led--><g id="elem_led"><rect fill="#FFB6C1" height="68.1358" rx="2.5" ry="2.5" style="stroke:#333333;stroke-width:1.0;" width="138" x="116" y="346.634"/><rect fill="#FFB6C1" height="10" style="stroke:#333333;stroke-width:1.0;" width="15" x="234" y="351.634"/><rect fill="#FFB6C1" height="2" style="stroke:#333333;stroke-width:1.0;" width="4" x="232" y="353.634"/><rect fill="#FFB6C1" height="2" style="stroke:#333333;stroke-width:1.0;" width="4" x="232" y="357.634"/><text fill="#000000" font-family="Verdana" font-size="14" lengthAdjust="spacing" textLength="70" x="131" y="381.5999">LED Driver</text><text fill="#000000" font-family="Verdana" font-size="14" lengthAdjust="spacing" textLength="98" x="131" y="400.6679">(RMT DMA &#215; 4)</text></g><!--entity audio--><g id="elem_audio"><rect fill="#F08080" height="68.1358" rx="2.5" ry="2.5" style="stroke:#333333;stroke-width:1.0;" width="124" x="462" y="346.634"/><rect fill="#F08080" height="10" style="stroke:#333333;stroke-width:1.0;" width="15" x="566" y="351.634"/><rect fill="#F08080" height="2" style="stroke:#333333;stroke-width:1.0;" width="4" x="564" y="353.634"/><rect fill="#F08080" height="2" style="stroke:#333333;stroke-width:1.0;" width="4" x="564" y="357.634"/><text fill="#000000" font-family="Verdana" font-size="14" lengthAdjust="spacing" textLength="84" x="477" y="381.5999">Audio Player</text><text fill="#000000" font-family="Verdana" font-size="14" lengthAdjust="spacing" textLength="65" x="477" y="400.6679">(I2S DMA)</text></g><!--entity voice--><g id="elem_voice"><rect fill="#E6E6FA" height="68.1358" rx="2.5" ry="2.5" style="stroke:#333333;stroke-width:1.0;" width="200" x="12" y="67.634"/><rect fill="#E6E6FA" height="10" style="stroke:#333333;stroke-width:1.0;" width="15" x="192" y="72.634"/><rect fill="#E6E6FA" height="2" style="stroke:#333333;stroke-width:1.0;" width="4" x="190" y="74.634"/><rect fill="#E6E6FA" height="2" style="stroke:#333333;stroke-width:1.0;" width="4" x="190" y="78.634"/><text fill="#000000" font-family="Verdana" font-size="14" lengthAdjust="spacing" textLength="93" x="27" y="102.5999">Voice Pipeline</text><text fill="#000000" font-family="Verdana" font-size="14" lengthAdjust="spacing" textLength="160" x="27" y="121.6679">(PDM &#8594; VAD &#8594; Goertzel)</text></g><!--entity sd--><g id="elem_sd"><rect fill="#D3D3D3" height="68.1358" rx="2.5" ry="2.5" style="stroke:#333333;stroke-width:1.0;" width="175" x="97.5" y="493.634"/><rect fill="#D3D3D3" height="10" style="stroke:#333333;stroke-width:1.0;" width="15" x="252.5" y="498.634"/><rect fill="#D3D3D3" height="2" style="stroke:#333333;stroke-width:1.0;" width="4" x="250.5" y="500.634"/><rect fill="#D3D3D3" height="2" style="stroke:#333333;stroke-width:1.0;" width="4" x="250.5" y="504.634"/><text fill="#000000" font-family="Verdana" font-size="14" lengthAdjust="spacing" textLength="73" x="112.5" y="528.5999">SD Card FS</text><text fill="#000000" font-family="Verdana" font-size="14" lengthAdjust="spacing" textLength="135" x="112.5" y="547.6679">(embedded-sdmmc)</text></g><!--entity btn--><g id="elem_btn"><rect fill="#F5DEB3" height="68.1358" rx="2.5" ry="2.5" style="stroke:#333333;stroke-width:1.0;" width="143" x="337.5" y="67.634"/><rect fill="#F5DEB3" height="10" style="stroke:#333333;stroke-width:1.0;" width="15" x="460.5" y="72.634"/><rect fill="#F5DEB3" height="2" style="stroke:#333333;stroke-width:1.0;" width="4" x="458.5" y="74.634"/><rect fill="#F5DEB3" height="2" style="stroke:#333333;stroke-width:1.0;" width="4" x="458.5" y="78.634"/><text fill="#000000" font-family="Verdana" font-size="14" lengthAdjust="spacing" textLength="103" x="352.5" y="102.5999">Button Handler</text><text fill="#000000" font-family="Verdana" font-size="14" lengthAdjust="spacing" textLength="71" x="352.5" y="121.6679">(GPIO IRQ)</text></g><!--entity batt--><g id="elem_batt"><rect fill="#F5DEB3" height="68.1358" rx="2.5" ry="2.5" style="stroke:#333333;stroke-width:1.0;" width="145" x="515.5" y="67.634"/><rect fill="#F5DEB3" height="10" style="stroke:#333333;stroke-width:1.0;" width="15" x="640.5" y="72.634"/><rect fill="#F5DEB3" height="2" style="stroke:#333333;stroke-width:1.0;" width="4" x="638.5" y="74.634"/><rect fill="#F5DEB3" height="2" style="stroke:#333333;stroke-width:1.0;" width="4" x="638.5" y="78.634"/><text fill="#000000" font-family="Verdana" font-size="14" lengthAdjust="spacing" textLength="105" x="530.5" y="102.5999">Battery Monitor</text><text fill="#000000" font-family="Verdana" font-size="14" lengthAdjust="spacing" textLength="36" x="530.5" y="121.6679">(ADC)</text></g><!--link main to led--><g id="link_main_led"><path d="M693.7386,234.0789 C693.0723,234.086 692.4032,234.0933 691.7315,234.1007 C680.9837,234.2193 669.5538,234.3663 657.5706,234.5483 C633.6041,234.9123 607.4241,235.4162 580.0602,236.1121 C525.3322,237.504 465.8681,239.664 409.9038,243.009 C297.975,249.699 200.045,261.129 182,280.634 C166,297.924 166.5533,319.2386 171.8533,340.7286 " fill="none" id="main-to-led" style="stroke:#000000;stroke-width:1.0;"/><polygon fill="#000000" points="173.29,346.554,175.0186,336.858,172.0927,341.6995,167.2513,338.7736,173.29,346.554" style="stroke:#000000;stroke-width:1.0;"/><text fill="#000000" font-family="Verdana" font-size="13" lengthAdjust="spacing" textLength="125" x="183" y="304.031">play_pattern(id, face)</text></g><!--link main to audio--><g id="link_main_audio"><path d="M693.5766,238.242 C693.1056,238.2696 692.6335,238.2973 692.1603,238.3251 C691.2139,238.3808 690.263,238.4369 689.3078,238.4936 C685.4869,238.7203 681.597,238.9553 677.6464,239.1986 C661.8442,240.1719 645.0725,241.2782 627.8756,242.5218 C593.4819,245.009 557.3875,248.0453 523.9475,251.664 C457.0675,258.9015 400.805,268.469 390,280.634 C374.65,297.914 375.82,314.384 390,332.634 C402.66,348.934 415.37,337.744 435,344.134 C443.7,346.964 447.1583,348.1006 456.0383,351.4606 " fill="none" id="main-to-audio" style="stroke:#000000;stroke-width:1.0;"/><polygon fill="#000000" points="461.65,353.584,454.648,346.6578,456.9736,351.8145,451.8169,354.1401,461.65,353.584" style="stroke:#000000;stroke-width:1.0;"/><text fill="#000000" font-family="Verdana" font-size="13" lengthAdjust="spacing" textLength="168" x="391" y="304.031">play_sound(id, volume, pan)</text></g><!--link main to ble--><g id="link_main_ble"><path d="M694.4442,244.8704 C694.2373,244.9057 694.0304,244.941 693.8234,244.9764 C693.4095,245.0472 692.9954,245.1183 692.5812,245.1899 C689.2673,245.7622 685.9453,246.3581 682.63,246.9782 C669.3688,249.4587 656.215,252.3259 644.125,255.6128 C619.945,262.1865 600.02,270.439 592,280.634 C577.71,298.794 576.18,315.784 592,332.634 C615.13,357.274 1089.3424,372.7955 1266.2824,377.7655 " fill="none" id="main-to-ble" style="stroke:#000000;stroke-width:1.0;"/><polygon fill="#000000" points="1272.28,377.934,1263.3959,373.6829,1267.282,377.7936,1263.1712,381.6797,1272.28,377.934" style="stroke:#000000;stroke-width:1.0;"/><text fill="#000000" font-family="Verdana" font-size="13" lengthAdjust="spacing" textLength="75" x="593" y="304.031">notify status</text></g><!--link ble to main--><g id="link_ble_main"><path d="M1272.35,375.944 C1193.1,370.394 1064.34,357.764 1024,332.634 C1000.14,317.774 1011.25,296.434 988,280.634 C985.4594,278.9071 982.8638,277.2432 980.2196,275.6399 C980.0544,275.5397 985.029,278.5347 984.8634,278.435 " fill="none" id="ble-to-main" style="stroke:#000000;stroke-width:1.0;"/><polygon fill="#000000" points="979.7233,275.34,985.3702,283.4092,984.0067,277.9191,989.4968,276.5557,979.7233,275.34" style="stroke:#000000;stroke-width:1.0;"/><text fill="#000000" font-family="Verdana" font-size="13" lengthAdjust="spacing" textLength="64" x="1025" y="304.031">trigger/cfg</text></g><!--link main to wifi--><g id="link_main_wifi"><path d="M980.0519,261.9744 C985.4574,262.8153 990.8934,263.666 996.3481,264.5252 C1007.2575,266.2437 1018.2416,267.9964 1029.2061,269.7729 C1051.135,273.3259 1072.985,276.974 1094,280.634 C1238.56,305.814 1274.49,313.534 1418,344.134 C1433.965,347.539 1450.8275,351.279 1467.3088,355.014 C1475.5494,356.8815 1483.6947,358.7478 1491.5848,360.5703 C1495.5299,361.4815 1499.4112,362.3818 1503.2087,363.2659 C1504.1581,363.4869 1505.1023,363.7069 1506.0409,363.9258 C1506.5101,364.0352 1506.9781,364.1444 1507.4445,364.2533 C1507.5612,364.2805 1501.8348,362.9435 1501.9513,362.9707 " fill="none" id="main-to-wifi" style="stroke:#000000;stroke-width:1.0;"/><polygon fill="#000000" points="1507.7941,364.3349,1499.9393,358.3934,1502.9251,363.1981,1498.1204,366.1839,1507.7941,364.3349" style="stroke:#000000;stroke-width:1.0;"/><text fill="#000000" font-family="Verdana" font-size="13" lengthAdjust="spacing" textLength="97" x="1364" y="304.031">stream/respond</text></g><!--link wifi to main--><g id="link_wifi_main"><path d="M1507.6459,310.4553 C1507.5239,310.3378 1507.4019,310.2205 1507.2799,310.1034 C1507.036,309.8691 1506.7923,309.6354 1506.5488,309.4024 C1506.0618,308.9365 1505.5757,308.4733 1505.0906,308.013 C1503.1503,306.1718 1501.2263,304.3773 1499.3282,302.6425 C1495.532,299.1729 1491.8391,295.9418 1488.3255,293.0521 C1481.2981,287.2728 1474.9875,282.859 1470,280.634 C1462.97,277.499 1349.82,269.2165 1217.5075,260.4615 C1151.3513,256.084 1080.4044,251.5884 1015.5366,247.559 C1007.4281,247.0553 999.4146,246.5589 991.5173,246.071 C987.5687,245.827 989.6377,245.9542 985.7499,245.7146 " fill="none" id="wifi-to-main" style="stroke:#000000;stroke-width:1.0;"/><polygon fill="#000000" points="979.7612,245.3455,988.4981,249.8916,984.7518,245.6531,988.9902,241.9067,979.7612,245.3455" style="stroke:#000000;stroke-width:1.0;"/><text fill="#000000" font-family="Verdana" font-size="13" lengthAdjust="spacing" textLength="89" x="1530" y="304.031">upload/stream</text></g><!--link main to sd--><g id="link_main_sd"><path d="M693.5172,233.245 C692.6053,233.2567 691.6891,233.269 690.7686,233.2818 C687.0864,233.333 683.3355,233.3926 679.5229,233.4615 C664.2729,233.7372 648.0374,234.1616 631.273,234.7917 C597.7441,236.0518 562.0994,238.1346 527.9913,241.4953 C459.775,248.2165 397.705,260.049 371,280.634 C301.91,333.894 357.52,398.034 300,463.634 C289.72,475.364 281.8264,482.19 268.2764,490.49 " fill="none" id="main-to-sd" style="stroke:#000000;stroke-width:1.0;"/><polygon fill="#000000" points="263.16,493.624,272.924,492.3339,267.4237,491.0123,268.7453,485.512,263.16,493.624" style="stroke:#000000;stroke-width:1.0;"/><text fill="#000000" font-family="Verdana" font-size="13" lengthAdjust="spacing" textLength="90" x="335" y="386.031">read_sound(id)</text></g><!--link voice to main--><g id="link_voice_main"><path d="M194.36,135.684 C240.34,152.854 299.06,172.684 353,184.634 C417.505,198.924 488.4175,208.934 553.85,215.9215 C586.5663,219.4153 617.9125,222.1534 646.4028,224.2931 C660.648,225.3629 674.1791,226.2831 686.8106,227.0734 C688.3895,227.1722 689.9544,227.269 691.5048,227.3637 C692.2801,227.4111 687.0626,227.0962 687.8306,227.1426 " fill="none" id="voice-to-main" style="stroke:#000000;stroke-width:1.0;"/><polygon fill="#000000" points="693.8197,227.5044,685.0772,222.969,688.8288,227.2029,684.5949,230.9544,693.8197,227.5044" style="stroke:#000000;stroke-width:1.0;"/><text fill="#000000" font-family="Verdana" font-size="13" lengthAdjust="spacing" textLength="108" x="354" y="180.531">keyword detected</text></g><!--link btn to main--><g id="link_btn_main"><path d="M436.52,136.044 C452.62,153.314 474.39,173.134 498,184.634 C533.7,202.014 574.535,213.159 614.0138,220.2565 C633.7531,223.8053 653.1534,226.3421 671.4033,228.1406 C675.9657,228.5902 680.4563,228.9936 684.8623,229.3552 C687.0653,229.536 689.2471,229.7063 691.4062,229.8667 C691.946,229.9068 692.4843,229.9463 693.0213,229.9851 C693.2897,230.0046 687.5731,229.5963 687.8408,229.6154 " fill="none" id="btn-to-main" style="stroke:#000000;stroke-width:1.0;"/><polygon fill="#000000" points="693.8255,230.043,685.1334,225.4118,688.8382,229.6867,684.5634,233.3915,693.8255,230.043" style="stroke:#000000;stroke-width:1.0;"/><text fill="#000000" font-family="Verdana" font-size="13" lengthAdjust="spacing" textLength="69" x="499" y="180.531">press event</text></g><!--link batt to main--><g id="link_batt_main"><path d="M577.44,135.724 C574.37,152.074 574.29,171.124 585,184.634 C593.46,195.304 614.6125,203.7815 640.175,210.4278 C652.9563,213.7509 666.84,216.6162 680.7909,219.0688 C684.2787,219.682 687.7706,220.2694 691.2506,220.8317 C692.1206,220.9722 687.0636,220.1731 687.9318,220.3105 " fill="none" id="batt-to-main" style="stroke:#000000;stroke-width:1.0;"/><polygon fill="#000000" points="693.858,221.2487,685.5942,215.8907,688.9195,220.4669,684.3433,223.7923,693.858,221.2487" style="stroke:#000000;stroke-width:1.0;"/><text fill="#000000" font-family="Verdana" font-size="13" lengthAdjust="spacing" textLength="82" x="586" y="180.531">level changed</text></g><!--link voice to sd--><g id="link_voice_sd"><path d="M88.6,135.884 C60.23,180.374 18.48,261.874 38,332.634 C56.09,398.224 105.2218,453.9097 142.4218,489.2797 " fill="none" id="voice-to-sd" style="stroke:#000000;stroke-width:1.0;"/><polygon fill="#000000" points="146.77,493.414,143.0039,484.3137,143.1465,489.9687,137.4914,490.1113,146.77,493.414" style="stroke:#000000;stroke-width:1.0;"/><text fill="#000000" font-family="Verdana" font-size="13" lengthAdjust="spacing" textLength="122" x="39" y="304.031">read keyword config</text></g><!--link led to sd--><g id="link_led_sd"><path d="M185,414.904 C185,438.474 185,463.984 185,487.524 " fill="none" id="led-to-sd" style="stroke:#000000;stroke-width:1.0;"/><polygon fill="#000000" points="185,493.524,189,484.524,185,488.524,181,484.524,185,493.524" style="stroke:#000000;stroke-width:1.0;"/><text fill="#000000" font-family="Verdana" font-size="13" lengthAdjust="spacing" textLength="105" x="186" y="459.531">read pattern data</text></g><!--SRC=[RLJDYjim4BxxAQRPomOsBBGzvL1muYGDhAcx3hiK2a6n9ew8B1b9Jd1BeQTzW5Be0_LDzaagoLxRMUgBhVc-RsOqFtvZ3bWWb9mm4UWZ4oLHf80ToOwvafMWSycbWgkbVmQCJ1Qb52ZCJ2gAggMzyy-09gJ1sV-SBHP1O9ZX2FDgXp7H1XN43may__mDIwQACr48iQILfOGgEp23cQaK1a4N6aQnJHlIgaHrObgg4H0DXRDTtR7yO6QyGlWU09HI6MiTxJXkiu9wdlksb-x1asGPRl5aFNj2S-ueih81ETBEWVksnY5CAifaHsXEhoW7OygEuG-EyEFYMhEx1Qp2pGPIUp5KNyKrwdAYY7KtViczlU9A8OhkZZ3Af31Aycrs84fxRawCwU2gv9BG0TeONiL_P9Cb6mGlTaJhUYBGDE7FRC_Q-5-GStaU972_I3SG9cjFLAZxs8-uIsLsnAQwP_qgwDqYWaYn9kHzl84e3k7l7tW_Vgbs6p9XudYX35sT8U6azjhrszHfntqFMk5SAi8lb0-knP2m4ZaJQBL95CFpqozu22F_NabKvXloSJyHrXcnCsA7_i9L6i6SA0hBjAaOKefqecbHP8rOqwvbfBviTsMC5F2H2Chz3LR9-XEixp-tpJPsdXyFICobolOLLMrtH30ZdIoCvgt2Gft4xyDayi5NSEfMlTwMNYkk6Rs1FSbmtBEQWhKyxRRMiqwILmNUG4d4WEpcSEgMdErhq8QOIlUWdvAfDIianQqT1PivxM7jih4GxQACWy0vTA1dJS4ebkUeRhDz7dXt0woPtDl6VT2qPW0ViJxRNnDGT3yEf84hum0lRK8Q_BO7lbu3Z5ip1xia8hV2WUykvywztRSzomDNsqj2MsAWn93W7m00]--></g></svg>