<?xml version="1.0" encoding="us-ascii" standalone="no"?><svg xmlns="http://www.w3.org/2000/svg" xmlns:xlink="http://www.w3.org/1999/xlink" contentStyleType="text/css" height="838px" preserveAspectRatio="none" style="width:1230px;height:838px;background:#FFFFFF;" version="1.1" viewBox="0 0 1230 838" width="1230px" zoomAndPan="magnify"><defs/><g><text fill="#000000" font-family="Verdana" font-size="22" font-weight="bold" lengthAdjust="spacing" textLength="481" x="370.25" y="38.5181">LED Subsystem &#8212; 4&#215; 16&#215;16 WS2812B Panels</text><!--entity req--><g id="elem_req"><rect fill="#ADD8E6" height="39.0679" rx="2.5" ry="2.5" style="stroke:#000000;stroke-width:1.0;" width="128" x="906.5" y="62.9641"/><text fill="#000000" font-family="Verdana" font-size="14" lengthAdjust="spacing" textLength="108" x="916.5" y="87.93">Pattern Request</text></g><!--entity engine--><g id="elem_engine"><rect fill="#90EE90" height="39.0679" rx="2.5" ry="2.5" style="stroke:#000000;stroke-width:1.0;" width="120" x="910.5" y="180.9641"/><text fill="#000000" font-family="Verdana" font-size="14" lengthAdjust="spacing" textLength="100" x="920.5" y="205.93">Pattern Engine</text></g><g id="elem_GMN4"><path d="M867.5,307.4641 L867.5,405.9942 A0,0 0 0 0 867.5,405.9942 L1073.5,405.9942 A0,0 0 0 0 1073.5,405.9942 L1073.5,317.4641 L1063.5,307.4641 L974.5,307.4641 L970.5,220.1041 L966.5,307.4641 L867.5,307.4641 A0,0 0 0 0 867.5,307.4641 " fill="#FFFFEE" style="stroke:#000000;stroke-width:1.0;"/><path d="M1063.5,307.4641 L1063.5,317.4641 L1073.5,317.4641 L1063.5,307.4641 " fill="#FFFFEE" style="stroke:#000000;stroke-width:1.0;"/><text fill="#000000" font-family="Verdana" font-size="13" lengthAdjust="spacing" textLength="84" x="873.5" y="326.3611">Pattern types:</text><text fill="#000000" font-family="Verdana" font-size="13" lengthAdjust="spacing" textLength="88" x="873.5" y="344.0671">&#183; Static color fill</text><text fill="#000000" font-family="Verdana" font-size="13" lengthAdjust="spacing" textLength="185" x="873.5" y="361.7731">&#183; Procedural noise (fire, plasma)</text><text fill="#000000" font-family="Verdana" font-size="13" lengthAdjust="spacing" textLength="127" x="873.5" y="379.4792">&#183; Keyframe animation</text><text fill="#000000" font-family="Verdana" font-size="13" lengthAdjust="spacing" textLength="147" x="873.5" y="397.1852">&#183; Bitmap from SD/upload</text></g><!--entity sd--><g id="elem_sd"><path d="M1108.5,342.9641 C1108.5,332.9641 1145.5,332.9641 1145.5,332.9641 C1145.5,332.9641 1182.5,332.9641 1182.5,342.9641 L1182.5,371.032 C1182.5,381.032 1145.5,381.032 1145.5,381.032 C1145.5,381.032 1108.5,381.032 1108.5,371.032 L1108.5,342.9641 " fill="#FFFFFF" style="stroke:#000000;stroke-width:1.0;"/><path d="M1108.5,342.9641 C1108.5,352.9641 1145.5,352.9641 1145.5,352.9641 C1145.5,352.9641 1182.5,352.9641 1182.5,342.9641 " fill="none" style="stroke:#000000;stroke-width:1.0;"/><text fill="#000000" font-family="Verdana" font-size="14" lengthAdjust="spacing" textLength="54" x="1118.5" y="371.93">SD Card</text></g><!--entity buf--><g id="elem_buf"><rect fill="#FFFFE0" height="58.1358" rx="2.5" ry="2.5" style="stroke:#000000;stroke-width:1.0;" width="108" x="465.5" y="327.9641"/><text fill="#000000" font-family="Verdana" font-size="14" lengthAdjust="spacing" textLength="88" x="475.5" y="352.93">Frame Buffer</text><text fill="#000000" font-family="Verdana" font-size="14" lengthAdjust="spacing" textLength="88" x="475.5" y="371.998">4 &#215; 768 bytes</text></g><g id="elem_GMN9"><path d="M11,493.9641 L11,557.0822 A0,0 0 0 0 11,557.0822 L266,557.0822 A0,0 0 0 0 266,557.0822 L266,503.9641 L256,493.9641 L212.34,493.9641 L465.32,381.6441 L204.34,493.9641 L11,493.9641 A0,0 0 0 0 11,493.9641 " fill="#FFFFEE" style="stroke:#000000;stroke-width:1.0;"/><path d="M256,493.9641 L256,503.9641 L266,503.9641 L256,493.9641 " fill="#FFFFEE" style="stroke:#000000;stroke-width:1.0;"/><text fill="#000000" font-family="Verdana" font-size="13" lengthAdjust="spacing" textLength="221" x="17" y="512.8611">One frame = 256 LEDs &#215; 3 bytes (RGB)</text><text fill="#000000" font-family="Verdana" font-size="13" lengthAdjust="spacing" textLength="143" x="17" y="530.5671">Total: 3072 bytes (static)</text><text fill="#000000" font-family="Verdana" font-size="13" lengthAdjust="spacing" textLength="234" x="17" y="548.2731">Double buffered for smooth transitions</text></g><!--entity rmt0--><g id="elem_rmt0"><rect fill="#E6E6FA" height="58.1358" rx="2.5" ry="2.5" style="stroke:#000000;stroke-width:1.0;" width="122" x="301.5" y="496.4641"/><text fill="#000000" font-family="Verdana" font-size="14" lengthAdjust="spacing" textLength="102" x="311.5" y="521.43">RMT Channel 0</text><text fill="#000000" font-family="Verdana" font-size="14" lengthAdjust="spacing" textLength="50" x="311.5" y="540.498">GPIO26</text></g><!--entity rmt1--><g id="elem_rmt1"><rect fill="#E6E6FA" height="58.1358" rx="2.5" ry="2.5" style="stroke:#000000;stroke-width:1.0;" width="122" x="458.5" y="496.4641"/><text fill="#000000" font-family="Verdana" font-size="14" lengthAdjust="spacing" textLength="102" x="468.5" y="521.43">RMT Channel 1</text><text fill="#000000" font-family="Verdana" font-size="14" lengthAdjust="spacing" textLength="50" x="468.5" y="540.498">GPIO27</text></g><!--entity rmt2--><g id="elem_rmt2"><rect fill="#E6E6FA" height="58.1358" rx="2.5" ry="2.5" style="stroke:#000000;stroke-width:1.0;" width="122" x="615.5" y="496.4641"/><text fill="#000000" font-family="Verdana" font-size="14" lengthAdjust="spacing" textLength="102" x="625.5" y="521.43">RMT Channel 2</text><text fill="#000000" font-family="Verdana" font-size="14" lengthAdjust="spacing" textLength="50" x="625.5" y="540.498">GPIO33</text></g><!--entity rmt3--><g id="elem_rmt3"><rect fill="#E6E6FA" height="58.1358" rx="2.5" ry="2.5" style="stroke:#000000;stroke-width:1.0;" width="122" x="772.5" y="496.4641"/><text fill="#000000" font-family="Verdana" font-size="14" lengthAdjust="spacing" textLength="102" x="782.5" y="521.43">RMT Channel 3</text><text fill="#000000" font-family="Verdana" font-size="14" lengthAdjust="spacing" textLength="50" x="782.5" y="540.498">GPIO34</text></g><!--entity ls--><g id="elem_ls"><rect fill="#FFFFFF" height="58.1358" rx="2.5" ry="2.5" style="stroke:#000000;stroke-width:1.0;" width="103" x="546" y="617.9641"/><text fill="#000000" font-family="Verdana" font-size="14" lengthAdjust="spacing" textLength="83" x="556" y="642.93">Level Shifter</text><text fill="#000000" font-family="Verdana" font-size="14" lengthAdjust="spacing" textLength="76" x="556" y="661.998">74AHCT125</text></g><!--entity p0--><g id="elem_p0"><rect fill="#FFB6C1" height="77.2038" rx="2.5" ry="2.5" style="stroke:#000000;stroke-width:1.0;" width="110" x="325.5" y="754.9641"/><text fill="#000000" font-family="Verdana" font-size="14" lengthAdjust="spacing" textLength="49" x="335.5" y="779.93">Panel 0</text><text fill="#000000" font-family="Verdana" font-size="14" lengthAdjust="spacing" textLength="90" x="335.5" y="798.998">256 WS2812B</text><text fill="#000000" font-family="Verdana" font-size="14" lengthAdjust="spacing" textLength="50" x="335.5" y="818.0659">(Face 0)</text></g><!--entity p1--><g id="elem_p1"><rect fill="#FFB6C1" height="77.2038" rx="2.5" ry="2.5" style="stroke:#000000;stroke-width:1.0;" width="110" x="470.5" y="754.9641"/><text fill="#000000" font-family="Verdana" font-size="14" lengthAdjust="spacing" textLength="49" x="480.5" y="779.93">Panel 1</text><text fill="#000000" font-family="Verdana" font-size="14" lengthAdjust="spacing" textLength="90" x="480.5" y="798.998">256 WS2812B</text><text fill="#000000" font-family="Verdana" font-size="14" lengthAdjust="spacing" textLength="50" x="480.5" y="818.0659">(Face 1)</text></g><!--entity p2--><g id="elem_p2"><rect fill="#FFB6C1" height="77.2038" rx="2.5" ry="2.5" style="stroke:#000000;stroke-width:1.0;" width="110" x="615.5" y="754.9641"/><text fill="#000000" font-family="Verdana" font-size="14" lengthAdjust="spacing" textLength="49" x="625.5" y="779.93">Panel 2</text><text fill="#000000" font-family="Verdana" font-size="14" lengthAdjust="spacing" textLength="90" x="625.5" y="798.998">256 WS2812B</text><text fill="#000000" font-family="Verdana" font-size="14" lengthAdjust="spacing" textLength="50" x="625.5" y="818.0659">(Face 2)</text></g><!--entity p3--><g id="elem_p3"><rect fill="#FFB6C1" height="77.2038" rx="2.5" ry="2.5" style="stroke:#000000;stroke-width:1.0;" width="110" x="760.5" y="754.9641"/><text fill="#000000" font-family="Verdana" font-size="14" lengthAdjust="spacing" textLength="49" x="770.5" y="779.93">Panel 3</text><text fill="#000000" font-family="Verdana" font-size="14" lengthAdjust="spacing" textLength="90" x="770.5" y="798.998">256 WS2812B</text><text fill="#000000" font-family="Verdana" font-size="14" lengthAdjust="spacing" textLength="50" x="770.5" y="818.0659">(Face 3)</text></g><g id="elem_GMN36"><path d="M608.5,298.9641 L608.5,352.9641 L573.68,356.9641 L608.5,360.9641 L608.5,415.2002 A0,0 0 0 0 608.5,415.2002 L832.5,415.2002 A0,0 0 0 0 832.5,415.2002 L832.5,308.9641 L822.5,298.9641 L608.5,298.9641 A0,0 0 0 0 608.5,298.9641 " fill="#FFFFEE" style="stroke:#000000;stroke-width:1.0;"/><path d="M822.5,298.9641 L822.5,308.9641 L832.5,308.9641 L822.5,298.9641 " fill="#FFFFEE" style="stroke:#000000;stroke-width:1.0;"/><text fill="#000000" font-family="Verdana" font-size="13" lengthAdjust="spacing" textLength="44" x="614.5" y="317.8611">Timing:</text><text fill="#000000" font-family="Verdana" font-size="13" lengthAdjust="spacing" textLength="148" x="614.5" y="335.5671">&#183; Per LED: 30&#181;s @ 800kHz</text><text fill="#000000" font-family="Verdana" font-size="13" lengthAdjust="spacing" textLength="141" x="614.5" y="353.2731">&#183; Per chain (256): 7.68ms</text><text fill="#000000" font-family="Verdana" font-size="13" lengthAdjust="spacing" textLength="203" x="614.5" y="370.9792">&#183; 4-ch parallel: ~7.68ms total/frame</text><text fill="#000000" font-family="Verdana" font-size="13" lengthAdjust="spacing" textLength="118" x="614.5" y="388.6852">&#183; Max rate: ~130 FPS</text><text fill="#000000" font-family="Verdana" font-size="13" lengthAdjust="spacing" textLength="90" x="614.5" y="406.3912">&#183; Target: 30 FPS</text></g><!--link req to engine--><g id="link_req_engine"><path d="M970.5,102.1041 C970.5,123.7441 970.5,153.2441 970.5,174.8741 " fill="none" id="req-to-engine" style="stroke:#000000;stroke-width:1.0;"/><polygon fill="#000000" points="970.5,180.8741,974.5,171.8741,970.5,175.8741,966.5,171.8741,970.5,180.8741" style="stroke:#000000;stroke-width:1.0;"/><text fill="#000000" font-family="Verdana" font-size="13" lengthAdjust="spacing" textLength="167" x="971.5" y="146.8611">play_pattern(id, face, speed)</text></g><!--link engine to sd--><g id="link_engine_sd"><path d="M995.12,220.0541 C1019.9,239.0941 1058.86,269.9141 1090.5,298.9641 C1102.15,309.6641 1110.3188,317.8739 1120.3188,328.5039 " fill="none" id="engine-to-sd" style="stroke:#000000;stroke-width:1.0;"/><polygon fill="#000000" points="1124.43,332.8741,1121.1767,323.5781,1121.004,329.2323,1115.3498,329.0596,1124.43,332.8741" style="stroke:#000000;stroke-width:1.0;"/><text fill="#000000" font-family="Verdana" font-size="13" lengthAdjust="spacing" textLength="166" x="1056.5" y="264.8611">read pattern data (optional)</text></g><!--link engine to buf--><g id="link_engine_buf"><path d="M910.47,208.8441 C833.16,220.1041 696.19,246.1041 590.5,298.9641 C575.51,306.4641 565.3285,313.6228 553.1885,324.0128 " fill="none" id="engine-to-buf" style="stroke:#000000;stroke-width:1.0;"/><polygon fill="#000000" points="548.63,327.9141,558.0686,325.1011,552.4287,324.663,552.8668,319.0231,548.63,327.9141" style="stroke:#000000;stroke-width:1.0;"/><text fill="#000000" font-family="Verdana" font-size="13" lengthAdjust="spacing" textLength="92" x="712.5" y="264.8611">generate frame</text></g><!--link buf to rmt0--><g id="link_buf_rmt0"><path d="M487.88,386.0141 C469.67,402.6141 446.67,424.3641 427.5,444.9641 C412.32,461.2841 400.1874,475.9044 387.9374,491.4244 " fill="none" id="buf-to-rmt0" style="stroke:#000000;stroke-width:1.0;"/><polygon fill="#000000" points="384.22,496.1341,392.9359,491.5478,387.3178,492.2094,386.6563,486.5913,384.22,496.1341" style="stroke:#000000;stroke-width:1.0;"/><text fill="#000000" font-family="Verdana" font-size="13" lengthAdjust="spacing" textLength="82" x="428.5" y="459.8611">DMA frame[0]</text></g><!--link buf to rmt1--><g id="link_buf_rmt1"><path d="M519.5,386.2041 C519.5,416.9141 519.5,459.7041 519.5,490.3641 " fill="none" id="buf-to-rmt1" style="stroke:#000000;stroke-width:1.0;"/><polygon fill="#000000" points="519.5,496.3641,523.5,487.3641,519.5,491.3641,515.5,487.3641,519.5,496.3641" style="stroke:#000000;stroke-width:1.0;"/><text fill="#000000" font-family="Verdana" font-size="13" lengthAdjust="spacing" textLength="82" x="520.5" y="459.8611">DMA frame[1]</text></g><!--link buf to rmt2--><g id="link_buf_rmt2"><path d="M551.12,386.0141 C569.33,402.6141 592.33,424.3641 611.5,444.9641 C626.68,461.2841 638.8126,475.9044 651.0626,491.4244 " fill="none" id="buf-to-rmt2" style="stroke:#000000;stroke-width:1.0;"/><polygon fill="#000000" points="654.78,496.1341,652.3437,486.5913,651.6822,492.2094,646.0641,491.5478,654.78,496.1341" style="stroke:#000000;stroke-width:1.0;"/><text fill="#000000" font-family="Verdana" font-size="13" lengthAdjust="spacing" textLength="82" x="629.5" y="459.8611">DMA frame[2]</text></g><!--link buf to rmt3--><g id="link_buf_rmt3"><path d="M548.53,386.2041 C560.66,396.6241 575.42,407.6541 590.5,414.9641 C643.85,440.8441 666.36,420.7841 720.5,444.9641 C749.85,458.0641 774.7414,475.4902 796.2814,492.6902 " fill="none" id="buf-to-rmt3" style="stroke:#000000;stroke-width:1.0;"/><polygon fill="#000000" points="800.97,496.4341,796.433,487.6925,797.0628,493.3142,791.4411,493.944,800.97,496.4341" style="stroke:#000000;stroke-width:1.0;"/><text fill="#000000" font-family="Verdana" font-size="13" lengthAdjust="spacing" textLength="82" x="755.5" y="459.8611">DMA frame[3]</text></g><!--link rmt0 to ls--><g id="link_rmt0_ls"><path d="M417.6,554.4841 C456.4,574.2141 502.6313,597.7254 540.6213,617.0354 " fill="none" id="rmt0-to-ls" style="stroke:#000000;stroke-width:1.0;"/><polygon fill="#000000" points="545.97,619.7541,539.7594,612.1102,541.5127,617.4885,536.1345,619.2419,545.97,619.7541" style="stroke:#000000;stroke-width:1.0;"/></g><!--link rmt1 to ls--><g id="link_rmt1_ls"><path d="M537.79,554.4841 C550.22,573.5241 563.3205,593.5896 575.7805,612.6796 " fill="none" id="rmt1-to-ls" style="stroke:#000000;stroke-width:1.0;"/><polygon fill="#000000" points="579.06,617.7041,577.4905,607.9811,576.3271,613.5171,570.7912,612.3537,579.06,617.7041" style="stroke:#000000;stroke-width:1.0;"/></g><!--link rmt2 to ls--><g id="link_rmt2_ls"><path d="M657.98,554.4841 C645.39,573.5241 632.1088,593.6089 619.4888,612.6989 " fill="none" id="rmt2-to-ls" style="stroke:#000000;stroke-width:1.0;"/><polygon fill="#000000" points="616.18,617.7041,624.48,612.4022,618.9373,613.5331,617.8064,607.9905,616.18,617.7041" style="stroke:#000000;stroke-width:1.0;"/></g><!--link rmt3 to ls--><g id="link_rmt3_ls"><path d="M778.17,554.4841 C739.2,574.2141 692.7533,597.7345 654.6033,617.0445 " fill="none" id="rmt3-to-ls" style="stroke:#000000;stroke-width:1.0;"/><polygon fill="#000000" points="649.25,619.7541,659.0864,619.2585,653.7111,617.4961,655.4735,612.1208,649.25,619.7541" style="stroke:#000000;stroke-width:1.0;"/></g><!--link ls to p0--><g id="link_ls_p0"><path d="M555.4,675.9941 C521.26,698.7341 477.8642,727.6287 440.6342,752.4187 " fill="none" id="ls-to-p0" style="stroke:#000000;stroke-width:1.0;"/><polygon fill="#000000" points="435.64,755.7441,445.3482,754.0854,439.8018,752.9729,440.9143,747.4265,435.64,755.7441" style="stroke:#000000;stroke-width:1.0;"/><text fill="#000000" font-family="Verdana" font-size="13" lengthAdjust="spacing" textLength="23" x="509.5" y="720.8611">DIN</text></g><!--link ls to p1--><g id="link_ls_p1"><path d="M583.45,676.1641 C572.27,698.5941 559.2154,724.7936 546.9654,749.3836 " fill="none" id="ls-to-p1" style="stroke:#000000;stroke-width:1.0;"/><polygon fill="#000000" points="544.29,754.7541,551.8835,748.482,546.5195,750.2787,544.7228,744.9148,544.29,754.7541" style="stroke:#000000;stroke-width:1.0;"/><text fill="#000000" font-family="Verdana" font-size="13" lengthAdjust="spacing" textLength="23" x="569.5" y="720.8611">DIN</text></g><!--link ls to p2--><g id="link_ls_p2"><path d="M611.75,676.1641 C623.08,698.5941 636.325,724.8085 648.745,749.3985 " fill="none" id="ls-to-p2" style="stroke:#000000;stroke-width:1.0;"/><polygon fill="#000000" points="651.45,754.7541,650.9629,744.9173,649.1958,750.2911,643.822,748.524,651.45,754.7541" style="stroke:#000000;stroke-width:1.0;"/><text fill="#000000" font-family="Verdana" font-size="13" lengthAdjust="spacing" textLength="23" x="637.5" y="720.8611">DIN</text></g><!--link ls to p3--><g id="link_ls_p3"><path d="M639.79,675.9941 C674.09,698.7341 717.7089,727.6392 755.1089,752.4292 " fill="none" id="ls-to-p3" style="stroke:#000000;stroke-width:1.0;"/><polygon fill="#000000" points="760.11,755.7441,754.8183,747.4376,755.9424,752.9817,750.3984,754.1058,760.11,755.7441" style="stroke:#000000;stroke-width:1.0;"/><text fill="#000000" font-family="Verdana" font-size="13" lengthAdjust="spacing" textLength="23" x="714.5" y="720.8611">DIN</text></g><!--SRC=[XPJTJjim5CVlynHdSDDACF9HsghIfj4lG8DHqKhJDD3aD2UjLSS9jiFMNKnxY4ayoRHxU9CzoMmdXHGwo9Nj___d-9pZurTgZWb2nWZbZbnGdX514WZ9T34JQSwZNifI0Tj3-rKSF5NOtUGQ31n7KSKGJWPz6EUXN4g52Vpz-GiQTpVWDUzkl2Py7Fjjp-_2Y71aqd44JXNXCurjZOXIA3YSurMEKcq1aI3m2hPFw6okkYp7ZVO1dr6ErersM0A70f4xvhmGfagb2QHnwN00LhHQPYWxUk7s3umLKNGAKnjKJ1ahbaSYdMAK2y9qz5GYr68gSCSaJoQaNfZUupBM-K4Wd2PwcvGNwrsg4f91BFJ_n_szF6CfYHpaaSsauqH4aP3eJRV6VUWH4Tb0PBGMwj3ktCtZ6CK5Ru1EPwlPXd2fK5f_cCTbr9-GiVJhux2rhezpfdDJ7F8D-FjDKoXfzWgAdQ1sVjWruKnIHLW70hVbhnHfKsF4Vfg7-aoXFGn64EjSoIHDrHoK85nI4xkiH5Y9u_nq0hqvuRhqu5xmmz7ncTyiwfmeLqT0hZM7ud-CLpAj5UEzpFW54mGhnd-P2KgciMA22bE5Jl1QsyTp6YjJcLRZuAWtyVnzopsvtcNO9lLb6rpmsf1C4Tow9JAthEA8yiLJrjl8UYNhFSlw6rc_PFrdsM0Z6vHiK6KTqx2xkszNhTWnNRByaXNTLgFH3iGQtW6P8KPrfxGPGaRQBP14KBh1z0RKqipSACBMpER2Ts2670LHvQrspA8HxMNgGF_qe10-kvTLpLlJl3NDNzFyDIrOqu9B7QpvaL5rgUt63sE_CWvMOuT9EypiyOu_tC-zHtF_qJmevqLV2vFkXxQUq8JoMVc6ZL2OlZRTU_jRmZjek-xYwFk3E9th9nzgkg3r3hHUDzk9BCJ6xdGEvf5d37Nt_oWqKEOns2iIR7sdv1kOf6kB5xWm78sBzGaHCrJcntRj_W7u1m00]--></g></svg>