<?xml version="1.0" encoding="us-ascii" standalone="no"?><svg xmlns="http://www.w3.org/2000/svg" xmlns:xlink="http://www.w3.org/1999/xlink" contentStyleType="text/css" height="896px" preserveAspectRatio="none" style="width:2367px;height:896px;background:#FFFFFF;" version="1.1" viewBox="0 0 2367 896" width="2367px" zoomAndPan="magnify"><defs/><g><text fill="#000000" font-family="Verdana" font-size="22" font-weight="bold" lengthAdjust="spacing" textLength="615" x="871.75" y="38.5181">CubeMaster Repository &#8212; Rust Workspace Architecture</text><!--cluster root--><g id="cluster_root"><path d="M13.5,62.5661 L224.5,62.5661 A3.75,3.75 0 0 1 227,65.0661 L234,87.634 L2104.5,87.634 A2.5,2.5 0 0 1 2107,90.134 L2107,887.0661 A2.5,2.5 0 0 1 2104.5,889.5661 L13.5,889.5661 A2.5,2.5 0 0 1 11,887.0661 L11,65.0661 A2.5,2.5 0 0 1 13.5,62.5661 " fill="#ADD8E6" style="stroke:#333333;stroke-width:1.0;"/><line style="stroke:#333333;stroke-width:1.0;" x1="11" x2="234" y1="87.634" y2="87.634"/><text fill="#000000" font-family="Verdana" font-size="14" font-weight="bold" lengthAdjust="spacing" textLength="210" x="15" y="79.532">cubemaster (Workspace Root)</text></g><!--cluster fw--><g id="cluster_fw"><path d="M1440.5,126.0661 L1510.5,126.0661 A3.75,3.75 0 0 1 1513,128.5661 L1520,151.134 L2064.5,151.134 A2.5,2.5 0 0 1 2067,153.634 L2067,533.0661 A2.5,2.5 0 0 1 2064.5,535.5661 L1440.5,535.5661 A2.5,2.5 0 0 1 1438,533.0661 L1438,128.5661 A2.5,2.5 0 0 1 1440.5,126.0661 " fill="#EEEEFF" style="stroke:#333333;stroke-width:1.0;"/><line style="stroke:#333333;stroke-width:1.0;" x1="1438" x2="1520" y1="151.134" y2="151.134"/><text fill="#000000" font-family="Verdana" font-size="14" font-weight="bold" lengthAdjust="spacing" textLength="69" x="1442" y="143.032">firmware/</text></g><!--cluster app--><g id="cluster_app"><path d="M681.5,126.0661 L766.5,126.0661 A3.75,3.75 0 0 1 769,128.5661 L776,151.134 L1394.5,151.134 A2.5,2.5 0 0 1 1397,153.634 L1397,370.0661 A2.5,2.5 0 0 1 1394.5,372.5661 L681.5,372.5661 A2.5,2.5 0 0 1 679,370.0661 L679,128.5661 A2.5,2.5 0 0 1 681.5,126.0661 " fill="#EEEEFF" style="stroke:#333333;stroke-width:1.0;"/><line style="stroke:#333333;stroke-width:1.0;" x1="679" x2="776" y1="151.134" y2="151.134"/><text fill="#000000" font-family="Verdana" font-size="14" font-weight="bold" lengthAdjust="spacing" textLength="84" x="683" y="143.032">companion/</text></g><!--cluster shared--><g id="cluster_shared"><path d="M1408.5,583.5661 L1462.5,583.5661 A3.75,3.75 0 0 1 1465,586.0661 L1472,608.634 L1805.5,608.634 A2.5,2.5 0 0 1 1808,611.134 L1808,847.0661 A2.5,2.5 0 0 1 1805.5,849.5661 L1408.5,849.5661 A2.5,2.5 0 0 1 1406,847.0661 L1406,586.0661 A2.5,2.5 0 0 1 1408.5,583.5661 " fill="#EEEEFF" style="stroke:#333333;stroke-width:1.0;"/><line style="stroke:#333333;stroke-width:1.0;" x1="1406" x2="1472" y1="608.634" y2="608.634"/><text fill="#000000" font-family="Verdana" font-size="14" font-weight="bold" lengthAdjust="spacing" textLength="53" x="1410" y="600.532">shared/</text></g><!--cluster tools--><g id="cluster_tools"><path d="M1191.5,405.5661 L1246.5,405.5661 A3.75,3.75 0 0 1 1249,408.0661 L1256,430.634 L1389.5,430.634 A2.5,2.5 0 0 1 1392,433.134 L1392,541.0661 A2.5,2.5 0 0 1 1389.5,543.5661 L1191.5,543.5661 A2.5,2.5 0 0 1 1189,541.0661 L1189,408.0661 A2.5,2.5 0 0 1 1191.5,405.5661 " fill="#EEEEFF" style="stroke:#333333;stroke-width:1.0;"/><line style="stroke:#333333;stroke-width:1.0;" x1="1189" x2="1256" y1="430.634" y2="430.634"/><text fill="#000000" font-family="Verdana" font-size="14" font-weight="bold" lengthAdjust="spacing" textLength="54" x="1193" y="422.532">x-tools/</text></g><!--cluster doc--><g id="cluster_doc"><path d="M304.5,116.5661 L336.5,116.5661 A3.75,3.75 0 0 1 339,119.0661 L346,141.634 L652.5,141.634 A2.5,2.5 0 0 1 655,144.134 L655,236.0661 A2.5,2.5 0 0 1 652.5,238.5661 L304.5,238.5661 A2.5,2.5 0 0 1 302,236.0661 L302,119.0661 A2.5,2.5 0 0 1 304.5,116.5661 " fill="#EEEEFF" style="stroke:#333333;stroke-width:1.0;"/><line style="stroke:#333333;stroke-width:1.0;" x1="302" x2="346" y1="141.634" y2="141.634"/><text fill="#000000" font-family="Verdana" font-size="14" font-weight="bold" lengthAdjust="spacing" textLength="31" x="306" y="133.532">doc/</text></g><!--cluster tasks--><g id="cluster_tasks"><path d="M45.5,126.0661 L89.5,126.0661 A3.75,3.75 0 0 1 92,128.5661 L99,151.134 L275.5,151.134 A2.5,2.5 0 0 1 278,153.634 L278,226.5661 A2.5,2.5 0 0 1 275.5,229.0661 L45.5,229.0661 A2.5,2.5 0 0 1 43,226.5661 L43,128.5661 A2.5,2.5 0 0 1 45.5,126.0661 " fill="#EEEEFF" style="stroke:#333333;stroke-width:1.0;"/><line style="stroke:#333333;stroke-width:1.0;" x1="43" x2="99" y1="151.134" y2="151.134"/><text fill="#000000" font-family="Verdana" font-size="14" font-weight="bold" lengthAdjust="spacing" textLength="43" x="47" y="143.032">tasks/</text></g><!--entity fwbin--><g id="elem_fwbin"><rect fill="#FFFFFF" height="49.0679" rx="2.5" ry="2.5" style="stroke:#000000;stroke-width:1.0;" width="122" x="1915" y="164.0661"/><rect fill="#FFFFFF" height="10" style="stroke:#000000;stroke-width:1.0;" width="15" x="2017" y="169.0661"/><rect fill="#FFFFFF" height="2" style="stroke:#000000;stroke-width:1.0;" width="4" x="2015" y="171.0661"/><rect fill="#FFFFFF" height="2" style="stroke:#000000;stroke-width:1.0;" width="4" x="2015" y="175.0661"/><text fill="#000000" font-family="Verdana" font-size="14" lengthAdjust="spacing" textLength="82" x="1930" y="199.032">esp32s3-bin</text></g><!--entity fwlib--><g id="elem_fwlib"><rect fill="#FFFFFF" height="68.1358" rx="2.5" ry="2.5" style="stroke:#000000;stroke-width:1.0;" width="161" x="1889.5" y="298.0661"/><rect fill="#FFFFFF" height="10" style="stroke:#000000;stroke-width:1.0;" width="15" x="2030.5" y="303.0661"/><rect fill="#FFFFFF" height="2" style="stroke:#000000;stroke-width:1.0;" width="4" x="2028.5" y="305.0661"/><rect fill="#FFFFFF" height="2" style="stroke:#000000;stroke-width:1.0;" width="4" x="2028.5" y="309.0661"/><text fill="#000000" font-family="Verdana" font-size="14" lengthAdjust="spacing" textLength="34" x="1904.5" y="333.032">lib.rs</text><text fill="#000000" font-family="Verdana" font-size="14" lengthAdjust="spacing" textLength="121" x="1904.5" y="352.0999">(HAL abstractions)</text></g><!--entity audiom--><g id="elem_audiom"><rect fill="#FFFFFF" height="49.0679" rx="2.5" ry="2.5" style="stroke:#000000;stroke-width:1.0;" width="120" x="1454" y="164.0661"/><rect fill="#FFFFFF" height="10" style="stroke:#000000;stroke-width:1.0;" width="15" x="1554" y="169.0661"/><rect fill="#FFFFFF" height="2" style="stroke:#000000;stroke-width:1.0;" width="4" x="1552" y="171.0661"/><rect fill="#FFFFFF" height="2" style="stroke:#000000;stroke-width:1.0;" width="4" x="1552" y="175.0661"/><text fill="#000000" font-family="Verdana" font-size="14" lengthAdjust="spacing" textLength="80" x="1469" y="199.032">audio_i2s.rs</text></g><!--entity ledm--><g id="elem_ledm"><rect fill="#FFFFFF" height="49.0679" rx="2.5" ry="2.5" style="stroke:#000000;stroke-width:1.0;" width="108" x="1609" y="164.0661"/><rect fill="#FFFFFF" height="10" style="stroke:#000000;stroke-width:1.0;" width="15" x="1697" y="169.0661"/><rect fill="#FFFFFF" height="2" style="stroke:#000000;stroke-width:1.0;" width="4" x="1695" y="171.0661"/><rect fill="#FFFFFF" height="2" style="stroke:#000000;stroke-width:1.0;" width="4" x="1695" y="175.0661"/><text fill="#000000" font-family="Verdana" font-size="14" lengthAdjust="spacing" textLength="68" x="1624" y="199.032">led_rmt.rs</text></g><!--entity voicem--><g id="elem_voicem"><rect fill="#FFFFFF" height="49.0679" rx="2.5" ry="2.5" style="stroke:#000000;stroke-width:1.0;" width="128" x="1752" y="164.0661"/><rect fill="#FFFFFF" height="10" style="stroke:#000000;stroke-width:1.0;" width="15" x="1860" y="169.0661"/><rect fill="#FFFFFF" height="2" style="stroke:#000000;stroke-width:1.0;" width="4" x="1858" y="171.0661"/><rect fill="#FFFFFF" height="2" style="stroke:#000000;stroke-width:1.0;" width="4" x="1858" y="175.0661"/><text fill="#000000" font-family="Verdana" font-size="14" lengthAdjust="spacing" textLength="88" x="1767" y="199.032">voice_pdm.rs</text></g><!--entity blem--><g id="elem_blem"><rect fill="#FFFFFF" height="49.0679" rx="2.5" ry="2.5" style="stroke:#000000;stroke-width:1.0;" width="111" x="1453.5" y="307.5661"/><rect fill="#FFFFFF" height="10" style="stroke:#000000;stroke-width:1.0;" width="15" x="1544.5" y="312.5661"/><rect fill="#FFFFFF" height="2" style="stroke:#000000;stroke-width:1.0;" width="4" x="1542.5" y="314.5661"/><rect fill="#FFFFFF" height="2" style="stroke:#000000;stroke-width:1.0;" width="4" x="1542.5" y="318.5661"/><text fill="#000000" font-family="Verdana" font-size="14" lengthAdjust="spacing" textLength="71" x="1468.5" y="342.532">ble_gatt.rs</text></g><!--entity wifim--><g id="elem_wifim"><rect fill="#FFFFFF" height="49.0679" rx="2.5" ry="2.5" style="stroke:#000000;stroke-width:1.0;" width="129" x="1599.5" y="307.5661"/><rect fill="#FFFFFF" height="10" style="stroke:#000000;stroke-width:1.0;" width="15" x="1708.5" y="312.5661"/><rect fill="#FFFFFF" height="2" style="stroke:#000000;stroke-width:1.0;" width="4" x="1706.5" y="314.5661"/><rect fill="#FFFFFF" height="2" style="stroke:#000000;stroke-width:1.0;" width="4" x="1706.5" y="318.5661"/><text fill="#000000" font-family="Verdana" font-size="14" lengthAdjust="spacing" textLength="89" x="1614.5" y="342.532">wifi_server.rs</text></g><!--entity sdm--><g id="elem_sdm"><rect fill="#FFFFFF" height="49.0679" rx="2.5" ry="2.5" style="stroke:#000000;stroke-width:1.0;" width="91" x="1763.5" y="307.5661"/><rect fill="#FFFFFF" height="10" style="stroke:#000000;stroke-width:1.0;" width="15" x="1834.5" y="312.5661"/><rect fill="#FFFFFF" height="2" style="stroke:#000000;stroke-width:1.0;" width="4" x="1832.5" y="314.5661"/><rect fill="#FFFFFF" height="2" style="stroke:#000000;stroke-width:1.0;" width="4" x="1832.5" y="318.5661"/><text fill="#000000" font-family="Verdana" font-size="14" lengthAdjust="spacing" textLength="51" x="1778.5" y="342.532">sd_fs.rs</text></g><!--entity btnm--><g id="elem_btnm"><rect fill="#FFFFFF" height="49.0679" rx="2.5" ry="2.5" style="stroke:#000000;stroke-width:1.0;" width="116" x="1459" y="461.0661"/><rect fill="#FFFFFF" height="10" style="stroke:#000000;stroke-width:1.0;" width="15" x="1555" y="466.0661"/><rect fill="#FFFFFF" height="2" style="stroke:#000000;stroke-width:1.0;" width="4" x="1553" y="468.0661"/><rect fill="#FFFFFF" height="2" style="stroke:#000000;stroke-width:1.0;" width="4" x="1553" y="472.0661"/><text fill="#000000" font-family="Verdana" font-size="14" lengthAdjust="spacing" textLength="76" x="1474" y="496.032">btn_mon.rs</text></g><!--entity mainrs--><g id="elem_mainrs"><rect fill="#FFFFFF" height="68.1358" rx="2.5" ry="2.5" style="stroke:#000000;stroke-width:1.0;" width="120" x="1610" y="451.5661"/><rect fill="#FFFFFF" height="10" style="stroke:#000000;stroke-width:1.0;" width="15" x="1710" y="456.5661"/><rect fill="#FFFFFF" height="2" style="stroke:#000000;stroke-width:1.0;" width="4" x="1708" y="458.5661"/><rect fill="#FFFFFF" height="2" style="stroke:#000000;stroke-width:1.0;" width="4" x="1708" y="462.5661"/><text fill="#000000" font-family="Verdana" font-size="14" lengthAdjust="spacing" textLength="51" x="1625" y="486.532">main.rs</text><text fill="#000000" font-family="Verdana" font-size="14" lengthAdjust="spacing" textLength="80" x="1625" y="505.5999">(Supervisor)</text></g><!--entity appbin--><g id="elem_appbin"><rect fill="#FFFFFF" height="49.0679" rx="2.5" ry="2.5" style="stroke:#000000;stroke-width:1.0;" width="115" x="841.5" y="164.0661"/><rect fill="#FFFFFF" height="10" style="stroke:#000000;stroke-width:1.0;" width="15" x="936.5" y="169.0661"/><rect fill="#FFFFFF" height="2" style="stroke:#000000;stroke-width:1.0;" width="4" x="934.5" y="171.0661"/><rect fill="#FFFFFF" height="2" style="stroke:#000000;stroke-width:1.0;" width="4" x="934.5" y="175.0661"/><text fill="#000000" font-family="Verdana" font-size="14" lengthAdjust="spacing" textLength="75" x="856.5" y="199.032">dioxus-app</text></g><!--entity comp--><g id="elem_comp"><rect fill="#FFFFFF" height="49.0679" rx="2.5" ry="2.5" style="stroke:#000000;stroke-width:1.0;" width="128" x="695" y="307.5661"/><rect fill="#FFFFFF" height="10" style="stroke:#000000;stroke-width:1.0;" width="15" x="803" y="312.5661"/><rect fill="#FFFFFF" height="2" style="stroke:#000000;stroke-width:1.0;" width="4" x="801" y="314.5661"/><rect fill="#FFFFFF" height="2" style="stroke:#000000;stroke-width:1.0;" width="4" x="801" y="318.5661"/><text fill="#000000" font-family="Verdana" font-size="14" lengthAdjust="spacing" textLength="88" x="710" y="342.532">components/</text></g><!--entity views--><g id="elem_views"><rect fill="#FFFFFF" height="49.0679" rx="2.5" ry="2.5" style="stroke:#000000;stroke-width:1.0;" width="82" x="858" y="307.5661"/><rect fill="#FFFFFF" height="10" style="stroke:#000000;stroke-width:1.0;" width="15" x="920" y="312.5661"/><rect fill="#FFFFFF" height="2" style="stroke:#000000;stroke-width:1.0;" width="4" x="918" y="314.5661"/><rect fill="#FFFFFF" height="2" style="stroke:#000000;stroke-width:1.0;" width="4" x="918" y="318.5661"/><text fill="#000000" font-family="Verdana" font-size="14" lengthAdjust="spacing" textLength="42" x="873" y="342.532">views/</text></g><!--entity bleclient--><g id="elem_bleclient"><rect fill="#FFFFFF" height="49.0679" rx="2.5" ry="2.5" style="stroke:#000000;stroke-width:1.0;" width="121" x="1045.5" y="164.0661"/><rect fill="#FFFFFF" height="10" style="stroke:#000000;stroke-width:1.0;" width="15" x="1146.5" y="169.0661"/><rect fill="#FFFFFF" height="2" style="stroke:#000000;stroke-width:1.0;" width="4" x="1144.5" y="171.0661"/><rect fill="#FFFFFF" height="2" style="stroke:#000000;stroke-width:1.0;" width="4" x="1144.5" y="175.0661"/><text fill="#000000" font-family="Verdana" font-size="14" lengthAdjust="spacing" textLength="81" x="1060.5" y="199.032">ble_client.rs</text></g><!--entity wificlient--><g id="elem_wificlient"><rect fill="#FFFFFF" height="49.0679" rx="2.5" ry="2.5" style="stroke:#000000;stroke-width:1.0;" width="124" x="1202" y="164.0661"/><rect fill="#FFFFFF" height="10" style="stroke:#000000;stroke-width:1.0;" width="15" x="1306" y="169.0661"/><rect fill="#FFFFFF" height="2" style="stroke:#000000;stroke-width:1.0;" width="4" x="1304" y="171.0661"/><rect fill="#FFFFFF" height="2" style="stroke:#000000;stroke-width:1.0;" width="4" x="1304" y="175.0661"/><text fill="#000000" font-family="Verdana" font-size="14" lengthAdjust="spacing" textLength="84" x="1217" y="199.032">wifi_client.rs</text></g><!--entity banks--><g id="elem_banks"><rect fill="#FFFFFF" height="49.0679" rx="2.5" ry="2.5" style="stroke:#000000;stroke-width:1.0;" width="145" x="975.5" y="307.5661"/><rect fill="#FFFFFF" height="10" style="stroke:#000000;stroke-width:1.0;" width="15" x="1100.5" y="312.5661"/><rect fill="#FFFFFF" height="2" style="stroke:#000000;stroke-width:1.0;" width="4" x="1098.5" y="314.5661"/><rect fill="#FFFFFF" height="2" style="stroke:#000000;stroke-width:1.0;" width="4" x="1098.5" y="318.5661"/><text fill="#000000" font-family="Verdana" font-size="14" lengthAdjust="spacing" textLength="105" x="990.5" y="342.532">sound_banks.rs</text></g><!--entity mkp--><g id="elem_mkp"><rect fill="#FFFFFF" height="49.0679" rx="2.5" ry="2.5" style="stroke:#000000;stroke-width:1.0;" width="225" x="1155.5" y="307.5661"/><rect fill="#FFFFFF" height="10" style="stroke:#000000;stroke-width:1.0;" width="15" x="1360.5" y="312.5661"/><rect fill="#FFFFFF" height="2" style="stroke:#000000;stroke-width:1.0;" width="4" x="1358.5" y="314.5661"/><rect fill="#FFFFFF" height="2" style="stroke:#000000;stroke-width:1.0;" width="4" x="1358.5" y="318.5661"/><text fill="#000000" font-family="Verdana" font-size="14" lengthAdjust="spacing" textLength="185" x="1170.5" y="342.532">sound_pack_marketplace.rs</text></g><!--entity types--><g id="elem_types"><rect fill="#FFFFFF" height="68.1358" rx="2.5" ry="2.5" style="stroke:#000000;stroke-width:1.0;" width="142" x="1449" y="629.5661"/><rect fill="#FFFFFF" height="10" style="stroke:#000000;stroke-width:1.0;" width="15" x="1571" y="634.5661"/><rect fill="#FFFFFF" height="2" style="stroke:#000000;stroke-width:1.0;" width="4" x="1569" y="636.5661"/><rect fill="#FFFFFF" height="2" style="stroke:#000000;stroke-width:1.0;" width="4" x="1569" y="640.5661"/><text fill="#000000" font-family="Verdana" font-size="14" lengthAdjust="spacing" textLength="53" x="1464" y="664.532">types.rs</text><text fill="#000000" font-family="Verdana" font-size="14" lengthAdjust="spacing" textLength="102" x="1464" y="683.5999">(Protocol types)</text></g><!--entity proto--><g id="elem_proto"><rect fill="#FFFFFF" height="68.1358" rx="2.5" ry="2.5" style="stroke:#000000;stroke-width:1.0;" width="157" x="1626.5" y="629.5661"/><rect fill="#FFFFFF" height="10" style="stroke:#000000;stroke-width:1.0;" width="15" x="1763.5" y="634.5661"/><rect fill="#FFFFFF" height="2" style="stroke:#000000;stroke-width:1.0;" width="4" x="1761.5" y="636.5661"/><rect fill="#FFFFFF" height="2" style="stroke:#000000;stroke-width:1.0;" width="4" x="1761.5" y="640.5661"/><text fill="#000000" font-family="Verdana" font-size="14" lengthAdjust="spacing" textLength="53" x="1641.5" y="664.532">proto.rs</text><text fill="#000000" font-family="Verdana" font-size="14" lengthAdjust="spacing" textLength="117" x="1641.5" y="683.5999">(BLE GATT UUIDs)</text></g><!--entity codec--><g id="elem_codec"><rect fill="#FFFFFF" height="68.1358" rx="2.5" ry="2.5" style="stroke:#000000;stroke-width:1.0;" width="140" x="1450" y="757.5661"/><rect fill="#FFFFFF" height="10" style="stroke:#000000;stroke-width:1.0;" width="15" x="1570" y="762.5661"/><rect fill="#FFFFFF" height="2" style="stroke:#000000;stroke-width:1.0;" width="4" x="1568" y="764.5661"/><rect fill="#FFFFFF" height="2" style="stroke:#000000;stroke-width:1.0;" width="4" x="1568" y="768.5661"/><text fill="#000000" font-family="Verdana" font-size="14" lengthAdjust="spacing" textLength="56" x="1465" y="792.532">codec.rs</text><text fill="#000000" font-family="Verdana" font-size="14" lengthAdjust="spacing" textLength="100" x="1465" y="811.5999">(Sound format)</text></g><!--entity cli--><g id="elem_cli"><rect fill="#FFFFFF" height="68.1358" rx="2.5" ry="2.5" style="stroke:#000000;stroke-width:1.0;" width="136" x="1232" y="451.5661"/><rect fill="#FFFFFF" height="10" style="stroke:#000000;stroke-width:1.0;" width="15" x="1348" y="456.5661"/><rect fill="#FFFFFF" height="2" style="stroke:#000000;stroke-width:1.0;" width="4" x="1346" y="458.5661"/><rect fill="#FFFFFF" height="2" style="stroke:#000000;stroke-width:1.0;" width="4" x="1346" y="462.5661"/><text fill="#000000" font-family="Verdana" font-size="14" lengthAdjust="spacing" textLength="32" x="1247" y="486.532">cli.rs</text><text fill="#000000" font-family="Verdana" font-size="14" lengthAdjust="spacing" textLength="96" x="1247" y="505.5999">(Flash, deploy)</text></g><!--entity spec--><g id="elem_spec"><rect fill="#FFFFFF" height="68.1358" rx="2.5" ry="2.5" style="stroke:#000000;stroke-width:1.0;" width="174" x="465" y="154.5661"/><rect fill="#FFFFFF" height="10" style="stroke:#000000;stroke-width:1.0;" width="15" x="619" y="159.5661"/><rect fill="#FFFFFF" height="2" style="stroke:#000000;stroke-width:1.0;" width="4" x="617" y="161.5661"/><rect fill="#FFFFFF" height="2" style="stroke:#000000;stroke-width:1.0;" width="4" x="617" y="165.5661"/><text fill="#000000" font-family="Verdana" font-size="14" lengthAdjust="spacing" textLength="134" x="480" y="189.532">cubemaster-mvp.bs</text><text fill="#000000" font-family="Verdana" font-size="14" lengthAdjust="spacing" textLength="104" x="480" y="208.5999">(Bikeshed spec)</text></g><!--entity diagrams--><g id="elem_diagrams"><rect fill="#FFFFFF" height="68.1358" rx="2.5" ry="2.5" style="stroke:#000000;stroke-width:1.0;" width="112" x="318" y="154.5661"/><rect fill="#FFFFFF" height="10" style="stroke:#000000;stroke-width:1.0;" width="15" x="410" y="159.5661"/><rect fill="#FFFFFF" height="2" style="stroke:#000000;stroke-width:1.0;" width="4" x="408" y="161.5661"/><rect fill="#FFFFFF" height="2" style="stroke:#000000;stroke-width:1.0;" width="4" x="408" y="165.5661"/><text fill="#000000" font-family="Verdana" font-size="14" lengthAdjust="spacing" textLength="69" x="333" y="189.532">diagrams/</text><text fill="#000000" font-family="Verdana" font-size="14" lengthAdjust="spacing" textLength="72" x="333" y="208.5999">(PlantUML)</text></g><!--entity epics--><g id="elem_epics"><rect fill="#FFFFFF" height="49.0679" rx="2.5" ry="2.5" style="stroke:#000000;stroke-width:1.0;" width="80" x="182" y="164.0661"/><rect fill="#FFFFFF" height="10" style="stroke:#000000;stroke-width:1.0;" width="15" x="242" y="169.0661"/><rect fill="#FFFFFF" height="2" style="stroke:#000000;stroke-width:1.0;" width="4" x="240" y="171.0661"/><rect fill="#FFFFFF" height="2" style="stroke:#000000;stroke-width:1.0;" width="4" x="240" y="175.0661"/><text fill="#000000" font-family="Verdana" font-size="14" lengthAdjust="spacing" textLength="40" x="197" y="199.032">epics/</text></g><!--entity tickets--><g id="elem_tickets"><rect fill="#FFFFFF" height="49.0679" rx="2.5" ry="2.5" style="stroke:#000000;stroke-width:1.0;" width="88" x="59" y="164.0661"/><rect fill="#FFFFFF" height="10" style="stroke:#000000;stroke-width:1.0;" width="15" x="127" y="169.0661"/><rect fill="#FFFFFF" height="2" style="stroke:#000000;stroke-width:1.0;" width="4" x="125" y="171.0661"/><rect fill="#FFFFFF" height="2" style="stroke:#000000;stroke-width:1.0;" width="4" x="125" y="175.0661"/><text fill="#000000" font-family="Verdana" font-size="14" lengthAdjust="spacing" textLength="48" x="74" y="199.032">tickets/</text></g><g id="elem_GMN40"><path d="M2131.5,282.5661 L2131.5,381.0962 L2360.5,381.0962 L2360.5,292.5661 L2350.5,282.5661 L2131.5,282.5661 " fill="#FFFFFF" style="stroke:#000000;stroke-width:1.0;"/><path d="M2350.5,282.5661 L2350.5,292.5661 L2360.5,292.5661 L2350.5,282.5661 " fill="#FFFFFF" style="stroke:#000000;stroke-width:1.0;"/><text fill="#000000" font-family="Verdana" font-size="13" lengthAdjust="spacing" textLength="170" x="2137.5" y="301.4631">Cargo workspace monorepo</text><text fill="#000000" font-family="Verdana" font-size="13" lengthAdjust="spacing" textLength="200" x="2137.5" y="319.1691">&#183; firmware: no_std, esp32s3 target</text><text fill="#000000" font-family="Verdana" font-size="13" lengthAdjust="spacing" textLength="208" x="2137.5" y="336.8751">&#183; companion: std, desktop + mobile</text><text fill="#000000" font-family="Verdana" font-size="13" lengthAdjust="spacing" textLength="164" x="2137.5" y="354.5811">&#183; shared: no_std compatible</text><text fill="#000000" font-family="Verdana" font-size="13" lengthAdjust="spacing" textLength="160" x="2137.5" y="372.2872">&#183; x-tools: std, developer CLI</text></g><!--link fwbin to fwlib--><g id="link_fwbin_fwlib"><path d="M1975,213.2461 C1974.01,236.4561 1972.7537,266.0415 1971.6537,292.0315 " fill="none" id="fwbin-to-fwlib" style="stroke:#000000;stroke-width:1.0;stroke-dasharray:7.0,7.0;"/><polygon fill="#000000" points="1971.4,298.0261,1975.777,289.2033,1971.6114,293.0306,1967.7842,288.865,1971.4,298.0261" style="stroke:#000000;stroke-width:1.0;"/></g><!--link fwlib to shared--><g id="link_fwlib_shared"><path d="M1949.67,366.2961 C1915.41,418.7461 1840.65,518.9361 1747,559.5661 C1730.99,566.5161 1446.35,556.3361 1433,567.5661 C1428.9463,570.9773 1425.6025,574.9875 1422.8554,579.3975 C1422.1686,580.5 1421.5191,581.6275 1420.9052,582.7769 C1420.8284,582.9206 1423.5371,577.75 1423.4614,577.8944 " fill="none" id="fwlib-to-shared" style="stroke:#000000;stroke-width:1.0;stroke-dasharray:7.0,7.0;"/><polygon fill="#000000" points="1420.6766,583.2089,1428.3969,577.0936,1422.9973,578.7801,1421.3108,573.3805,1420.6766,583.2089" style="stroke:#000000;stroke-width:1.0;"/></g><!--link appbin to shared--><g id="link_appbin_shared"><path d="M942.8,213.1161 C967.2,225.1361 998.51,238.8361 1028,246.5661 C1107.91,267.5261 1341.21,222.5661 1398,282.5661 C1426.825,313.0161 1430.9875,406.7761 1427.8638,493.5361 C1427.0828,515.2261 1425.8465,536.4786 1424.4263,556.195 C1424.0712,561.1241 1423.7047,565.9572 1423.3309,570.6771 C1423.144,573.0371 1422.9553,575.3687 1422.7653,577.67 C1422.6703,578.8206 1422.575,579.9636 1422.4794,581.0987 C1422.4316,581.6663 1422.8919,576.2534 1422.844,576.817 " fill="none" id="appbin-to-shared" style="stroke:#000000;stroke-width:1.0;stroke-dasharray:7.0,7.0;"/><polygon fill="#000000" points="1422.3358,582.7955,1427.0837,574.1666,1422.7593,577.8134,1419.1125,573.489,1422.3358,582.7955" style="stroke:#000000;stroke-width:1.0;"/></g><!--link appbin to comp--><g id="link_appbin_comp"><path d="M875.57,213.2461 C849.72,239.3661 812.5997,276.8907 786.7297,303.0407 " fill="none" id="appbin-to-comp" style="stroke:#000000;stroke-width:1.0;stroke-dasharray:7.0,7.0;"/><polygon fill="#000000" points="782.51,307.3061,791.6832,303.7211,786.0265,303.7516,785.996,298.0948,782.51,307.3061" style="stroke:#000000;stroke-width:1.0;"/></g><!--link appbin to views--><g id="link_appbin_views"><path d="M899,213.2461 C899,239.3661 899,275.1561 899,301.3061 " fill="none" id="appbin-to-views" style="stroke:#000000;stroke-width:1.0;stroke-dasharray:7.0,7.0;"/><polygon fill="#000000" points="899,307.3061,903,298.3061,899,302.3061,895,298.3061,899,307.3061" style="stroke:#000000;stroke-width:1.0;"/></g><!--link tools to shared--><g id="link_tools_shared"><path d="M1206.7221,543.6467 C1207.5353,545.552 1208.4156,547.4267 1209.3684,549.256 C1211.2741,552.9145 1213.47,556.3911 1216,559.5661 C1246.43,597.7461 1294.87,623.2936 1336.22,639.3948 C1356.895,647.4455 1375.7975,653.1345 1389.79,656.8603 C1393.2881,657.7917 1396.4794,658.6005 1399.3147,659.2927 C1400.7324,659.6389 1402.0611,659.9559 1403.2947,660.2446 C1403.9115,660.3889 1404.5045,660.5261 1405.073,660.6564 C1405.3572,660.7215 1399.7839,659.4581 1400.0558,659.5197 " fill="none" id="tools-to-shared" style="stroke:#000000;stroke-width:1.0;stroke-dasharray:7.0,7.0;"/><polygon fill="#000000" points="1405.9072,660.8465,1398.0146,654.9554,1401.031,659.7409,1396.2455,662.7573,1405.9072,660.8465" style="stroke:#000000;stroke-width:1.0;"/></g><!--link root to GMN40--><g id="link_root_GMN40"><path d="M2107.101,197.3588 C2107.1838,197.4385 2107.2672,197.5187 2107.3511,197.5995 C2108.0224,198.2457 2108.7292,198.9262 2109.4697,199.6391 C2115.3938,205.342 2123.4738,213.1205 2132.765,222.0648 C2151.3475,239.9536 2174.775,262.5061 2195.49,282.4461 " fill="none" id="root-GMN40" style="stroke:#000000;stroke-width:1.0;stroke-dasharray:7.0,7.0;"/></g><!--SRC=[RLJ1Jjmm4BtdAwPm0PLT9BXng0GKMgH5gYYeXnP5JZAxQoNnMFPa5rGXzIFwBxttK_ebdTXEIAkDjAlnlESNpykCt_0QMmJRA6qoNsjZbLCj5AgiLuuwKrrIGmxshyCpOLXXg1LU_4-yacSdaLo5Bf5EmvDbhBb1kEmAl5MUqS4TMlAQoJt3dny_uQxp35_8rLvK4CvTkTQC9NSEiom9mruf-zku_-2LV4V4XtkWF3Y9O7-XLsk-Q3g4xnd0k7cfNRjL3ey3TRaDAC1NzFRqn9_E2cqU8o9HX1fTp9t_PWu-dYz05PwTAbcJyOU9AOJ8L5sbATSdNlW12uasoM2LkvO7I9O9s90kCRTLEq0XaS2YmNobUDmcwuHizLBd7jq6tG3sgOJwAb-En_33gmesUKjc56EJW5Rw8HRvkREYgJsvM5wFE2-i5_bDdIofjSg83z5APUtWfTJyrFcPP1uJCdhPRoA3XlrnmFfrSa7ZDYL3-5f-sMZPC34W9YOk_CleKrEAxzirBvIfHqF2OehsLUMjSZMop4Q90x6jxOxI_Lewg8frntWedPyj-cZa9qTC9JKGSj7C44QcxU78l5XSmOVp-tjuUBXvdvW17Zohi4mVfpyiBCcrYW-JWGBkEEBJZ8aQ7yyOmk68OaqKkswKNnz1XRQXvwJMw1rQ5PLHHu9HPHp2MRknyoBKeMlqQp73MooZO1yDJQ5MSZ_uuzwQHXb-k5r4pe3iU3ChNmyrzE4uhLQNgLb2cCpNfNo_b4-B8FgIPM6UOJv_b-Or_8Tr_81P5jjqcffaGfzErh55isZiLCKG8nJ4J2tGCjn5SeHBvLO4s_6oaXaa9tUVGBz_mN0ddO6Xt7Dr1EasagBT2ZcondaxWy2fqDTC5jwAMg4RZAnuZa4fRc9T371gYr5YWmt9lCFbuYP3QQt- -DbV]--></g></svg>