<?xml version="1.0" encoding="us-ascii" standalone="no"?><svg xmlns="http://www.w3.org/2000/svg" xmlns:xlink="http://www.w3.org/1999/xlink" contentStyleType="text/css" height="833px" preserveAspectRatio="none" style="width:797px;height:833px;background:#FFFFFF;" version="1.1" viewBox="0 0 797 833" width="797px" zoomAndPan="magnify"><defs/><g><text fill="#000000" font-family="Verdana" font-size="22" font-weight="bold" lengthAdjust="spacing" textLength="447" x="170.5" y="38.5181">CubeMaster MVP &#8212; System Architecture</text><!--cluster cube--><g id="cluster_cube"><path d="M395.5,533.9641 L507.5,533.9641 A3.75,3.75 0 0 1 510,536.4641 L517,559.032 L605.5,559.032 A2.5,2.5 0 0 1 608,561.532 L608,669.4641 A2.5,2.5 0 0 1 605.5,671.9641 L395.5,671.9641 A2.5,2.5 0 0 1 393,669.4641 L393,536.4641 A2.5,2.5 0 0 1 395.5,533.9641 " fill="#ADD8E6" style="stroke:#333333;stroke-width:1.0;"/><line style="stroke:#333333;stroke-width:1.0;" x1="393" x2="517" y1="559.032" y2="559.032"/><text fill="#000000" font-family="Verdana" font-size="14" font-weight="bold" lengthAdjust="spacing" textLength="111" x="397" y="550.93">Cube (ESP32-S3)</text></g><!--cluster app--><g id="cluster_app"><path d="M448.5,205.9641 L561.5,205.9641 A3.75,3.75 0 0 1 564,208.4641 L571,250.0999 L621.5,250.0999 A2.5,2.5 0 0 1 624,252.5999 L624,344.4641 A2.5,2.5 0 0 1 621.5,346.9641 L448.5,346.9641 A2.5,2.5 0 0 1 446,344.4641 L446,208.4641 A2.5,2.5 0 0 1 448.5,205.9641 " fill="#90EE90" style="stroke:#333333;stroke-width:1.0;"/><line style="stroke:#333333;stroke-width:1.0;" x1="446" x2="571" y1="250.0999" y2="250.0999"/><text fill="#000000" font-family="Verdana" font-size="14" font-weight="bold" lengthAdjust="spacing" textLength="112" x="450" y="222.93">Companion App</text><text fill="#000000" font-family="Verdana" font-size="14" font-weight="bold" lengthAdjust="spacing" textLength="57" x="477.5" y="241.998">(Dioxus)</text></g><!--entity fw--><g id="elem_fw"><rect fill="#FFFFFF" height="68.1358" rx="2.5" ry="2.5" style="stroke:#000000;stroke-width:1.0;" width="147" x="436.5" y="579.9641"/><rect fill="#FFFFFF" height="10" style="stroke:#000000;stroke-width:1.0;" width="15" x="563.5" y="584.9641"/><rect fill="#FFFFFF" height="2" style="stroke:#000000;stroke-width:1.0;" width="4" x="561.5" y="586.9641"/><rect fill="#FFFFFF" height="2" style="stroke:#000000;stroke-width:1.0;" width="4" x="561.5" y="590.9641"/><text fill="#000000" font-family="Verdana" font-size="14" lengthAdjust="spacing" textLength="63" x="473.5" y="614.93">Firmware</text><text fill="#000000" font-family="Verdana" font-size="14" lengthAdjust="spacing" textLength="107" x="451.5" y="633.998">(Embassy RTOS)</text></g><!--entity desktop--><g id="elem_desktop"><rect fill="#FFFFFF" height="68.1358" rx="2.5" ry="2.5" style="stroke:#000000;stroke-width:1.0;" width="145" x="462.5" y="262.9641"/><rect fill="#FFFFFF" height="10" style="stroke:#000000;stroke-width:1.0;" width="15" x="587.5" y="267.9641"/><rect fill="#FFFFFF" height="2" style="stroke:#000000;stroke-width:1.0;" width="4" x="585.5" y="269.9641"/><rect fill="#FFFFFF" height="2" style="stroke:#000000;stroke-width:1.0;" width="4" x="585.5" y="273.9641"/><text fill="#000000" font-family="Verdana" font-size="14" lengthAdjust="spacing" textLength="105" x="477.5" y="297.93">Desktop/Mobile</text><text fill="#000000" font-family="Verdana" font-size="14" lengthAdjust="spacing" textLength="61" x="499.5" y="316.998">Frontend</text></g><!--entity ble--><g id="elem_ble"><path d="M330.8063,421.7413 C333.4518,416.4012 339.1567,415.0309 342.9365,420.4642 C346.688,412.8372 352.3108,412.9238 356.7855,419.7723 C360.0501,413.8408 364.9194,413.3473 369.009,418.8938 C373.1643,412.474 379.3739,413.7955 382.0294,420.3939 C385.5439,415.4497 390.1367,415.5184 393.5499,420.5112 C396.8189,414.0428 400.4043,413.8636 404.9805,419.2509 C409.5658,413.306 415.4674,413.8424 418.484,420.8823 C422.1675,415.524 428.4308,414.6499 431.6507,421.387 C440.7821,423.5373 442.6531,431.2449 437.1227,438.1744 C444.0128,446.3853 440.1539,452.8761 430.9057,455.191 C426.8015,459.87 422.0864,460.5737 418.7609,454.3255 C414.1484,461.2882 408.9839,459.5236 404.9412,453.7091 C402.3544,459.5839 396.6205,459.2313 393.1619,454.6956 C390.1377,460.5023 385.436,461.5775 380.9942,456.244 C376.6489,462.0423 371.6079,461.7116 368.3102,455.1674 C364.6059,460.9685 360.0819,461.4644 356.4025,455.1429 C352.7408,459.6848 347.2067,460.2941 344.9116,453.7291 C340.7848,460.5442 335.8574,460.3396 331.8534,453.6107 C323.3045,449.5754 321.404,443.7582 328.5646,436.6726 C323.1075,431.7183 322.8035,424.6747 330.8063,421.7413 " fill="#FFFFFF" style="stroke:#000000;stroke-width:1.0;"/><text fill="#000000" font-family="Verdana" font-size="14" lengthAdjust="spacing" textLength="85" x="337.5" y="441.93">BLE (Control)</text></g><!--entity wifi--><g id="elem_wifi"><path d="M482.4882,420.3995 C486.0457,413.9994 490.4736,413.9438 494.776,419.643 C499.3168,414.6377 504.6026,415.0828 507.5683,421.4195 C510.2145,414.6843 515.1374,414.2828 519.4198,419.8423 C523.3696,412.3164 528.8787,411.5447 533.8178,418.8843 C538.6381,413.3751 543.5337,412.8663 547.1278,420.1591 C550.4271,414.267 555.2308,414.5353 559.0772,419.5602 C563.3343,413.6062 567.1392,413.4509 570.8515,420.0704 C576.1236,412.8604 581.3245,414.0846 585.4526,421.2337 C587.8017,414.7772 592.8341,415.2572 596.6089,419.7858 C601.0157,412.2738 608.1348,414.5583 611.3278,421.0606 C619.3564,423.2632 621.9548,429.8545 616.6248,436.6082 C623.6998,444.8377 620.5386,452.676 609.5536,453.216 C607.2659,459.7888 602.051,460.1406 597.7013,455.3706 C594.9453,462.7057 590.1095,464.7986 584.0779,458.6899 C581.4587,463.8089 576.9532,465.6938 572.8184,460.3155 C568.603,467.8557 564.4368,466.2754 559.5387,461.0244 C556.3837,467.7891 550.2409,468.6403 545.9326,462.2139 C541.3498,467.7987 536.3071,467.098 532.9624,460.8561 C528.5138,465.8951 524.8281,466.2433 520.861,460.3244 C515.7388,466.9036 510.3245,465.5702 506.9531,458.5358 C501.2831,462.6768 497.0394,462.3149 494.0775,455.386 C489.0133,462.2361 484.6264,461.3572 480.8257,454.1913 C471.5391,450.1056 470.8777,444.1416 478.5517,437.715 C470.379,430.5914 473.84,423.6991 482.4882,420.3995 " fill="#FFFFFF" style="stroke:#000000;stroke-width:1.0;"/><text fill="#000000" font-family="Verdana" font-size="14" lengthAdjust="spacing" textLength="115" x="487.5" y="441.93">Wi-Fi (Streaming)</text></g><!--entity sd--><g id="elem_sd"><path d="M11,759.4641 C11,749.4641 95,749.4641 95,749.4641 C95,749.4641 179,749.4641 179,759.4641 L179,806.5999 C179,816.5999 95,816.5999 95,816.5999 C95,816.5999 11,816.5999 11,806.5999 L11,759.4641 " fill="#FFFFFF" style="stroke:#000000;stroke-width:1.0;"/><path d="M11,759.4641 C11,769.4641 95,769.4641 95,769.4641 C95,769.4641 179,769.4641 179,759.4641 " fill="none" style="stroke:#000000;stroke-width:1.0;"/><text fill="#000000" font-family="Verdana" font-size="14" lengthAdjust="spacing" textLength="54" x="68" y="788.43">SD Card</text><text fill="#000000" font-family="Verdana" font-size="14" lengthAdjust="spacing" textLength="148" x="21" y="807.498">(Sounds/LED Patterns)</text></g><!--entity leds--><g id="elem_leds"><path d="M216.5,744.9641 L257.5,744.9641 A3.75,3.75 0 0 1 260,747.4641 L267,765.9641 L375.5,765.9641 A2.5,2.5 0 0 1 378,768.4641 L378,818.5999 A2.5,2.5 0 0 1 375.5,821.0999 L216.5,821.0999 A2.5,2.5 0 0 1 214,818.5999 L214,747.4641 A2.5,2.5 0 0 1 216.5,744.9641 " fill="#FFFFFF" style="stroke:#000000;stroke-width:1.0;"/><line style="stroke:#000000;stroke-width:1.0;" x1="214" x2="267" y1="765.9641" y2="765.9641"/><text fill="#000000" font-family="Verdana" font-size="14" lengthAdjust="spacing" textLength="73" x="254.5" y="787.93">LED Panels</text><text fill="#000000" font-family="Verdana" font-size="14" lengthAdjust="spacing" textLength="134" x="224" y="806.998">(4&#215; 16&#215;16 WS2812B)</text></g><!--entity audio--><g id="elem_audio"><path d="M416,744.9641 L457,744.9641 A3.75,3.75 0 0 1 459.5,747.4641 L466.5,765.9641 L598,765.9641 A2.5,2.5 0 0 1 600.5,768.4641 L600.5,818.5999 A2.5,2.5 0 0 1 598,821.0999 L416,821.0999 A2.5,2.5 0 0 1 413.5,818.5999 L413.5,747.4641 A2.5,2.5 0 0 1 416,744.9641 " fill="#FFFFFF" style="stroke:#000000;stroke-width:1.0;"/><line style="stroke:#000000;stroke-width:1.0;" x1="413.5" x2="466.5" y1="765.9641" y2="765.9641"/><text fill="#000000" font-family="Verdana" font-size="14" lengthAdjust="spacing" textLength="39" x="482.5" y="787.93">Audio</text><text fill="#000000" font-family="Verdana" font-size="14" lengthAdjust="spacing" textLength="157" x="423.5" y="806.998">(MAX98357A + Speaker)</text></g><!--entity mic--><g id="elem_mic"><path d="M638.5,744.9641 L679.5,744.9641 A3.75,3.75 0 0 1 682,747.4641 L689,765.9641 L787.5,765.9641 A2.5,2.5 0 0 1 790,768.4641 L790,818.5999 A2.5,2.5 0 0 1 787.5,821.0999 L638.5,821.0999 A2.5,2.5 0 0 1 636,818.5999 L636,747.4641 A2.5,2.5 0 0 1 638.5,744.9641 " fill="#FFFFFF" style="stroke:#000000;stroke-width:1.0;"/><line style="stroke:#000000;stroke-width:1.0;" x1="636" x2="689" y1="765.9641" y2="765.9641"/><text fill="#000000" font-family="Verdana" font-size="14" lengthAdjust="spacing" textLength="35" x="690.5" y="787.93">Voice</text><text fill="#000000" font-family="Verdana" font-size="14" lengthAdjust="spacing" textLength="124" x="646" y="806.998">(PDM Microphone)</text></g><!--entity gm--><g id="elem_gm"><ellipse cx="535" cy="69.9641" fill="#FFFFFF" rx="8" ry="8" style="stroke:#000000;stroke-width:1.0;"/><path d="M535,77.9641 L535,104.9641 M522,85.9641 L548,85.9641 M535,104.9641 L522,119.9641 M535,104.9641 L548,119.9641 " fill="none" style="stroke:#000000;stroke-width:1.0;"/><text fill="#000000" font-family="Verdana" font-size="14" lengthAdjust="spacing" textLength="90" x="490" y="136.93">Game Master</text></g><!--link gm to desktop--><g id="link_gm_desktop"><path d="M535,141.2241 C535,176.9841 535,223.2141 535,256.8941 " fill="none" id="gm-to-desktop" style="stroke:#000000;stroke-width:1.0;"/><polygon fill="#000000" points="535,262.8941,539,253.8941,535,257.8941,531,253.8941,535,262.8941" style="stroke:#000000;stroke-width:1.0;"/><text fill="#000000" font-family="Verdana" font-size="13" lengthAdjust="spacing" textLength="47" x="536" y="185.8611">Interact</text></g><!--link desktop to ble--><g id="link_desktop_ble"><path d="M462.21,323.9441 C442.6,333.7341 422.75,346.5841 408,362.9641 C395.63,376.7041 389.9741,390.6831 386.0041,406.1231 " fill="none" id="desktop-to-ble" style="stroke:#000000;stroke-width:1.0;"/><polygon fill="#000000" points="384.51,411.9341,390.6252,404.2137,385.7551,407.0916,382.8772,402.2215,384.51,411.9341" style="stroke:#000000;stroke-width:1.0;"/><text fill="#000000" font-family="Verdana" font-size="13" lengthAdjust="spacing" textLength="113" x="409" y="377.8611">Commands/Config</text></g><!--link desktop to wifi--><g id="link_desktop_wifi"><path d="M531.46,331.1741 C530.41,346.6541 530,365.3041 532,381.9641 C533.18,391.8341 534.0414,396.7069 536.4314,405.9069 " fill="none" id="desktop-to-wifi" style="stroke:#000000;stroke-width:1.0;"/><polygon fill="#000000" points="537.94,411.7141,539.5486,401.9975,536.6828,406.8747,531.8056,404.009,537.94,411.7141" style="stroke:#000000;stroke-width:1.0;"/><text fill="#000000" font-family="Verdana" font-size="13" lengthAdjust="spacing" textLength="114" x="533" y="377.8611">Sound data upload</text></g><!--link desktop to wifi--><g id="link_desktop_wifi"><path d="M607.55,322.9341 C625.14,332.6041 641.81,345.6441 652,362.9641 C665.26,385.4941 649.7749,400.1018 622.9849,411.9818 " fill="none" id="desktop-to-wifi-1" style="stroke:#000000;stroke-width:1.0;"/><polygon fill="#000000" points="617.5,414.4141,627.3489,414.4223,622.0707,412.3872,624.1058,407.1091,617.5,414.4141" style="stroke:#000000;stroke-width:1.0;"/><text fill="#000000" font-family="Verdana" font-size="13" lengthAdjust="spacing" textLength="116" x="657" y="377.8611">LED pattern upload</text></g><!--link ble to cube--><g id="link_ble_cube"><path d="M382.83,461.1341 C384.24,472.9216 386.0563,488.1029 387.9934,504.2935 C388.962,512.3888 389.9609,520.7364 390.9543,529.0384 C391.451,533.1894 391.9463,537.3289 392.4358,541.4198 C392.5582,542.4425 392.6802,543.4622 392.8018,544.4782 C392.8626,544.9863 392.2104,539.5359 392.2709,540.042 " fill="none" id="ble-to-cube" style="stroke:#000000;stroke-width:1.0;"/><polygon fill="#000000" points="392.9839,545.9995,395.8862,536.588,392.3898,541.0349,387.9428,537.5385,392.9839,545.9995" style="stroke:#000000;stroke-width:1.0;"/><text fill="#000000" font-family="Verdana" font-size="13" lengthAdjust="spacing" textLength="79" x="390" y="505.8611">GATT Control</text></g><!--link wifi to cube--><g id="link_wifi_cube"><path d="M529.81,461.0941 C517.83,477.6341 499.58,498.7041 478,509.9641 C454.93,522.0041 438.95,500.1241 420,517.9641 C416.1425,521.5954 412.9466,525.7713 410.3078,530.3029 C409.6481,531.4358 411.7228,527.2325 411.1312,528.407 " fill="none" id="wifi-to-cube" style="stroke:#000000;stroke-width:1.0;"/><polygon fill="#000000" points="408.4316,533.7653,416.0532,527.5275,410.6812,529.3,408.9087,523.928,408.4316,533.7653" style="stroke:#000000;stroke-width:1.0;"/><text fill="#000000" font-family="Verdana" font-size="13" lengthAdjust="spacing" textLength="125" x="505" y="505.8611">HTTP/TCP Streaming</text></g><!--link cube to sd--><g id="link_cube_sd"><path d="M392.9614,617.0995 C392.4456,617.2404 391.907,617.3882 391.3461,617.5428 C390.2242,617.852 389.0132,618.1884 387.7176,618.5517 C385.1264,619.2783 382.1968,620.1125 378.9658,621.0518 C366.0416,624.8088 348.2931,630.2472 328.0763,637.2079 C287.6425,651.1291 237.335,671.1391 196,695.9641 C171.32,710.7841 151.0532,727.5475 132.2832,745.0075 " fill="none" id="cube-to-sd" style="stroke:#000000;stroke-width:1.0;"/><polygon fill="#000000" points="127.89,749.0941,137.2041,745.893,131.551,745.6886,131.7554,740.0355,127.89,749.0941" style="stroke:#000000;stroke-width:1.0;"/><text fill="#000000" font-family="Verdana" font-size="13" lengthAdjust="spacing" textLength="114" x="197" y="710.8611">Read/Write sounds</text></g><!--link cube to leds--><g id="link_cube_leds"><path d="M392.7861,622.2778 C392.4885,622.5504 392.1842,622.8299 391.8734,623.1161 C386.9013,627.6957 380.2788,633.9947 372.985,641.4654 C358.3975,656.4066 341.125,676.0341 329,695.9641 C319.86,710.9941 314.4522,744.3175 309.0122,759.9475 " fill="none" id="cube-to-leds" style="stroke:#000000;stroke-width:1.0;"/><polygon fill="#000000" points="307.04,765.6141,313.7761,758.4291,308.6835,760.8919,306.2206,755.7994,307.04,765.6141" style="stroke:#000000;stroke-width:1.0;"/><text fill="#000000" font-family="Verdana" font-size="13" lengthAdjust="spacing" textLength="133" x="330" y="710.8611">RMT DMA (4 channels)</text></g><!--link cube to audio--><g id="link_cube_audio"><path d="M408.6585,671.9787 C408.8727,672.4407 409.0922,672.8999 409.3172,673.3559 C410.2172,675.1802 411.2047,676.9547 412.288,678.6622 C414.4545,682.0772 417.0037,685.2241 420,687.9641 C435.96,702.5541 450.85,682.7841 468,695.9641 C483.47,707.8541 491.1054,742.5678 496.8554,759.9478 " fill="none" id="cube-to-audio" style="stroke:#000000;stroke-width:1.0;"/><polygon fill="#000000" points="498.74,765.6441,499.7107,755.8432,497.1695,760.8971,492.1156,758.356,498.74,765.6441" style="stroke:#000000;stroke-width:1.0;"/><text fill="#000000" font-family="Verdana" font-size="13" lengthAdjust="spacing" textLength="50" x="486" y="710.8611">I2S DMA</text></g><!--link cube to mic--><g id="link_cube_mic"><path d="M408.07,672.128 C408.1242,672.2423 408.1788,672.3564 408.2337,672.4703 C408.4534,672.9258 408.6789,673.3782 408.9102,673.8269 C409.8353,675.6221 410.854,677.3606 411.9751,679.0244 C414.2172,682.3519 416.8688,685.3804 420,687.9641 C430.73,696.8241 531.58,692.2741 545,695.9641 C583.7,706.6141 618.6361,723.7602 649.9661,741.8802 " fill="none" id="cube-to-mic" style="stroke:#000000;stroke-width:1.0;"/><polygon fill="#000000" points="655.16,744.8841,649.3718,736.9156,650.8318,742.3808,645.3666,743.8408,655.16,744.8841" style="stroke:#000000;stroke-width:1.0;"/><text fill="#000000" font-family="Verdana" font-size="13" lengthAdjust="spacing" textLength="65" x="594" y="710.8611">PDM Input</text></g><!--SRC=[RP9BRjim48RtFCNKsJWe3CDscgPP592V3H2XHYJ4NNH3YsEPC4KI98KyYW8zH84SA3VfIJgKxCHzS250_B-VG_upRy8MAmIhkDJCxwIstF4A16vuhKAEzo5HijGLwW05VT0TKMjUx4fdQYqcHXa79_Dc7H6M25xYs3Y1RW-DclKlD3SwPF8HON36M9118KpgDQRSKrL8RvVmwyTFo1xejuB45LiPi0YrGyRs9q0d6g0xovQZOIyRdNQ0UoZYticrBBTXh6g4RmoWC9KrEZwgCvUkkkCEl-hkh5fpxn_W9l-SjTxD7Vj-V3pPk9P6Gs8j6QRItDU-HRcr-oeBXwZ_BZD5lml6zbEpbegApHqz5xLelA8LOwr2cLf0PtmzW-w446TKU_vQuK5SoTvSGZSB3dabTTa2Tt8Z6HCyS7e5NJQRmeGxGTVCOejy_tesXIKFbARUtzaBnZP6KM-WqweQbIV7sVCJ3CwVdmRdiCg65uFXk3Ke5Fx5aTH26eBJvCk7Yz6xzmcyXSmYtw7RHnA15_pMo2Acl9ocaCh26RkbR5goaWLZl0Wq7vq5fu5ikzvePSLOMK6lz_6G4rp2LHn5Ch33LfGf8fAeIHMFxwNuDhByWuWP4T840Z4ggAqoNFmFYe7ODgu35Gj4eXcfIrWaUGxx9h76TIH-olDbFvyiuQLDh54YuWK1DyX5V-LeYi4t3NhLOyoHI7EOfWbqpw3OSXrxS_eADUd6A8PPf5u52fEsOynNsjQ1_GO0]--></g></svg>